<svg xmlns="http://www.w3.org/2000/svg" viewBox="0 0 1113.83 682.2"><defs><style>.cls-1{fill:#9d9998;}.cls-2{fill:#0f0c09;}.cls-3{fill:#a78064;}.cls-4{fill:#8d6851;}.cls-5{fill:#8c6851;}.cls-6{fill:#775945;}.cls-7{fill:#785945;}.cls-8{fill:#1e1711;}.cls-9{fill:#1e1712;}.cls-10{fill:#1a130f;}.cls-11{fill:#221b15;}.cls-12{fill:#261d18;}.cls-13{fill:#2c221c;}.cls-14{fill:#3a2f27;}.cls-15{fill:#4c3c31;}.cls-16{fill:#1d1611;}.cls-17{fill:#1e1611;}.cls-18{fill:#1f1813;}.cls-19{fill:#211913;}.cls-20{fill:#29201a;}.cls-21{fill:#281f19;}.cls-22{fill:#342922;}</style></defs><title>Asset 5</title><g id="Layer_2" data-name="Layer 2"><g id="Layer_2-2" data-name="Layer 2"><path class="cls-1" d="M17.84,682.2l.05-.54,5.74.12a.45.45,0,0,0,0,.42Z"/><path class="cls-2" d="M23.63,681.78l-5.74-.12c-3-4.64-5-9.59-5-15.26-.09-10.22-.51-20.43-1.46-30.63-1.32-14.24-2.45-28.5-3.63-42.75C7,584.18,6.28,575.34,5.65,566.5,5,556.93,4.4,547.36,3.78,537.79,2.69,521,2,504.11,1.33,487.27Q.16,459.72,0,432.14c0-5.73.07-11.47.07-17.2q0-13.74-.06-27.48c0-15.6.37-31.19.72-46.79Q1.45,309,2.27,277.34C3.19,242,3.44,206.63,3.79,171.28c.31-31,.17-61.92.08-92.88C3.82,62.17,2.38,47.22,2.42,31c.08-3.5-.72-7.38,1.67-8.67A11.43,11.43,0,0,1,10,20.9c6.67.5,13.13-.91,19.74-1.28C37,19.2,44.2,18.45,51.45,17.9Q67.23,16.72,83,15.61c8.53-.58,17.07-1.06,25.61-1.6,10.52-.67,21-1.38,31.58-2q11.25-.7,22.5-1.31c11.49-.63,23-1.26,34.48-1.79,9.75-.44,19.5-.74,29.25-1.11,10.79-.41,21.57-.85,32.36-1.23,8.55-.31,17.11-.55,25.66-.82,10.39-.34,20.78-.67,31.17-.91,13-.3,26.06-.65,39.09-.95l39.81-1c16.63-.4,33.26-.64,49.89-1,26.55-.56,53.1-.71,79.65-.94,24.8-.22,49.6-.22,74.39-.53C624.92.12,651.4.17,677.87.06q24.6-.1,49.19,0C762,.07,797,0,831.93.3c22,.19,44,.2,66,.57,21.52.36,43,.33,64.55.78,23.27.48,46.55.54,69.83.59,18.15,0,36.3-.72,54.44-1.31,3.11-.1,6.23-.19,9.35-.38,7.52-.44,12.41,5.38,11.52,12.78a27.73,27.73,0,0,0-.1,5.46c2.49,32.22,3.82,64.49,5,96.78.78,22.22,1.34,44.45,1.37,66.68,0,14.32-.13,28.63-.32,42.95q-.33,24-.87,48c-.35,15.91-.82,31.82-1.23,47.73-.4,15.67-.76,31.34-1.18,47-.39,14.47-.86,28.94-1.22,43.41q-.46,17.87-.75,35.74c-.23,14-.46,28-.57,42-.11,14.56-.07,29.11-.1,43.66,0,15.92.11,31.83.53,47.74.46,17.59,1.07,35.17,1.7,52.75.15,4.2-1.22,8-2.61,11.8a5.91,5.91,0,0,1-5.9,4.25c-16.63.56-33.26.66-49.89.92-14.48.23-29,.65-43.42,1-10.15.25-20.3.55-30.45.84-17.19.48-34.37.93-51.56,1.46-15.42.47-30.85,1-46.27,1.54-9.75.32-19.51.51-29.26.88q-24.93,1-49.87,1.5-18.71.44-37.41,1c-23.34.6-46.69,1-70,1.35-11.84.2-23.67.59-35.49,1l-27.09.95q-19.29.68-38.58,1.44c-12.62.48-25.24,1-37.86,1.43-12,.4-24,1-35.94,1.45-15,.62-30,1.21-45,1.88-16.21.73-32.42,1.54-48.63,2.32-16,.77-31.93,1.57-47.9,2.31-9.19.42-18.38.76-27.56,1.14-13.5.57-27,1.21-40.49,1.7-8.63.32-17.27.47-25.9.65-20.63.45-41.25,1-61.88,1.27-12.4.18-24.79.49-37.19.76-13,.27-25.89.81-38.83,1.19-9,.26-17.91.41-26.87.68-16.78.49-33.57.69-50.36,1.09-8.16.2-16.31.17-24.47.41C36.58,681.56,30.11,681.65,23.63,681.78Zm48.85-422c-.1,5.2-.22,10.4-.31,15.59q-.42,24-1,48c-.41,16.87-.78,33.75-.93,50.62-.16,17.35-.25,34.71.17,52.06.45,19,1,38.05,1.93,57.05.48,9.58.92,19.16,1.47,28.74.82,14.36,1.74,28.72,2.94,43.06,1.11,13.3,2.24,26.6,3.3,39.9.23,2.87.13,2.61,2.76,2.56,13.19-.23,26.38-.52,39.58-.77q20.26-.37,40.52-1c11.43-.4,22.86-.68,34.29-.94,17.51-.39,35-.77,52.53-1,21.59-.33,43.18-.65,64.76-1.32,13.66-.42,27.33-.89,41-1.49q16.31-.71,32.59-1.4l45.05-2q21.81-1,43.61-1.88,17.25-.72,34.5-1.38c15.27-.57,30.53-1.1,45.79-1.67,16.22-.59,32.44-1.22,48.66-1.8,7-.25,14.06-.42,21.1-.64,17.58-.56,35.16-1.23,52.74-1.68,16.47-.42,32.94-.63,49.41-.89q25.8-.42,51.58-1c19.34-.45,38.69-.84,58-1.43,17.9-.54,35.81-1,53.71-1.48l34.77-.93c23.67-.62,47.33-1.28,71-1.84,13.43-.31,26.87-.7,40.31-.71,2.5,0,2.55,0,2.45-2.46-.56-13.26-.6-26.54-.75-39.81-.21-19.36-.26-38.71.14-58.07.25-12.55.16-25.11.45-37.66.32-13.75.61-27.5,1-41.24.36-14.23.66-28.47,1-42.7.33-14.79.69-29.58,1-44.37.29-15.83.66-31.66,1-47.49.26-13.75.24-27.51.48-41.27.17-9.67.17-19.35-.14-29-.29-9.19-.19-18.39-.49-27.58-.46-14.63-.86-29.26-1.53-43.87-.51-11.26-1-22.53-1.47-33.79-.11-2.39-.11-2.4-2.42-2.34-5.19.14-10.39.41-15.58.43-23,.09-46.07.3-69.11-.2-17.27-.38-34.55-.43-51.82-.51-28.16-.14-56.31-.17-84.47-.25-13.76,0-27.52-.14-41.27-.14-10.71,0-21.42,0-32.13,0-7.75,0-15.5-.07-23.26,0-11.83.14-23.67.07-35.51.13q-33.6.15-67.19.35-37.3.27-74.61.62c-15.67.14-31.34.16-47,.36-20.95.26-41.9.5-62.85,1-14.87.32-29.74.61-44.61.95q-21.71.48-43.41,1c-9.91.23-19.83.37-29.74.67-18.22.55-36.43,1.24-54.65,1.77q-12.47.38-24.93.89c-14.13.59-28.28,1-42.41,1.69-12.3.56-24.59,1.26-36.88,1.94-8.14.46-16.28,1-24.41,1.5Q115.23,91.6,97.4,92.75c-7.5.48-15,1-22.49,1.48-1.51.09-1.9.77-1.82,2.13q.19,3.12.23,6.23c.23,33.68.26,67.35-.19,101C72.88,222.33,72.71,241.05,72.48,259.76ZM45.25,663.62a6.8,6.8,0,0,1-3.28.8c-4.76.51-9.52,1.06-14.28,1.6a3.15,3.15,0,0,0-2.88,2.08A32,32,0,0,1,22.23,673c-1.37,2.21-.66,3.49,1.93,3.49,3.27,0,6.54-.2,9.82-.33,8.62-.33,17.26-.06,25.89-.48,8.38-.4,16.79-.06,25.18-.48,7.9-.4,15.82-.24,23.73-.47,11.91-.36,23.81-.66,35.72-1,10.38-.3,20.77-.52,31.15-.94,7.35-.3,14.7-.06,22.06-.49,6.54-.39,13.1-.11,19.66-.42,8.86-.41,17.74-.06,26.62-.48,8.38-.41,16.78-.05,25.18-.48,8.14-.42,16.3-.13,24.45-.49,9.66-.43,19.33-.61,29-1,11.65-.47,23.31-.88,35-1.45,7.09-.35,14.2-.69,21.3-1,10.7-.43,21.38-1,32.08-1.49,6.54-.29,13.08-.63,19.62-.9q15.81-.68,31.61-1.45c7.26-.35,14.52-.64,21.79-.95q12-.51,23.94-1c7.74-.31,15.48-.68,23.23-1,8.62-.31,17.25-.67,25.87-1,8.23-.29,16.45-.66,24.68-.94,13.1-.46,26.19-1,39.29-1.47q13.43-.48,26.84-.93c10.14-.32,20.28-.59,30.43-1,7.11-.26,14.22-.16,21.34-.44,9.9-.39,19.82-.09,29.73-.52,8.07-.35,16.15-.21,24.22-.42,14.14-.36,28.29-.5,42.43-1,7-.25,14.07-.23,21.1-.44q18.23-.55,36.44-1,16.17-.43,32.35-.92,17.14-.51,34.28-1,16.29-.45,32.59-.91c12.39-.32,24.77-.58,37.15-1,11.35-.37,22.7-.61,34-1,9.35-.29,18.71-.35,28.06-.47,15.28-.21,30.55-.22,45.82-.65,2.47-.07,3-.83,2.47-3.26a4.07,4.07,0,0,0-.91-1.67c-1.47-1.79-3-3.55-4.41-5.38a2.91,2.91,0,0,0-2.94-1.1c-8,.85-15.91.11-23.84-.9,4.55-.3,9.09-.46,13.64-.62,3-.11,6.07-.25,9.1-.36.93,0,1.2-.34.58-1.13-1.25-1.56-2.51-3.1-3.76-4.67a2.4,2.4,0,0,0-2.17-.7c-10.08-.05-20.15-.49-30.22-.33-6.58.1-13.14-.4-19.71-.74a23.19,23.19,0,0,1,3.76-.61c7.42-.37,14.85-.83,22.27-1a98,98,0,0,0,15-1.13c2.13-.37,4.35-.37,6.51-1.16-6.44-8.41-13.13-16.35-19.78-24.32a3.56,3.56,0,0,0-3.15-1.33c-4.87.16-9.74.25-14.62.38-6.39.17-12.78.16-19.18.37-11.1.36-22.2.52-33.3,1-5.75.25-11.51.24-17.26.43-11.1.37-22.21.52-33.31,1-6,.26-12,.21-18,.45-9.82.39-19.65.65-29.47,1-9.58.32-19.17.61-28.75.93-10.78.36-21.57.63-32.35,1-10.39.36-20.77.53-31.16,1-6.94.27-13.9,0-20.85.49-5.66.36-11.34.12-17,.43-7.82.42-15.66.14-23.49.51-8.31.4-16.63.07-24.94.47-8.62.41-17.27,0-25.9.51-5.58.35-11.18.19-16.77.4-10.55.41-21.09.67-31.64,1l-26.11.94c-8.7.32-17.4.67-26.11,1-8.06.29-16.13.67-24.19,1-12.78.44-25.56,1-38.34,1.48-6.78.27-13.56.62-20.35.87Q489,612.14,470.8,613c-5.67.27-11.34.39-17,.66-11.73.55-23.45,1.19-35.18,1.75-5.42.26-10.86.39-16.28.65-11.25.55-22.49,1.23-33.74,1.71q-10.3.45-20.59.94c-11.89.57-23.79,1-35.69,1.43-11.5.39-23,.69-34.51,1-8.47.21-16.95,0-25.42.45s-16.78.23-25.18.43c-14.38.35-28.77.46-43.15,1-6.55.25-13.1.22-19.65.46-10.22.38-20.45.65-30.67,1-12.7.38-25.41.61-38.11,1-9.83.27-19.67.19-29.5.57-2.4.09-4.8.07-7.2.06a2.64,2.64,0,0,0-2.33.91c-4.89,6-9.82,12-14.47,18.21-.27.36-.79.71-.52,1.22s.85.3,1.29.3c5,0,10.08.07,15.12,0,4.08,0,8.15,0,12.23-.28,5-.41,10-.45,15.05-.64-5.75,1-11.53,1.64-17.29,2.44-9.88,1.37-19.74,2.85-29.61,4.27a4.24,4.24,0,0,0-3,1.71c-1.93,2.54-4,5-6,7.48-.28.35-.88.66-.6,1.17s.86.2,1.32.26C35.06,663.67,40,663.46,45.25,663.62ZM1026,20.61a13.17,13.17,0,0,1,2-.67c6.49-.81,13-1.69,19.53-2,5.51-.25,11-.09,16.55-.11a50,50,0,0,0,6.71-.08A78.11,78.11,0,0,1,1082,17c2.72,0,5.44,0,8.16,0a2.29,2.29,0,0,0,2.31-1.33c1.44-2.67,3-5.31,4.38-8,.65-1.23.31-1.8-.86-2.15-.88-.06-4.62-.69-5.35-.59-4.69.65-9.55,0-14.26.26-11,.57-22,1-33.06,1-24.08.11-48.15.36-72.22-.23-17.11-.42-34.22-.46-51.34-.52-31.18-.13-62.36-.13-93.55-.22C818.62,5.23,811,5,803.46,5c-35.34.09-70.68-.21-106,.26-26.63.35-53.26,0-79.89.47-20.3.37-40.6,0-60.9.5-18.31.4-36.63-.08-54.94.47-12.78.38-25.58-.09-38.37.47-9,.4-18.06,0-27.1.47-8.22.41-16.46,0-24.69.48-7.42.39-14.86.06-22.29.51-6,.36-12,.25-18,.41-13,.36-26,.63-39.07,1-12.06.32-24.12.55-36.18,1q-10.9.36-21.81.66c-13,.37-26,.92-39.06,1.38-6.15.22-12.3.35-18.45.63-12.29.55-24.57,1.18-36.86,1.76-4.55.21-9.11.25-13.64.62-3.12.26-6.23.3-9.34.49-9.64.59-19.28,1.22-28.92,1.82-5.74.37-11.48.68-17.22,1.07-8.28.56-16.55,1.21-24.84,1.77-5.89.4-11.8.65-17.69,1.09-9.55.7-19.09,1.51-28.64,2.24-7.25.55-14.51.94-21.74,1.63-2.62.25-5.27.2-7.87.71C9,27,8.8,27.3,9.54,28q1.83,1.73,3.68,3.43c2.82,2.59,5.63,5.21,8.5,7.76a3.26,3.26,0,0,0,2.74,1.15,99.82,99.82,0,0,1,16-.78,23.48,23.48,0,0,1,7.58,1.25,43.68,43.68,0,0,1-7.78,1c-4.13.34-8.28.61-12.41.92-.36,0-.89-.15-1,.34s.37.66.65.92c3.07,2.79,6.15,5.58,9.21,8.39a3.2,3.2,0,0,0,2.3,1c14.08.23,28.14-.11,42.2-.85,11.73-.62,23.46-1.12,35.21-1.43,9.11-.23,18.21-.69,27.33-.64,11.11.07,22.21,0,33.27,1.27-13.23.25-26.43,1.05-39.64,1.53l-25.15.93c-8,.3-16,.6-23.94,1-7,.34-13.9.42-20.85.61a23.46,23.46,0,0,0-3.36.09A195.94,195.94,0,0,1,44.6,58.2c-.3,0-.7-.09-.85.24s.25.7.51,1c2,2,3.91,4,5.78,6.07a6.44,6.44,0,0,0,6,2.41c1.65-.24,3.34-.33,5-.45,9.16-.68,18.32-1.37,27.48-1.91q11.23-.66,22.47-1.47c9.64-.7,19.27-1.4,28.92-1.88,8.38-.41,16.74-1,25.11-1.46q14.6-.84,29.2-1.42c7.58-.31,15.16-.67,22.74-.95,8.31-.3,16.61-.68,24.91-1l27.54-1q14.25-.49,28.51-.94c12.3-.39,24.61-.64,36.91-1,13-.33,26.05-.48,39.07-1,7.51-.29,15,0,22.54-.48,6.38-.38,12.78-.11,19.18-.42,8.54-.41,17.1-.13,25.66-.48,11.1-.46,22.22-.21,33.33-.51,17.74-.48,35.5-.11,53.25-.48,21.43-.45,42.86-.15,64.3-.46,30.37-.44,60.75-.22,91.13-.48,28.14-.25,56.29-.12,84.43.2,29.67.34,59.34-.11,89,.48,17.43.35,34.87,0,52.3.47,13.35.38,26.71-.06,40.06.47,9.9.39,19.83.29,29.74.45,24.07.39,48.15.32,72.23.09a4.34,4.34,0,0,0,1.66-.08c3.83-1.71,8-2.23,11.94-3.43a8.08,8.08,0,0,0,3.88-2.69c.56-.67.36-1-.46-1-.48,0-1,0-1.44,0-4.3.29-8.6.68-12.9.87-8.62.37-17.25.7-25.87.9-11.35.27-22.7-.07-34.09.36a2.63,2.63,0,0,1,1.5-.62,247.87,247.87,0,0,1,30.3-2.47c3,0,5.92-.24,8.86-.28,11.84-.17,23.63-1.2,35.44-1.57a5.36,5.36,0,0,0,5.35-3.49c2.79-6.08,6.8-11.37,11-16.48.33-.4,1.08-.69.74-1.33s-1-.3-1.54-.3c-12-.1-24-.08-36-.55A229,229,0,0,0,1026,20.61ZM16.69,65l-.51,0c-.24-2.08-.5-4.16-.7-6.24-.61-6.21-.79-12.44-1-18.67a3.49,3.49,0,0,0-1.08-2.54,59.61,59.61,0,0,0-5-4.07c-.35-.28-.67-.83-1.2-.55s-.34.85-.29,1.3c.73,6.93.24,13.89.65,20.84.52,8.78.4,17.59.47,26.38.25,34.47.49,68.94-.18,103.42-.29,14.95,0,29.91-.46,44.86-.38,11.27,0,22.55-.48,33.82-.39,8.79,0,17.59-.47,26.38-.4,8.23-.07,16.47-.49,24.71-.39,7.58-.15,15.18-.47,22.78C5.09,346.74,5.07,356,5,365.3c-.2,24.79-.53,49.58.19,74.37.34,11.67.52,23.34,1,35,.3,7.58.57,15.17,1,22.75.46,8.7.68,17.41,1.17,26.11.19,3.19.28,6.38.49,9.57Q9.7,547,10.63,560.83c.33,4.86.67,9.73,1,14.58.57,7.16,1.21,14.32,1.78,21.48.55,6.93,1,13.87,1.59,20.79.72,8,1.23,16.08,1.82,24.12.55,7.59.49,15.18.4,22.78,0,.88.05,1.76.11,2.63,0,.55,0,1.2.7,1.38s1-.34,1.26-.85a101.38,101.38,0,0,1,8.83-12.83,3,3,0,0,0,.76-1.95c-.07-2.56.07-5.14-.18-7.68-.68-7,0-14-.56-21a120.91,120.91,0,0,1,2.62,26.4c.4-.12.6-.11.67-.21,3.77-5.06,7.44-10.21,11.54-15a3.65,3.65,0,0,0,.77-2.67c0-3.51-.1-7-.38-10.53q-.63-7.89-.91-15.79c-.14-3.75,0-7.52,0-11.28,0-.24.18-.41.57-.35.62,3.49.93,7.06,1.28,10.62.76,7.71,2.57,15.28,2.8,23.05,0,.46-.12,1.08.45,1.23s.82-.4,1.15-.73c1.71-1.68,3.38-3.41,5.14-5a3,3,0,0,0,1-2.31,63,63,0,0,0-.46-7.89c-.58-6.76-1-13.54-1.57-20.3-.89-11.22-1.9-22.43-2.72-33.66-.73-10-1.34-20.08-1.89-30.13-.56-10.21-1-20.43-1.44-30.64-.32-7.59-.66-15.17-.92-22.76-.46-13.74-.82-27.49-1-41.24-.18-18.47-.35-36.95.24-55.42.27-8.15.18-16.31.41-24.46q.54-19.91,1-39.8c.33-13.83.53-27.65,1-41.48.28-8.47.16-16.94.47-25.42.41-11.19.06-22.38.43-33.58.49-14.31.17-28.63.48-42.94.35-16.48.17-33,.17-49.44,0-14.88,0-29.76-.12-44.64,0-3.63-.79-7.26-3.17-10.1-3.6-4.3-8-7.83-12.1-11.63-.29-.26-.59-.67-1-.53-.57.2-.41.79-.42,1.24-.08,3.2-.27,6.39-.43,9.58-.48,9.5-.77,19-1,28.51-.22,7.42,0,14.85-.71,22.27-.92-6.39-1.24-12.84-1.55-19.27-.27-5.82,0-11.67-.29-17.49C28,75,27.4,69.56,27.37,64.12c0-4.15-.27-8.31-.41-12.46a3.45,3.45,0,0,0-1.14-2.77c-2.47-2.15-4.88-4.38-7.32-6.56-.28-.25-.54-.73-1-.49s-.2.71-.21,1.08c0,5.12,0,10.24-.07,15.36C17.2,60.54,16.88,62.79,16.69,65ZM1085.52,96.76c-.24-4.67-.38-8.91-.7-13.13-.59-7.81-1.29-15.61-1.35-23.44,0-6.72-1.75-13.31-1.48-20a.87.87,0,0,0-.17-.64c-.36-.26-.6.1-.78.32-2.15,2.78-5,5-6.87,8a70.37,70.37,0,0,1-6,8.09,5,5,0,0,0-1.15,3.77c.33,6,.66,12,.91,17.94.5,12,1,24,1.42,35.93q.59,16.89,1,33.8c.26,12,.14,24,.44,36,.19,7.57,0,15.14-.22,22.72-.29,10.07-.18,20.14-.41,30.22-.37,15.9-.47,31.81-1.07,47.71-.24,6.3-.24,12.62-.41,18.93-.34,11.91-.63,23.81-1,35.72-.35,12.86-.62,25.73-1,38.59-.36,11.82-.51,23.65-1,35.47-.27,6.71-.18,13.43-.44,20.14-.36,9.09-.32,18.2-.47,27.31-.31,18.43-.24,36.88-.46,55.32-.09,6.92.12,13.85.17,20.77.13,17.84.19,35.67.63,53.5a6.2,6.2,0,0,0,2.37,4.92c.23.2.43.51.79.42s.34-.49.36-.78c.13-1.91.31-3.82.35-5.74a62.85,62.85,0,0,1,.75-9.14c.64,6,.74,11.79,1,17.53a5.51,5.51,0,0,0,1.25,3.23c5.33,7,11.32,13.45,16.48,20.58a21.86,21.86,0,0,0,3.67,4.28,176.74,176.74,0,0,1,0-30.78,55.3,55.3,0,0,1,.76,6.66c.13,3,.35,6.06.64,9.08.54,5.72,1.21,11.43,1.71,17.15.29,3.3,4.35,8.69,7.52,9.71a4.15,4.15,0,0,0,.68.22c1.58.26,2.43-.5,2.32-2.11-.06-1-.25-2.07-.29-3.1q-.48-13.07-.94-26.11-.51-15.22-1-30.44c-.27-9.83-.28-19.67-.37-29.5-.19-19.11-.36-38.22.14-57.33.37-14.31-.07-28.63.49-42.94.34-8.87.18-17.74.45-26.62.41-13.34.55-26.69,1-40,.26-7.51.09-15,.45-22.54.38-8.06.14-16.14.51-24.22.35-7.5.11-15,.45-22.54.4-8.46.05-16.94.49-25.41.4-7.67.17-15.35.45-23,.43-12,.32-24,.47-36,.3-23.51.43-47-.2-70.53q-.43-16.54-.91-33.07c-.41-13.82-1-27.63-1.55-41.44q-.4-9.94-.89-19.87c-.58-11.73-1-23.47-1.47-35.21-.16-4.31-.1-8.64-.1-13,0-1.05-.26-1.35-1.21-.67a15.15,15.15,0,0,0-3.08,3c-3.48,4.5-6.07,9.59-9.49,14.12-2.94,3.91-5,7.91-3.65,13,0,16.23.69,32.46.52,48.7A27.26,27.26,0,0,1,1085.52,96.76ZM83.22,82.15l0,.9a52.15,52.15,0,0,0-6.12.58c-2.31.17-4.59.55-6.91.6-1.14,0-1.66.58-.7,1.63,1.65,1.79,3.33,3.34,6.1,3.13,6.52-.52,13-.93,19.57-1.4q11.46-.81,22.93-1.43c7.57-.42,15.13-1,22.69-1.46,8.12-.48,16.25-1,24.37-1.42,8.77-.46,17.53-1.06,26.3-1.44q11-.47,22-1c8.38-.38,16.76-.67,25.14-1,8.54-.3,17.07-.68,25.61-.94,10.06-.3,20.12-.49,30.17-1,5-.26,10.06-.06,15.1-.42,6.13-.45,12.29-.09,18.44-.49,7-.46,14.06,0,21.09-.49s14,0,21.08-.49,14.22,0,21.33-.48c7.34-.45,14.7-.07,22.05-.48,8.45-.46,16.93,0,25.41-.47,8.93-.46,17.89-.13,26.85-.44,15.26-.54,30.53-.13,45.8-.49,23.34-.54,46.7-.07,70.05-.48,29.9-.53,59.81-.15,89.72-.46q46-.5,92.07.21c28.71.41,57.42-.08,86.13.44,22.14.4,44.3.08,66.45.58,9.51.21,19-.07,28.53.39,9.74.47,19.5.27,29.25.46,16.23.33,32.48.11,48.71.1,5.19,0,10.35-.19,15.36-1.85,2.49-.83,5.1-1.32,7.63-2,.76-.21,1.73-.73,1.55-1.53s-1.23-.32-1.9-.35c-3.67-.15-7.39.33-11.25-.68a53.47,53.47,0,0,1,14.27-1.19,3,3,0,0,0,2.48-.55,124.39,124.39,0,0,0,8.72-8.92c.32-.39,1-.86.65-1.41s-1-.24-1.55-.24c-5,.09-9.91.37-14.84.38-24.31.06-48.62.51-72.93-.26-13.5-.42-27-.28-40.53-.41-42.45-.43-84.9-.2-127.35-.5-35.89-.26-71.78-.3-107.67.24-25.66.39-51.33,0-77,.45-21.65.42-43.3,0-65,.53-17,.39-34.06-.15-51.09.44-13.34.46-26.7-.15-40,.49-8.78.43-17.58,0-26.37.45-8.62.47-17.26,0-25.89.51-7,.42-14,0-21.09.47-6.21.44-12.45.07-18.68.47-6.94.45-13.9,0-20.85.5-6,.42-12,.06-18,.46-6.93.45-13.89.2-20.84.46-10.14.39-20.28.65-30.41,1-9.58.32-19.16.62-28.74,1-8.86.31-17.72.6-26.58,1-7.5.33-15,.59-22.5.93l-22,1c-5.9.27-11.79.6-17.69.95-8.52.5-17,.87-25.57,1.49-6.28.45-12.59.6-18.87,1.12-2.71.23-5.42.28-8.13.47-8,.57-15.9,1.22-23.86,1.76-6.13.42-12.28.59-18.39,1.14-2.55.23-5.12.15-7.64.56-1,.16-2.67-.15-2.77.63-.14,1.11,1.4,1.75,2.25,2.56s1.69.06,2.49-.1c4-.82,13.73-1.19,17.71-.56a15.53,15.53,0,0,1-3.31.66c-4.45.3-8.83,1.35-13.3,1.5-1,0-1.17.53-.48,1.19,1.16,1.09,2.38,2.12,3.59,3.17a1.33,1.33,0,0,0,1.14.18,50.88,50.88,0,0,1,8.37-.32C78.16,82.12,80.69,82.15,83.22,82.15ZM93.6,613.88c-3.06.45-6.1,1-9.16,1.34-5.61.71-11.19,2-16.88,1.6-2.09-.14-3.06.93-4.09,2.26-.73.93-.27,1.27.7,1.28l1.44,0c7.11-.12,14.22,0,21.33-.41,7.58-.42,15.18,0,22.77-.48,5.89-.4,11.82,0,17.73-.46s12-.24,18-.47c10.61-.4,21.24-.55,31.85-1,7-.31,14.06,0,21.09-.46s14.22-.08,21.33-.44c9.42-.48,18.86,0,28.3-.5,8.85-.44,17.73-.23,26.61-.49,11.25-.32,22.52-.6,33.77-.92,10.79-.31,21.56-.72,32.34-1.16,9.33-.39,18.66-.75,28-1.27,7.17-.4,14.36-.67,21.53-1L422,609.83c6.7-.31,13.4-.64,20.1-.94,6.86-.31,13.71-.65,20.57-.95,7.42-.33,14.83-.67,22.25-1,8-.31,15.95-.67,23.93-1,7.74-.3,15.48-.66,23.21-1q12.93-.51,25.86-1c8.22-.29,16.44-.65,24.66-1q13-.47,26.09-1c8.86-.34,17.72-.62,26.58-.94,9.5-.35,19-.51,28.49-1,5-.26,10.06-.12,15.09-.4,7.66-.41,15.34-.16,23-.52,8.78-.42,17.58,0,26.37-.45,9.17-.47,18.38,0,27.57-.51,7.25-.42,14.53,0,21.81-.46,6.53-.43,13.09-.06,19.65-.48,6.85-.43,13.73,0,20.61-.48,6-.43,12,0,18-.48s11.82,0,17.73-.48c5.74-.43,11.5,0,17.25-.49,5.33-.41,10.7-.26,16-.43,11.34-.37,22.68-.52,34-1,5.66-.26,11.33,0,17-.43s11.65-.07,17.49-.47c6.21-.44,12.45,0,18.69-.5,5.49-.41,11-.05,16.52-.46,5.74-.42,11.51-.33,17.25-.46,11.51-.24,23-.88,34.53-.66,4.08.07,8.13-.62,12.21-.39.38,0,.88.12,1.1-.24s-.12-.91-.41-1.27c-1.65-2.05-3.34-4.07-5-6.12a5.45,5.45,0,0,0-4.15-2c-2.47-.15-5-.25-7.4-.54a40.12,40.12,0,0,1-7.8-1.23c4.81-.41,9.32-1.09,13.86-.31.3,0,.75.07.9-.1.32-.36,0-.7-.27-1-2-2.86-4.27-5-8.16-3.67a6.74,6.74,0,0,1-1.91,0c-9.19.23-18.38-.15-27.58.44-6.13.4-12.29,0-18.44.49-5.5.4-11,.07-16.53.46-6.06.43-12.14.1-18.21.51-5.74.39-11.5,0-17.25.45-6.13.44-12.3,0-18.45.51-5,.39-10.06.25-15.09.42-10.69.37-21.39.66-32.09,1q-15.69.51-31.38,1c-10.62.33-21.24.52-31.86,1-6.46.29-12.93,0-19.41.45-6,.43-12,.06-18,.45-6.85.45-13.73.08-20.61.49-7.65.47-15.33.08-23,.46-10.22.5-20.46-.05-30.69.53-7.18.41-14.38.18-21.57.43-10.86.39-21.72.66-32.58,1-8.93.3-17.87.64-26.81.94q-13.77.45-27.53,1-12.33.48-24.66.93c-9.26.34-18.52.63-27.77,1-7.66.3-15.32.63-23,.93-8.53.33-17.07.69-25.61,1-7.34.27-14.68.6-22,.94s-14.68.65-22,1c-6.94.3-13.88.66-20.81.95-7.1.3-14.19.66-21.29,1s-14,.66-21.05,1c-7.26.31-14.51.69-21.77,1-7.82.29-15.64.69-23.45.94-9.82.32-19.64.53-29.46,1-7.58.36-15.17,0-22.76.46-8.06.46-16.14.07-24.21.45-10.22.49-20.46,0-30.69.54-7.34.41-14.69,0-22.05.45-6.69.44-13.42,0-20.13.51-5.09.37-10.21.08-15.33.44-6.13.43-12.29,0-18.44.52-5,.38-10.06.15-15.09.43-7.82.43-15.66.31-23.49.46-11.34.22-22.69.57-34,.61a3.44,3.44,0,0,0-2.92,1.29c-2.51,3-5,6-7.56,9-.25.29-.7.58-.57,1,.2.6.82.33,1.25.33,5.51,0,11,.08,16.55-.1A42.47,42.47,0,0,1,93.6,613.88Zm-22.81-31a50.63,50.63,0,0,1,1.74,10,48.71,48.71,0,0,1,.47,6.93c0,.28-.08.66.29.8s.57-.2.82-.38A2.56,2.56,0,0,0,75,598c0-3.84-.61-7.63-.92-11.44-.53-6.68-1-13.37-1.55-20s-1.26-13.33-1.79-20c-.55-7-1-14-1.44-21-.51-8.12-1-16.24-1.41-24.37-.32-7-.65-14-.93-21.05q-.48-12.09-1-24.18c-.31-7-.36-14.06-.43-21.08-.2-21.83-.57-43.67.24-65.49.3-7.83-.08-15.66.46-23.49.41-6.06,0-12.14.47-18.21.45-6.61,0-13.26.48-19.89s0-13.26.47-19.89c.46-7,.14-14.06.48-21.09.47-9.5.16-19,.46-28.53.46-14.55.22-29.1.49-43.65.36-18.72.18-37.44.2-56.16q0-20.16-.08-40.31a14.76,14.76,0,0,0-2.53-8.6c-.21-.3-.64-.72-.91-.68-.65.09-.42.74-.42,1.17,0,7.11-.61,14.2-.86,21.3-.27,7.66-.81,15.32-.6,23,0,1.64,0,3.28,0,4.92a39.15,39.15,0,0,1-.94-9.75c0-1,0-2.08-.11-3.11a150,150,0,0,1-.17-19.89c.25-6.38.77-12.75.81-19.14a2.42,2.42,0,0,0-.84-2.12c-2.87-2.42-5.7-4.88-8.55-7.33-.28-.24-.59-.74-1-.42-.22.18-.21.73-.19,1.11.08,1.83.35,3.64.35,5.49-.07,34,.43,68-.34,102-.33,14.54.13,29.1-.44,43.65-.46,11.58.09,23.18-.49,34.77-.44,8.78,0,17.58-.47,26.37-.46,8.14,0,16.3-.49,24.45-.45,7.58-.27,15.18-.43,22.77-.26,12.47-.64,24.94-.61,37.41.06,21.51-.34,43,.31,64.53.38,12.85.61,25.72,1,38.57.19,5.51.49,11,.69,16.53.13,3.66.21,7.34.41,11,.43,7.89,1,15.77,1.29,23.66.15,3.76.47,7.5.69,11.24.16,2.87.22,5.74.44,8.61q.9,11.81,1.79,23.62c.37,5,.68,10,1.06,15q.92,11.82,1.88,23.62c.06.71.19,1.42.31,2.12.15.86.49.9,1,.25,1.72-2,3.44-4,5.2-6a1.93,1.93,0,0,0,.44-2,69.3,69.3,0,0,1-1.33-8.74c-.88-8.41-1.57-16.84-1.79-25.29-.12-4.55-.83-9.09-.24-13.66,1.1,6.6,1.33,13.29,2,19.92.66,6.27,1,12.56,1.57,18.84.22,2.46.58,4.9.88,7.35.06.41.06,1.29.68.75,1.16-1,2.78-1.78,2.72-3.69-.06-1.6-.09-3.19-.23-4.78A124.21,124.21,0,0,1,70.79,582.92ZM1052.68,90.45c-.73-.26-.78-.57-.87-.88a47.66,47.66,0,0,1-2-12.49c0-.46.18-1.07-.29-1.32-.63-.32-1,.36-1.4.65a3.92,3.92,0,0,0-1.72,3.91c.1,1.44.38,2.86.43,4.29.21,6.46.61,12.92.92,19.37.38,8.06.66,16.12,1,24.18.35,9.58.59,19.16,1,28.74s.22,19.34.43,29c.23,11.34.31,22.7-.19,34.05-.48,10.78.07,21.58-.51,32.37-.41,7.5,0,15-.49,22.53-.4,5.82-.07,11.66-.46,17.49-.43,6.38,0,12.78-.5,19.17-.4,5.9-.22,11.82-.44,17.73-.41,11.26-.5,22.53-1,33.78-.27,6-.21,12-.41,18-.38,11.26-.53,22.52-1,33.78-.31,7.18-.14,14.38-.42,21.57-.49,12.46-.31,24.94-.45,37.41-.25,23-.48,46.06.2,69.09.26,9,.07,18.06.58,27.09a4.93,4.93,0,0,0,.22,1.64c.2.48.59,1.07,1.23.95s.46-.76.46-1.2a33,33,0,0,1,1.22-7.87,3.7,3.7,0,0,1,.66,2.65c0,2.48,0,5,0,7.44a3.29,3.29,0,0,0,.3,2.1c1.8,2.38,3.68,4.69,5.94,7.14.32-6.81-.42-13.25.56-20.09a7.47,7.47,0,0,1,.42.9,85.82,85.82,0,0,1,1.44,19.06c-.07,2.32.43,4.22,2.24,5.72.33.27.45,1,1,.68.19-.11.16-.73.15-1.11-.1-4.55-.21-9.1-.36-13.65-.37-11-.36-22-.45-33.06-.15-17.82-.35-35.65.19-53.49.45-14.86-.11-29.74.52-44.61.35-8.22-.07-16.46.45-24.69.44-6.93,0-13.9.5-20.85.42-6.29.08-12.62.44-18.93.46-7.82.06-15.66.51-23.49.43-7.42.06-14.86.46-22.29.42-8.06.11-16.14.51-24.21.4-8.22,0-16.46.45-24.7.43-8.61.15-17.25.51-25.88.43-10.55.28-21.11.4-31.66.28-23.18.46-46.37-.16-69.56-.35-13.1-.49-26.21-1.06-39.3-.17-3.75-.26-7.51-.36-11.25-.26-9.83-.92-19.63-1.11-29.45-.09-4.32-.68-8.61-.52-12.93,0-.16,0-.32,0-.48-.06-.76-.48-.8-.9-.33-1.23,1.37-2.4,2.78-3.58,4.18-.22.26-.14.6-.11.92.39,4.13.9,8.25,1.09,12.39.19,4,0,8,0,11.93a4.78,4.78,0,0,1-.82-2.26c-.78-5.45-1.3-10.92-1.83-16.4-.12-1.29.55-3.4-.54-3.66s-2,1.78-3.1,2.68a2.44,2.44,0,0,0-.85,2.9C1052.4,80.56,1052.09,85.47,1052.68,90.45Z"/><path class="cls-3" d="M72.48,259.76c.23-18.71.4-37.43.65-56.14.45-33.68.42-67.35.19-101q0-3.11-.23-6.23c-.08-1.36.31-2,1.82-2.13,7.5-.45,15-1,22.49-1.48q17.82-1.17,35.65-2.29c8.13-.51,16.27-1,24.41-1.5,12.29-.68,24.58-1.38,36.88-1.94,14.13-.64,28.28-1.1,42.41-1.69q12.47-.51,24.93-.89c18.22-.53,36.43-1.22,54.65-1.77,9.91-.3,19.83-.44,29.74-.67q21.71-.5,43.41-1c14.87-.34,29.74-.63,44.61-.95,21-.45,41.9-.69,62.85-1,15.67-.2,31.34-.22,47-.36q37.31-.33,74.61-.62,33.6-.23,67.19-.35c11.84-.06,23.68,0,35.51-.13,7.76-.1,15.51,0,23.26,0,10.71,0,21.42,0,32.13,0,13.75,0,27.51.1,41.27.14,28.16.08,56.31.11,84.47.25,17.27.08,34.55.13,51.82.51,23,.5,46.07.29,69.11.2,5.19,0,10.39-.29,15.58-.43,2.31-.06,2.31,0,2.42,2.34.49,11.26,1,22.53,1.47,33.79.67,14.61,1.07,29.24,1.53,43.87.3,9.19.2,18.39.49,27.58.31,9.68.31,19.36.14,29-.24,13.76-.22,27.52-.48,41.27-.3,15.83-.67,31.66-1,47.49-.26,14.79-.62,29.58-1,44.37-.32,14.23-.62,28.47-1,42.7-.35,13.74-.64,27.49-1,41.24-.29,12.55-.2,25.11-.45,37.66-.4,19.36-.35,38.71-.14,58.07.15,13.27.19,26.55.75,39.81.1,2.43,0,2.46-2.45,2.46-13.44,0-26.88.4-40.31.71-23.66.56-47.32,1.22-71,1.84l-34.77.93c-17.9.49-35.81.94-53.71,1.48-19.35.59-38.7,1-58,1.43q-25.78.6-51.58,1c-16.47.26-32.94.47-49.41.89-17.58.45-35.16,1.12-52.74,1.68-7,.22-14.07.39-21.1.64-16.22.58-32.44,1.21-48.66,1.8-15.26.57-30.52,1.1-45.79,1.67q-17.25.66-34.5,1.38-21.81.92-43.61,1.88l-45.05,2q-16.29.72-32.59,1.4c-13.65.6-27.32,1.07-41,1.49-21.58.67-43.17,1-64.76,1.32-17.51.27-35,.65-52.53,1-11.43.26-22.86.54-34.29.94q-20.25.69-40.52,1c-13.2.25-26.39.54-39.58.77-2.63,0-2.53.31-2.76-2.56-1.06-13.3-2.19-26.6-3.3-39.9-1.2-14.34-2.12-28.7-2.94-43.06-.55-9.58-1-19.16-1.47-28.74-.94-19-1.48-38-1.93-57.05-.42-17.35-.33-34.71-.17-52.06.15-16.87.52-33.75.93-50.62q.57-24,1-48C72.26,270.16,72.38,265,72.48,259.76Z"/><path class="cls-4" d="M45.25,663.62c-5.23-.16-10.19,0-15.13-.52-.46-.06-1.08.19-1.32-.26s.32-.82.6-1.17c2-2.49,4.07-4.94,6-7.48a4.24,4.24,0,0,1,3-1.71c9.87-1.42,19.73-2.9,29.61-4.27,5.76-.8,11.54-1.41,17.29-2.44-5,.19-10.05.23-15.05.64-4.08.33-8.15.25-12.23.28-5,0-10.08,0-15.12,0-.44,0-1,.22-1.29-.3s.25-.86.52-1.22c4.65-6.21,9.58-12.19,14.47-18.21a2.64,2.64,0,0,1,2.33-.91c2.4,0,4.8,0,7.2-.06,9.83-.38,19.67-.3,29.5-.57,12.7-.35,25.41-.58,38.11-1,10.22-.31,20.45-.58,30.67-1,6.55-.24,13.1-.21,19.65-.46,14.38-.55,28.77-.66,43.15-1,8.4-.2,16.8,0,25.18-.43s16.95-.24,25.42-.45c11.5-.3,23-.6,34.51-1,11.9-.41,23.8-.86,35.69-1.43q10.29-.48,20.59-.94c11.25-.48,22.49-1.16,33.74-1.71,5.42-.26,10.86-.39,16.28-.65,11.73-.56,23.45-1.2,35.18-1.75,5.67-.27,11.34-.39,17-.66q18.19-.88,36.39-1.53c6.79-.25,13.57-.6,20.35-.87,12.78-.52,25.56-1,38.34-1.48,8.06-.28,16.13-.66,24.19-1,8.71-.31,17.41-.66,26.11-1l26.11-.94c10.55-.38,21.09-.64,31.64-1,5.59-.21,11.19-.05,16.77-.4,8.63-.53,17.28-.1,25.9-.51,8.31-.4,16.63-.07,24.94-.47,7.83-.37,15.67-.09,23.49-.51,5.68-.31,11.36-.07,17-.43,7-.44,13.91-.22,20.85-.49,10.39-.42,20.77-.59,31.16-1,10.78-.37,21.57-.64,32.35-1,9.58-.32,19.17-.61,28.75-.93,9.82-.34,19.65-.6,29.47-1,6-.24,12-.19,18-.45,11.1-.48,22.21-.63,33.31-1,5.75-.19,11.51-.18,17.26-.43,11.1-.5,22.2-.66,33.3-1,6.4-.21,12.79-.2,19.18-.37,4.88-.13,9.75-.22,14.62-.38a3.56,3.56,0,0,1,3.15,1.33c6.65,8,13.34,15.91,19.78,24.32-2.16.79-4.38.79-6.51,1.16a98,98,0,0,1-15,1.13c-7.42.14-14.85.6-22.27,1a23.19,23.19,0,0,0-3.76.61c6.57.34,13.13.84,19.71.74,10.07-.16,20.14.28,30.22.33a2.4,2.4,0,0,1,2.17.7c1.25,1.57,2.51,3.11,3.76,4.67.62.79.35,1.1-.58,1.13-3,.11-6.06.25-9.1.36-4.55.16-9.09.32-13.64.62,7.93,1,15.85,1.75,23.84.9a2.91,2.91,0,0,1,2.94,1.1c1.43,1.83,2.94,3.59,4.41,5.38a4.07,4.07,0,0,1,.91,1.67c.57,2.43,0,3.19-2.47,3.26-15.27.43-30.54.44-45.82.65-9.35.12-18.71.18-28.06.47-11.34.35-22.69.59-34,1-12.38.41-24.76.67-37.15,1q-16.29.44-32.59.91-17.14.48-34.28,1-16.17.48-32.35.92-18.22.48-36.44,1c-7,.21-14.07.19-21.1.44-14.14.51-28.29.65-42.43,1-8.07.21-16.15.07-24.22.42-9.91.43-19.83.13-29.73.52-7.12.28-14.23.18-21.34.44-10.15.38-20.29.65-30.43,1q-13.43.43-26.84.93c-13.1.48-26.19,1-39.29,1.47-8.23.28-16.45.65-24.68.94-8.62.3-17.25.66-25.87,1-7.75.28-15.49.65-23.23,1q-12,.46-23.94,1c-7.27.31-14.53.6-21.79.95q-15.79.75-31.61,1.45c-6.54.27-13.08.61-19.62.9-10.7.47-21.38,1.06-32.08,1.49-7.1.28-14.21.62-21.3,1-11.65.57-23.31,1-35,1.45-9.67.38-19.34.56-29,1-8.15.36-16.31.07-24.45.49-8.4.43-16.8.07-25.18.48-8.88.42-17.76.07-26.62.48-6.56.31-13.12,0-19.66.42-7.36.43-14.71.19-22.06.49-10.38.42-20.77.64-31.15.94-11.91.35-23.81.65-35.72,1-7.91.23-15.83.07-23.73.47-8.39.42-16.8.08-25.18.48-8.63.42-17.27.15-25.89.48-3.28.13-6.55.32-9.82.33-2.59,0-3.3-1.28-1.93-3.49a32,32,0,0,0,2.58-4.87A3.15,3.15,0,0,1,27.69,666c4.76-.54,9.52-1.09,14.28-1.6A6.8,6.8,0,0,0,45.25,663.62Zm861.1-36.08a2,2,0,0,0-2-.73c-6.56.22-13.1-.2-19.65-.36-10.62-.27-21.23-.83-31.84-1.35-5.34-.26-10.7-.5-16-1.07-8.81-.94-17.6-2-26.44-2.6-11-.72-22-1-33-1.62q-6.81-.36-13.61-1.06c-8.34-.88-16.67-1.78-25.07-1.83-9.44,0-18.87.13-28.3.45-7.75.26-15.5.24-23.25.35-13.27.19-26.5,1.55-39.78,1.11a23.81,23.81,0,0,0-4.55.15c-7.8,1.28-15.7,1.82-23.51,2.92-12.82,1.81-25.75,2.34-38.61,3.65-5.87.6-11.74,1.2-17.56,2.21-9.67,1.7-19.35,3.26-29.08,4.53-8.86,1.16-17.72,2.28-26.57,3.54-7,1-14.11,1.83-21.19,2.13s-14.37.69-21.57.62a89.93,89.93,0,0,0-15.34.72c8.59.51,16.64,1.31,24.71.94,5.26-.23,10.53-.2,15.79-.64q8.24-.69,16.42-1.74c7.52-1,15-2.1,22.51-3.17,9.71-1.38,19.43-2.7,29.07-4.52,12.41-2.33,25-3.53,37.5-4.7,2.78-.26,5.57-.36,8.35-.62,6-.55,12-1.44,18.05-2.2,4.67-.6,9.35-1.09,14-1.8a102.42,102.42,0,0,1,18.34-1.61c7.91.23,15.82.11,23.73.4,13.27.48,26.54,0,39.81-.32,2.95-.07,5.94.14,8.87-.15,8-.8,16-.06,23.94.31,8.68.41,17.32,1.59,26,2.13s17.24.68,25.86,1.07c6.06.28,12.13.48,18.17,1.09,9.84,1,19.68,2.09,29.56,2.61,9,.48,18,1,27.06,1.08,4.88,0,9.76,0,14.63.22C896.5,627.9,901.17,627.26,906.35,627.54Zm-405-2.89c-9.15,0-18-.06-26.9,0-4.63.05-9.28.16-13.89.58-10.89,1-21.77,2.06-32.63,3.33-10.64,1.26-21.32,1.81-32,2.18-10.23.36-20.47,0-30.7.46-5.75.24-11.51-.07-17.26-.18-13-.23-25.92-.19-38.87-.14-5.66,0-11.31.35-17,.54a23.82,23.82,0,0,0,5.21.75c8.15.18,16.31.33,24.45.36,33.49.13,67,1.38,100.43-1.72,6.44-.6,12.87-1.25,19.28-2.08,9.26-1.21,18.55-2.16,27.88-2.6,8.7-.42,17.41-.75,26.13-.56q1.68,0,3.36,0A2.8,2.8,0,0,0,501.33,624.65Zm292.81-13.37.13.25c3.19.19,6.38.52,9.57.53q29.76.08,59.52,0c2.56,0,5.12.08,7.68-.09,8.67-.58,17.38-.82,26-1.78,6.9-.77,13.82-1.34,20.72-2.13,6.58-.75,13.18-1.38,19.79-1.65,6.23-.26,12.48-.09,18.72-.12.63,0,1.32.18,1.89-.42a18.69,18.69,0,0,0-5.11-.87,213.33,213.33,0,0,0-23.72.82c-8.19.72-16.39,1.32-24.58,2.1-9.94.95-19.91,1.57-29.89,1.74-25.34.43-50.7-.51-76,1.11C797.28,610.91,795.71,611.12,794.14,611.28Zm56.28,32.6c-1.66-.17-3.32-.45-5-.49-12.55-.29-25.1-.13-37.64.56-2.88.15-5.76.21-8.62.44-11.31.91-22.65,1.33-34,1.73-12.47.45-24.94.8-37.42.57-.6,0-1.2.06-1.8.09a104.18,104.18,0,0,0,18.54,1.74c14.38.39,28.75-.29,43.11-1.26,7.48-.51,15-1.06,22.45-1.45,9.65-.49,19.3-1.2,29-1.12A47,47,0,0,0,850.42,643.88ZM187.16,646.3A97.47,97.47,0,0,0,202,647.51c9.34.35,18.7.4,28.05.43,2.87,0,5.75-.2,8.62-.26,7-.15,14.07-.17,21.1-.37,12.78-.38,25.56-.79,38.35-1,6.79-.13,13.57-.51,20.37-.56a1.71,1.71,0,0,0,1.6-.6C275.78,645.06,231.71,647.66,187.16,646.3Zm308.5-.66,0,.62H509.6c17.35,0,34.7-.34,52,.47,3.51.17,7,.53,10.5.78a42.91,42.91,0,0,1,4.55.27,14.58,14.58,0,0,0,4.47.08C552.73,643.92,524.21,644.45,495.66,645.64Zm192.49-16.38c26.15,1.11,52.23-.38,78.68-.37C763.2,627.42,703.68,627.71,688.15,629.26Zm245.08-2.88a1.82,1.82,0,0,0-1.3-.31c-6.55,0-13.1,0-19.65.07-1.51,0-3,.25-4.52.38-.32,0-.73.06-.77.4,0,.57.48.53.84.54a21.13,21.13,0,0,0,2.64,0c5.25-.48,10.53-.33,15.79-.59C928.53,626.75,930.82,626.58,933.23,626.38ZM339.08,645a3.75,3.75,0,0,0-.76-.2l-15-.08a4.9,4.9,0,0,0-.94.07c-.21.05-.45.11-.46.43s.25.38.45.43a4.3,4.3,0,0,0,1,.06l14.55-.08A1.31,1.31,0,0,0,339.08,645Z"/><path class="cls-5" d="M1026,20.61a229,229,0,0,1,23.48-.33c12,.47,24,.45,36,.55.52,0,1.24-.27,1.54.3s-.41.93-.74,1.33c-4.24,5.11-8.25,10.4-11,16.48a5.36,5.36,0,0,1-5.35,3.49c-11.81.37-23.6,1.4-35.44,1.57-2.94,0-5.9.24-8.86.28a247.87,247.87,0,0,0-30.3,2.47,2.63,2.63,0,0,0-1.5.62c11.39-.43,22.74-.09,34.09-.36,8.62-.2,17.25-.53,25.87-.9,4.3-.19,8.6-.58,12.9-.87.47,0,1,0,1.44,0,.82,0,1,.32.46,1a8.08,8.08,0,0,1-3.88,2.69c-4,1.2-8.11,1.72-11.94,3.43a4.34,4.34,0,0,1-1.66.08c-24.08.23-48.16.3-72.23-.09-9.91-.16-19.84-.06-29.74-.45-13.35-.53-26.71-.09-40.06-.47-17.43-.5-34.87-.12-52.3-.47-29.67-.59-59.34-.14-89-.48-28.14-.32-56.29-.45-84.43-.2-30.38.26-60.76,0-91.13.48-21.44.31-42.87,0-64.3.46-17.75.37-35.51,0-53.25.48-11.11.3-22.23.05-33.33.51-8.56.35-17.12.07-25.66.48-6.4.31-12.8,0-19.18.42-7.51.44-15,.19-22.54.48-13,.5-26,.65-39.07,1-12.3.32-24.61.57-36.91,1q-14.25.45-28.51.94l-27.54,1c-8.3.28-16.6.66-24.91,1-7.58.28-15.16.64-22.74.95q-14.61.59-29.2,1.42c-8.37.47-16.73,1-25.11,1.46-9.65.48-19.28,1.18-28.92,1.88q-11.23.83-22.47,1.47c-9.16.54-18.32,1.23-27.48,1.91-1.66.12-3.35.21-5,.45a6.44,6.44,0,0,1-6-2.41c-1.87-2.08-3.82-4.08-5.78-6.07-.26-.26-.73-.49-.51-1s.55-.22.85-.24a195.94,195.94,0,0,0,19.48-2.29,23.46,23.46,0,0,1,3.36-.09c7-.19,13.9-.27,20.85-.61,8-.39,16-.69,23.94-1l25.15-.93c13.21-.48,26.41-1.28,39.64-1.53-11.06-1.31-22.16-1.2-33.27-1.27-9.12-.05-18.22.41-27.33.64-11.75.31-23.48.81-35.21,1.43-14.06.74-28.12,1.08-42.2.85a3.2,3.2,0,0,1-2.3-1c-3.06-2.81-6.14-5.6-9.21-8.39-.28-.26-.76-.47-.65-.92s.66-.31,1-.34c4.13-.31,8.28-.58,12.41-.92a43.68,43.68,0,0,0,7.78-1,23.48,23.48,0,0,0-7.58-1.25,99.82,99.82,0,0,0-16,.78,3.26,3.26,0,0,1-2.74-1.15C18.85,36.63,16,34,13.22,31.42Q11.38,29.71,9.54,28C8.8,27.3,9,27,10,26.85c2.6-.51,5.25-.46,7.87-.71,7.23-.69,14.49-1.08,21.74-1.63,9.55-.73,19.09-1.54,28.64-2.24,5.89-.44,11.8-.69,17.69-1.09,8.29-.56,16.56-1.21,24.84-1.77,5.74-.39,11.48-.7,17.22-1.07,9.64-.6,19.28-1.23,28.92-1.82,3.11-.19,6.22-.23,9.34-.49,4.53-.37,9.09-.41,13.64-.62,12.29-.58,24.57-1.21,36.86-1.76,6.15-.28,12.3-.41,18.45-.63,13-.46,26-1,39.06-1.38q10.9-.3,21.81-.66c12.06-.41,24.12-.64,36.18-1,13-.36,26.05-.63,39.07-1,6-.16,12,0,18-.41,7.43-.45,14.87-.12,22.29-.51,8.23-.43,16.47-.07,24.69-.48,9-.45,18.08-.07,27.1-.47,12.79-.56,25.59-.09,38.37-.47,18.31-.55,36.63-.07,54.94-.47,20.3-.45,40.6-.13,60.9-.5,26.63-.48,53.26-.12,79.89-.47,35.34-.47,70.68-.17,106-.26,7.58,0,15.16.24,22.74.26,31.19.09,62.37.09,93.55.22,17.12.06,34.23.1,51.34.52,24.07.59,48.14.34,72.22.23,11,0,22-.47,33.06-1,4.71-.24,9.74-.36,14.13-.49a37,37,0,0,1,5.63.46c1.41.44,1.36,1.28.71,2.51-1.43,2.68-2.94,5.32-4.38,8a2.29,2.29,0,0,1-2.31,1.33c-2.72-.05-5.44,0-8.16,0a78.11,78.11,0,0,0-11.22.81,50,50,0,0,1-6.71.08c-5.52,0-11-.14-16.55.11-6.54.28-13,1.16-19.53,2A13.17,13.17,0,0,0,1026,20.61ZM660.71,24.29a78.27,78.27,0,0,0,15.43,1.78c9,.27,18,.57,27,1.3,6.52.52,13.08.67,19.6,1.19a176.47,176.47,0,0,0,22.53.2c8.28-.41,16.57-.89,24.83-1.72,6.35-.65,12.73-1,19.09-1.59,7-.67,13.95-1.51,20.93-2.27,7.77-.85,15.55-1.6,23.31-2.56,8-1,16-1.62,24.08-2.16,7.8-.53,15.64-.73,23.46-1,8.63-.27,17.26,0,25.89-.46,8.47-.42,16.94-.18,25.42-.43,12.78-.37,25.56-.41,38.34-1,5.65-.26,11.36-.8,17.41.67a4.29,4.29,0,0,0-2.8-1.62,31.59,31.59,0,0,0-6-.39c-7,.53-14.06.44-21.08.65-14,.41-28,0-42,.49-12,.38-24,.34-36,.66-12.3.32-24.59.78-36.85,1.94-4.92.47-9.85,1-14.76,1.51-6.51.71-13,1.53-19.51,2.21-7.22.76-14.45,1.44-21.68,2.1-6.92.63-13.84,1.2-20.76,1.79-5.73.48-11.47.78-17.21,1.14a218.18,218.18,0,0,1-27.54.2c-9.08-.57-18.15-1.38-27.24-1.91-3.35-.2-6.7-.32-10.05-.52C676.86,24.05,669.06,23.24,660.71,24.29ZM64.15,42.17c4.16-.07,8.29.58,12.45.64a173.75,173.75,0,0,0,18.68-.43c4.06-.38,8.11-.71,12.16-1.11,7.46-.73,14.91-1.57,22.38-2.24a147.7,147.7,0,0,0,17.32-2.19c10.5-2.21,21.14-3.13,31.79-4.06,7.4-.65,14.74-1.74,22.1-2.67,5.46-.68,10.9-1.61,16.38-2.07q11.57-1,23.19-1.41c9.1-.32,18.18-.88,27.27-1.46,7.81-.51,15.63-.94,23.46-1.17,3.26-.09,6.54-.27,9.81-.5,7.4-.51,14.79-1.31,22.23-1.35,2.24,0,4.48,0,6.72-.07.47,0,1.15.29,1.36-.54a5.73,5.73,0,0,0-3.23-.7c-2.32,0-4.64-.07-7,0-8.86.32-17.69,1.18-26.55,1.57-4.47.19-8.95.11-13.42.4-8.92.59-17.84,1.31-26.77,1.72-10.3.48-20.6.8-30.89,1.41-10.62.62-21.08,2.47-31.6,3.77-6.58.81-13.15,1.62-19.76,2.13A176.46,176.46,0,0,0,154.21,34c-8.49,1.54-17.06,2.44-25.65,3.14-5.73.47-11.44,1.13-17.16,1.7L94.47,40.46c-6.93.65-13.91.24-20.85.65C70.47,41.3,67.24,41,64.15,42.17ZM211.83,49a7.45,7.45,0,0,0,1.42,0c5-1,10.08-1.63,15.11-2.44A327.36,327.36,0,0,1,262.13,43c7-.39,14-.74,21.06-1,9.66-.3,19.32-.71,29-1s19.32-.77,29-.91c11.33-.18,22.66-.76,34-.38,14.77.49,29.56.69,44.34,1,11.51.26,23,.08,34.54.1,2.56,0,5.12,0,7.68,0,.44,0,1.14.18,1.21-.4.11-.77-.72-.73-1.2-.81a19.1,19.1,0,0,0-2.62-.16c-13.11-.19-26.22.11-39.33-.33-12.53-.42-25.08-.7-37.62-1-16.78-.4-33.56,0-50.33.73-8.06.37-16.14.44-24.21.64-1.36,0-2.72,0-4.07.07-10,.73-20.12.74-30.16,1.28-5.51.3-11,.32-16.53.66-2.31.13-4.62.24-6.93.47-6.82.7-13.63,1.53-20.38,2.74A126.79,126.79,0,0,0,211.83,49ZM621,23.76c-1.07,0-1.68-.05-2.27,0-7.18.62-14.38.51-21.56.75-12,.4-24-.42-35.93-1.2-9.17-.6-18.35-1-27.53-1.45-12.06-.54-24.11-1.06-36.17-1.43-9-.28-18.06-.77-27.1-.68-9.39.09-18.78-.19-28.55.8l37.3,1.12c4.72.13,9.43.17,14.14.38,8.22.37,16.45.68,24.67,1,7.42.29,14.84.64,22.27.93,9.58.38,19.14,1.07,28.71,1.44,7.42.3,14.86.8,22.3.48,6.07-.26,12.15-.18,18.21-.49A42.68,42.68,0,0,0,621,23.76Zm363.39,4.85c-1.82-.17-3.64-.48-5.46-.49-12.38-.07-24.74-1-37.12-1.09-20.13-.2-40.25-.22-60.34,1.47-5.46.46-10.92,1-16.38,1.52,4.55.64,9.07,0,13.6-.15,11.25-.39,22.48-1.14,33.73-1.3,15.26-.22,30.52-.34,45.78.23A208.24,208.24,0,0,0,984.41,28.61ZM274.57,32.25c-6.75-2.56-68.29,1.31-83.31,5.23q7.63-.45,15.26-1.07c6.76-.56,13.51-1.21,20.26-1.73,5.65-.44,11.31-.78,17-1.08,9.09-.49,18.16-1.29,27.26-1.35Zm432.78-15c24.11-.27,48.27-1.16,72.81-.66a3.8,3.8,0,0,0-3.11-1.1c-5.27-.17-10.54-.15-15.81-.28-7.26-.16-14.53-.14-21.81.16C728.74,15.8,718.06,16.27,707.35,17.25Z"/><path class="cls-5" d="M16.69,65c.19-2.25.51-4.5.55-6.76.1-5.12.05-10.24.07-15.36,0-.37-.21-.86.21-1.08s.7.24,1,.49c2.44,2.18,4.85,4.41,7.32,6.56A3.45,3.45,0,0,1,27,51.66c.14,4.15.4,8.31.41,12.46,0,5.44.59,10.84.87,16.27.3,5.82,0,11.67.29,17.49.31,6.43.63,12.88,1.55,19.27.72-7.42.49-14.85.71-22.27.27-9.51.56-19,1-28.51.16-3.19.35-6.38.43-9.58,0-.45-.15-1,.42-1.24.41-.14.71.27,1,.53,4.11,3.8,8.5,7.33,12.1,11.63,2.38,2.84,3.14,6.47,3.17,10.1.11,14.88.12,29.76.12,44.64,0,16.48.18,33-.17,49.44-.31,14.31,0,28.63-.48,42.94-.37,11.2,0,22.39-.43,33.58-.31,8.48-.19,17-.47,25.42-.46,13.83-.66,27.65-1,41.48q-.48,19.9-1,39.8c-.23,8.15-.14,16.31-.41,24.46-.59,18.47-.42,36.95-.24,55.42.14,13.75.5,27.5,1,41.24.26,7.59.6,15.17.92,22.76.42,10.21.88,20.43,1.44,30.64.55,10,1.16,20.09,1.89,30.13.82,11.23,1.83,22.44,2.72,33.66.54,6.76,1,13.54,1.57,20.3a63,63,0,0,1,.46,7.89,3,3,0,0,1-1,2.31c-1.76,1.63-3.43,3.36-5.14,5-.33.33-.64.87-1.15.73s-.44-.77-.45-1.23c-.23-7.77-2-15.34-2.8-23.05-.35-3.56-.66-7.13-1.28-10.62-.39-.06-.57.11-.57.35,0,3.76-.12,7.53,0,11.28q.28,7.91.91,15.79c.28,3.51.33,7,.38,10.53a3.65,3.65,0,0,1-.77,2.67c-4.1,4.81-7.77,10-11.54,15-.07.1-.27.09-.67.21a120.91,120.91,0,0,0-2.62-26.4c.59,7-.12,14,.56,21,.25,2.54.11,5.12.18,7.68a3,3,0,0,1-.76,1.95,101.38,101.38,0,0,0-8.83,12.83c-.27.51-.57,1-1.26.85s-.67-.83-.7-1.38c-.06-.87-.12-1.75-.11-2.63.09-7.6.15-15.19-.4-22.78-.59-8-1.1-16.09-1.82-24.12-.62-6.92-1-13.86-1.59-20.79-.57-7.16-1.21-14.32-1.78-21.48-.38-4.85-.72-9.72-1-14.58Q9.7,547,8.81,533.1c-.21-3.19-.3-6.38-.49-9.57-.49-8.7-.71-17.41-1.17-26.11-.4-7.58-.67-15.17-1-22.75-.47-11.66-.65-23.33-1-35C4.47,414.88,4.8,390.09,5,365.3c.07-9.28.09-18.56.47-27.82.32-7.6.08-15.2.47-22.78.42-8.24.09-16.48.49-24.71.43-8.79.08-17.59.47-26.38.5-11.27.1-22.55.48-33.82.51-14.95.17-29.91.46-44.86C8.51,150.45,8.27,116,8,81.51c-.07-8.79.05-17.6-.47-26.38-.41-7,.08-13.91-.65-20.84-.05-.45-.21-1,.29-1.3s.85.27,1.2.55a59.61,59.61,0,0,1,5,4.07,3.49,3.49,0,0,1,1.08,2.54c.19,6.23.37,12.46,1,18.67.2,2.08.46,4.16.7,6.24ZM34.53,449.91c.18-9.63-.25-19-.64-28.38-.23-5.75-.29-11.51-.12-17.25.26-8.54.95-17.06,1.24-25.59.52-15.35-.25-30.7-.31-46,0-8.16-.3-16.31-.71-24.44-.46-9.17-1.44-18.3-1.93-27.46-.16-2.95-.28-5.9-.44-8.85-.59-10.68-1.29-21.35-1.73-32q-.45-11-1.21-22c-.22-3.19,0-6.48-1.11-9.61q-.18,10.35.28,20.64c.26,5.82.2,11.66.42,17.49.38,10,.72,20,1.13,29.93.26,6.22.53,12.45,1.09,18.65.86,9.62,1.4,19.26,1.71,28.91.23,7.43,0,14.88.21,22.31.24,9.9.89,19.78.47,29.69-.46,10.54-.7,21.08-1,31.62-.23,7.28.19,14.54.48,21.81q.3,7.41,1,14.81C33.56,446,33.52,447.92,34.53,449.91ZM14.4,395c0,3.12.14,6.24,0,9.35a45,45,0,0,0-.18,6.46c.76,9,2.31,17.87,3.36,26.83,1.19,10.16,1.87,20.35,2.13,30.55.3,11.59.15,23.19.19,34.79,0,1.44,0,2.88,0,4.32.44,10.44.92,20.88,1.88,31.3.22,2.39.12,4.88,1.16,7.17-.26-3.35-.27-6.71-.46-10.05-.36-6.29-1.09-12.57-1.22-18.86q-.35-16.41.24-32.85a306.45,306.45,0,0,0-1.18-36.85c-.49-5.88-1.18-11.74-1.87-17.6-.92-7.84-2.18-15.63-2.69-23.53C15.52,402.29,15.75,398.5,14.4,395ZM17.13,260.3A84.8,84.8,0,0,0,17.86,246c0-18.7-.1-37.4-.43-56.09-.34-19.42-.05-38.84-.64-58.25,0-.6,0-1.2,0-1.8-.42,3.9-.62,7.81-.69,11.7-.25,13.09-.25,26.19-.23,39.29,0,10.3.19,20.61.42,30.91.34,14.86.14,29.74.17,44.6A7.22,7.22,0,0,0,17.13,260.3ZM39.72,567.36a32.55,32.55,0,0,0,.53-6.15c-.61-7.25-.22-14.53-.8-21.79-.82-10.26-1.34-20.54-2.05-30.81-.26-3.69-.71-7.36-1.11-11.44C35.29,504.81,38.08,553,39.72,567.36ZM21.9,311.58a3.49,3.49,0,0,0-.6,2.61c-.24,12.31.42,24.59.87,36.88.09,2.64,0,5.28.1,7.92.1,2.06.39,4.13.59,6.19A7.22,7.22,0,0,0,24,360.73c.14-8.63-.16-17.23-.83-25.84-.37-4.61-.4-9.25-.64-13.87C22.39,317.87,22.12,314.73,21.9,311.58ZM15.72,473.72c-.2-11.42-1.43-22.8-2.46-34.2A146,146,0,0,0,15.72,473.72Z"/><path class="cls-5" d="M1085.52,96.76a27.26,27.26,0,0,0,.71-6.54c.17-16.24-.56-32.47-.52-48.7-1.4-5.06.71-9.06,3.65-13,3.42-4.53,6-9.62,9.49-14.12a15.15,15.15,0,0,1,3.08-3c1-.68,1.2-.38,1.21.67,0,4.32-.06,8.65.1,13,.43,11.74.89,23.48,1.47,35.21q.49,9.93.89,19.87c.56,13.81,1.14,27.62,1.55,41.44q.49,16.53.91,33.07c.63,23.51.5,47,.2,70.53-.15,12,0,24-.47,36-.28,7.67,0,15.35-.45,23-.44,8.47-.09,16.95-.49,25.41-.34,7.52-.1,15-.45,22.54-.37,8.08-.13,16.16-.51,24.22-.36,7.52-.19,15-.45,22.54-.46,13.34-.6,26.69-1,40-.27,8.88-.11,17.75-.45,26.62-.56,14.31-.12,28.63-.49,42.94-.5,19.11-.33,38.22-.14,57.33.09,9.83.1,19.67.37,29.5q.43,15.23,1,30.44.45,13.05.94,26.11c0,1,.23,2.06.29,3.1.11,1.61-.74,2.37-2.32,2.11a4.15,4.15,0,0,1-.68-.22c-3.17-1-7.23-6.41-7.52-9.71-.5-5.72-1.17-11.43-1.71-17.15-.29-3-.51-6.05-.64-9.08a55.3,55.3,0,0,0-.76-6.66,176.74,176.74,0,0,0,0,30.78,21.86,21.86,0,0,1-3.67-4.28c-5.16-7.13-11.15-13.59-16.48-20.58a5.51,5.51,0,0,1-1.25-3.23c-.31-5.74-.41-11.49-1-17.53a62.85,62.85,0,0,0-.75,9.14c0,1.92-.22,3.83-.35,5.74,0,.29.06.67-.36.78s-.56-.22-.79-.42a6.2,6.2,0,0,1-2.37-4.92c-.44-17.83-.5-35.66-.63-53.5,0-6.92-.26-13.85-.17-20.77.22-18.44.15-36.89.46-55.32.15-9.11.11-18.22.47-27.31.26-6.71.17-13.43.44-20.14.47-11.82.62-23.65,1-35.47.39-12.86.66-25.73,1-38.59.32-11.91.61-23.81,1-35.72.17-6.31.17-12.63.41-18.93.6-15.9.7-31.81,1.07-47.71.23-10.08.12-20.15.41-30.22.22-7.58.41-15.15.22-22.72-.3-12-.18-24-.44-36q-.37-16.9-1-33.8c-.41-12-.92-24-1.42-35.93-.25-6-.58-12-.91-17.94a5,5,0,0,1,1.15-3.77,70.37,70.37,0,0,0,6-8.09c1.9-3,4.72-5.21,6.87-8,.18-.22.42-.58.78-.32a.87.87,0,0,1,.17.64c-.27,6.74,1.43,13.33,1.48,20,.06,7.83.76,15.63,1.35,23.44C1085.14,87.85,1085.28,92.09,1085.52,96.76ZM1097.27,333c-.93,3.34-.86,6.54-1,9.72q-.46,12-1.81,23.87c-.61,5.3-.62,10.67-1.78,15.92a21.37,21.37,0,0,0-.5,6.91c.81,7.45.61,15,1.23,22.45.67,8,.59,16.1.94,24.16.35,8.3.9,16.61.5,24.92q-.3,6.46-.33,12.93,0,17.4-.07,34.79,0,5.88.07,11.75c0,.55-.26,1.28.66,1.7.72-5.56.85-11.06,1.08-16.53.47-11.26.07-22.53.39-33.81a428.36,428.36,0,0,0-.64-44.32c-.6-7.95,0-15.95-1-23.92-.6-4.64,0-9.4-.48-14.11-.59-5.31,1.4-10.41,1.62-15.68.1-2.55.07-5.12.36-7.65a199.4,199.4,0,0,0,1.29-31.09C1097.74,334.37,1098,333.71,1097.27,333Zm-10.41-193.29a6.53,6.53,0,0,0-.46,3.13c-.2,6,.16,12-.44,18a74.34,74.34,0,0,1-3.73,17.75,35.78,35.78,0,0,0-2.22,15.25c.33,3.82,1.06,7.58,1.3,11.42.17,2.79.1,5.59.37,8.37.59,6,1.16,12.07,1.82,18.1.53,4.76.87,9.53,1.07,14.32.34,8.37,1,16.73,1.24,25.1.24,10.31.12,20.63.19,30.95,0,.68-.29,1.49.63,2.26a47.73,47.73,0,0,0,.54-4.75c.21-18.15.25-36.29-.51-54.43-.18-4.38-.51-8.77-1-13.12-1-8.08-1.8-16.17-2.17-24.3a89.51,89.51,0,0,0-1.3-11.89,29.29,29.29,0,0,1,1.15-15.79,67.26,67.26,0,0,0,2.44-7.52c2.19-8.85,2.4-17.87,1.82-26.91A28.42,28.42,0,0,0,1086.86,139.67Zm-17.21,397.58c1.08-4.33,1.22-63.87.1-66a123.45,123.45,0,0,0-1.09,13.69c-.12,12.39,0,24.78-.09,37.16,0,4.48.38,8.93.54,13.4C1069.13,536.12,1069,536.82,1069.65,537.25Zm21.93-370.93c1.58,14.38.84,28.72-.91,43C1093.58,204,1095,173,1091.58,166.32Zm-.42,284.58c.23-9.78-.74-19.49-1.66-29.2C1089.14,431.49,1089,441.26,1091.16,450.9Z"/><path class="cls-6" d="M83.22,82.15c-2.53,0-5.06,0-7.58,0a50.88,50.88,0,0,0-8.37.32,1.33,1.33,0,0,1-1.14-.18c-1.21-1-2.43-2.08-3.59-3.17-.69-.66-.48-1.16.48-1.19,4.47-.15,8.85-1.2,13.3-1.5a15.53,15.53,0,0,0,3.31-.66c-4-.63-13.69-.26-17.71.56-.8.16-1.69.88-2.49.1S57,75,57.18,73.88c.1-.78,1.81-.47,2.77-.63,2.52-.41,5.09-.33,7.64-.56C73.7,72.14,79.85,72,86,71.55c8-.54,15.91-1.19,23.86-1.76,2.71-.19,5.42-.24,8.13-.47,6.28-.52,12.59-.67,18.87-1.12,8.52-.62,17-1,25.57-1.49,5.9-.35,11.79-.68,17.69-.95l22-1c7.5-.34,15-.6,22.5-.93,8.86-.39,17.72-.68,26.58-1,9.58-.33,19.16-.63,28.74-1,10.13-.35,20.27-.61,30.41-1,7-.26,13.91,0,20.84-.46,6-.4,12,0,18-.46,7-.49,13.91-.05,20.85-.5,6.23-.4,12.47,0,18.68-.47,7-.49,14.08-.05,21.09-.47,8.63-.51,17.27,0,25.89-.51,8.79-.47,17.59,0,26.37-.45,13.34-.64,26.7,0,40-.49,17-.59,34.06-.05,51.09-.44,21.65-.5,43.3-.11,65-.53,25.67-.5,51.34-.06,77-.45,35.89-.54,71.78-.5,107.67-.24,42.45.3,84.9.07,127.35.5,13.51.13,27,0,40.53.41,24.31.77,48.62.32,72.93.26,4.93,0,9.89-.29,14.84-.38.53,0,1.25-.31,1.55.24s-.33,1-.65,1.41a124.39,124.39,0,0,1-8.72,8.92,3,3,0,0,1-2.48.55,53.47,53.47,0,0,0-14.27,1.19c3.86,1,7.58.53,11.25.68.67,0,1.74-.37,1.9.35s-.79,1.32-1.55,1.53c-2.53.7-5.14,1.19-7.63,2-5,1.66-10.17,1.84-15.36,1.85-16.23,0-32.48.23-48.71-.1-9.75-.19-19.51,0-29.25-.46C935,74,925.49,74.23,916,74c-22.15-.5-44.31-.18-66.45-.58-28.71-.52-57.42,0-86.13-.44q-46-.66-92.07-.21c-29.91.31-59.82-.07-89.72.46-23.35.41-46.71-.06-70.05.48-15.27.36-30.54,0-45.8.49-9,.31-17.92,0-26.85.44-8.48.44-17,0-25.41.47-7.35.41-14.71,0-22.05.48-7.11.43-14.23,0-21.33.48s-14.07,0-21.08.49-14.08,0-21.09.49c-6.15.4-12.31,0-18.44.49-5,.36-10.07.16-15.1.42-10.05.51-20.11.7-30.17,1-8.54.26-17.07.64-25.61.94-8.38.3-16.76.59-25.14,1q-11,.49-22,1c-8.77.38-17.53,1-26.3,1.44-8.12.42-16.25.94-24.37,1.42-7.56.45-15.12,1-22.69,1.46s-15.29.89-22.93,1.43c-6.52.47-13,.88-19.57,1.4-2.77.21-4.45-1.34-6.1-3.13-1-1-.44-1.61.7-1.63,2.32,0,4.6-.43,6.91-.6a52.15,52.15,0,0,1,6.12-.58Z"/><path class="cls-7" d="M93.6,613.88A42.47,42.47,0,0,0,86,614c-5.51.18-11,.1-16.55.1-.43,0-1.05.27-1.25-.33-.13-.4.32-.69.57-1,2.52-3,5-6,7.56-9a3.44,3.44,0,0,1,2.92-1.29c11.35,0,22.7-.39,34-.61,7.83-.15,15.67,0,23.49-.46,5-.28,10.07,0,15.09-.43,6.15-.48,12.31-.09,18.44-.52,5.12-.36,10.24-.07,15.33-.44,6.71-.49,13.44-.07,20.13-.51,7.36-.48,14.71,0,22.05-.45,10.23-.58,20.47,0,30.69-.54,8.07-.38,16.15,0,24.21-.45,7.59-.44,15.18-.1,22.76-.46,9.82-.46,19.64-.67,29.46-1,7.81-.25,15.63-.65,23.45-.94,7.26-.27,14.51-.65,21.77-1,7-.29,14-.65,21.05-1s14.19-.66,21.29-1c6.93-.29,13.87-.65,20.81-.95,7.33-.32,14.67-.63,22-1s14.67-.67,22-.94c8.54-.31,17.08-.67,25.61-1,7.66-.3,15.32-.63,23-.93,9.25-.37,18.51-.66,27.77-1q12.33-.43,24.66-.93,13.76-.54,27.53-1c8.94-.3,17.88-.64,26.81-.94,10.86-.35,21.72-.62,32.58-1,7.19-.25,14.39,0,21.57-.43,10.23-.58,20.47,0,30.69-.53,7.67-.38,15.35,0,23-.46,6.88-.41,13.76,0,20.61-.49,6-.39,12,0,18-.45,6.48-.46,13-.16,19.41-.45,10.62-.48,21.24-.67,31.86-1q15.69-.47,31.38-1c10.7-.35,21.4-.64,32.09-1,5-.17,10.08,0,15.09-.42,6.15-.48,12.32-.07,18.45-.51,5.75-.42,11.51-.06,17.25-.45,6.07-.41,12.15-.08,18.21-.51,5.51-.39,11-.06,16.53-.46,6.15-.45,12.31-.09,18.44-.49,9.2-.59,18.39-.21,27.58-.44a6.74,6.74,0,0,0,1.91,0c3.89-1.33,6.17.81,8.16,3.67.22.32.59.66.27,1-.15.17-.6.15-.9.1-4.54-.78-9-.1-13.86.31a40.12,40.12,0,0,0,7.8,1.23c2.45.29,4.93.39,7.4.54a5.45,5.45,0,0,1,4.15,2c1.66,2,3.35,4.07,5,6.12.29.36.71.77.41,1.27s-.72.26-1.1.24c-4.08-.23-8.13.46-12.21.39-11.52-.22-23,.42-34.53.66-5.74.13-11.51,0-17.25.46-5.51.41-11,0-16.52.46-6.24.47-12.48.06-18.69.5-5.84.4-11.68,0-17.49.47s-11.35.17-17,.43c-11.34.53-22.68.68-34,1-5.35.17-10.72,0-16,.43-5.75.45-11.51.06-17.25.49-5.91.43-11.83.06-17.73.48s-12,.05-18,.48c-6.88.48-13.76.05-20.61.48-6.56.42-13.12,0-19.65.48-7.28.47-14.56,0-21.81.46-9.19.53-18.4,0-27.57.51-8.79.44-17.59,0-26.37.45-7.67.36-15.35.11-23,.52-5,.28-10.06.14-15.09.4-9.49.49-19,.65-28.49,1-8.86.32-17.72.6-26.58.94q-13,.52-26.09,1c-8.22.3-16.44.66-24.66,1q-12.93.46-25.86,1c-7.73.3-15.47.66-23.21,1-8,.3-15.95.66-23.93,1-7.42.3-14.83.64-22.25,1-6.86.3-13.71.64-20.57.95-6.7.3-13.4.63-20.1.94l-31.82,1.45c-7.17.32-14.36.59-21.53,1-9.32.52-18.65.88-28,1.27-10.78.44-21.55.85-32.34,1.16-11.25.32-22.52.6-33.77.92-8.88.26-17.76,0-26.61.49-9.44.46-18.88,0-28.3.5-7.11.36-14.23,0-21.33.44s-14.07.15-21.09.46c-10.61.46-21.24.61-31.85,1-6,.23-12,0-18,.47s-11.84.06-17.73.46c-7.59.51-15.19.06-22.77.48-7.11.4-14.22.29-21.33.41l-1.44,0c-1,0-1.43-.35-.7-1.28,1-1.33,2-2.4,4.09-2.26,5.69.39,11.27-.89,16.88-1.6C87.5,614.83,90.54,614.33,93.6,613.88Z"/><path class="cls-6" d="M70.79,582.92a124.21,124.21,0,0,0,.1,14.05c.14,1.59.17,3.18.23,4.78.06,1.91-1.56,2.69-2.72,3.69-.62.54-.62-.34-.68-.75-.3-2.45-.66-4.89-.88-7.35-.55-6.28-.91-12.57-1.57-18.84-.7-6.63-.93-13.32-2-19.92-.59,4.57.12,9.11.24,13.66.22,8.45.91,16.88,1.79,25.29a69.3,69.3,0,0,0,1.33,8.74,1.93,1.93,0,0,1-.44,2c-1.76,2-3.48,4-5.2,6-.55.65-.89.61-1-.25-.12-.7-.25-1.41-.31-2.12q-.95-11.8-1.88-23.62c-.38-5-.69-10-1.06-15q-.87-11.82-1.79-23.62c-.22-2.87-.28-5.74-.44-8.61-.22-3.74-.54-7.48-.69-11.24-.31-7.89-.86-15.77-1.29-23.66-.2-3.67-.28-7.35-.41-11-.2-5.51-.5-11-.69-16.53-.43-12.85-.66-25.72-1-38.57-.65-21.51-.25-43-.31-64.53,0-12.47.35-24.94.61-37.41.16-7.59,0-15.19.43-22.77.48-8.15,0-16.31.49-24.45.5-8.79,0-17.59.47-26.37.58-11.59,0-23.19.49-34.77.57-14.55.11-29.11.44-43.65.77-34,.27-68,.34-102,0-1.85-.27-3.66-.35-5.49,0-.38,0-.93.19-1.11.38-.32.69.18,1,.42,2.85,2.45,5.68,4.91,8.55,7.33a2.42,2.42,0,0,1,.84,2.12c0,6.39-.56,12.76-.81,19.14a150,150,0,0,0,.17,19.89c.09,1,.12,2.07.11,3.11a39.15,39.15,0,0,0,.94,9.75c0-1.64,0-3.28,0-4.92-.21-7.68.33-15.34.6-23,.25-7.1.88-14.19.86-21.3,0-.43-.23-1.08.42-1.17.27,0,.7.38.91.68a14.76,14.76,0,0,1,2.53,8.6q.09,20.16.08,40.31c0,18.72.16,37.44-.2,56.16-.27,14.55,0,29.1-.49,43.65-.3,9.51,0,19-.46,28.53-.34,7,0,14.07-.48,21.09-.43,6.63,0,13.27-.47,19.89s0,13.28-.48,19.89c-.42,6.07-.06,12.15-.47,18.21-.54,7.83-.16,15.66-.46,23.49-.81,21.82-.44,43.66-.24,65.49.07,7,.12,14.06.43,21.08q.51,12.09,1,24.18c.28,7,.61,14,.93,21.05.37,8.13.9,16.25,1.41,24.37.44,7,.89,14,1.44,21,.53,6.68,1.23,13.34,1.79,20s1,13.37,1.55,20c.31,3.81.94,7.6.92,11.44a2.56,2.56,0,0,1-.86,2.36c-.25.18-.45.51-.82.38s-.31-.52-.29-.8a48.71,48.71,0,0,0-.47-6.93A50.63,50.63,0,0,0,70.79,582.92Z"/><path class="cls-6" d="M1052.68,90.45c-.59-5-.28-9.89-1.46-14.63a2.44,2.44,0,0,1,.85-2.9c1.11-.9,2.08-2.93,3.1-2.68s.42,2.37.54,3.66c.53,5.48,1,10.95,1.83,16.4a4.78,4.78,0,0,0,.82,2.26c0-4,.15-8,0-11.93-.19-4.14-.7-8.26-1.09-12.39,0-.32-.11-.66.11-.92,1.18-1.4,2.35-2.81,3.58-4.18.42-.47.84-.43.9.33,0,.16,0,.32,0,.48-.16,4.32.43,8.61.52,12.93.19,9.82.85,19.62,1.11,29.45.1,3.74.19,7.5.36,11.25.57,13.09.71,26.2,1.06,39.3.62,23.19.44,46.38.16,69.56-.12,10.55,0,21.11-.4,31.66-.36,8.63-.08,17.27-.51,25.88-.42,8.24-.05,16.48-.45,24.7-.4,8.07-.09,16.15-.51,24.21-.4,7.43,0,14.87-.46,22.29-.45,7.83,0,15.67-.51,23.49-.36,6.31,0,12.64-.44,18.93-.46,6.95-.06,13.92-.5,20.85-.52,8.23-.1,16.47-.45,24.69-.63,14.87-.07,29.75-.52,44.61-.54,17.84-.34,35.67-.19,53.49.09,11,.08,22,.45,33.06.15,4.55.26,9.1.36,13.65,0,.38,0,1-.15,1.11-.59.31-.71-.41-1-.68-1.81-1.5-2.31-3.4-2.24-5.72A85.82,85.82,0,0,0,1056,563.6a7.47,7.47,0,0,0-.42-.9c-1,6.84-.24,13.28-.56,20.09-2.26-2.45-4.14-4.76-5.94-7.14a3.29,3.29,0,0,1-.3-2.1c0-2.48,0-5,0-7.44a3.7,3.7,0,0,0-.66-2.65,33,33,0,0,0-1.22,7.87c0,.44.16,1.08-.46,1.2s-1-.47-1.23-.95a4.93,4.93,0,0,1-.22-1.64c-.51-9-.32-18.06-.58-27.09-.68-23-.45-46.06-.2-69.09.14-12.47,0-24.95.45-37.41.28-7.19.11-14.39.42-21.57.49-11.26.64-22.52,1-33.78.2-6,.14-12,.41-18,.52-11.25.61-22.52,1-33.78.22-5.91,0-11.83.44-17.73.45-6.39.07-12.79.5-19.17.39-5.83.06-11.67.46-17.49.51-7.51.08-15,.49-22.53.58-10.79,0-21.59.51-32.37.5-11.35.42-22.71.19-34.05-.21-9.67-.07-19.35-.43-29s-.61-19.16-1-28.74c-.3-8.06-.58-16.12-1-24.18-.31-6.45-.71-12.91-.92-19.37,0-1.43-.33-2.85-.43-4.29a3.92,3.92,0,0,1,1.72-3.91c.44-.29.77-1,1.4-.65.47.25.29.86.29,1.32a47.66,47.66,0,0,0,2,12.49C1051.9,89.88,1052,90.19,1052.68,90.45Z"/><path class="cls-8" d="M906.35,627.54c-5.18-.28-9.85.36-14.56.14-4.87-.22-9.75-.19-14.63-.22-9-.05-18-.6-27.06-1.08-9.88-.52-19.72-1.62-29.56-2.61-6-.61-12.11-.81-18.17-1.09-8.62-.39-17.26-.52-25.86-1.07s-17.32-1.72-26-2.13c-8-.37-15.94-1.11-23.94-.31-2.93.29-5.92.08-8.87.15-13.27.33-26.54.8-39.81.32-7.91-.29-15.82-.17-23.73-.4a102.42,102.42,0,0,0-18.34,1.61c-4.65.71-9.33,1.2-14,1.8-6,.76-12,1.65-18.05,2.2-2.78.26-5.57.36-8.35.62-12.55,1.17-25.09,2.37-37.5,4.7-9.64,1.82-19.36,3.14-29.07,4.52-7.5,1.07-15,2.21-22.51,3.17q-8.19,1-16.42,1.74c-5.26.44-10.53.41-15.79.64-8.07.37-16.12-.43-24.71-.94a89.93,89.93,0,0,1,15.34-.72c7.2.07,14.38-.31,21.57-.62s14.15-1.13,21.19-2.13c8.85-1.26,17.71-2.38,26.57-3.54,9.73-1.27,19.41-2.83,29.08-4.53,5.82-1,11.69-1.61,17.56-2.21,12.86-1.31,25.79-1.84,38.61-3.65,7.81-1.1,15.71-1.64,23.51-2.92a23.81,23.81,0,0,1,4.55-.15c13.28.44,26.51-.92,39.78-1.11,7.75-.11,15.5-.09,23.25-.35,9.43-.32,18.86-.5,28.3-.45,8.4.05,16.73,1,25.07,1.83q6.8.71,13.61,1.06c11,.57,22,.9,33,1.62,8.84.57,17.63,1.66,26.44,2.6,5.31.57,10.67.81,16,1.07,10.61.52,21.22,1.08,31.84,1.35,6.55.16,13.09.58,19.65.36A2,2,0,0,1,906.35,627.54Z"/><path class="cls-9" d="M501.33,624.65a2.8,2.8,0,0,1-2.48.91q-1.68.06-3.36,0c-8.72-.19-17.43.14-26.13.56-9.33.44-18.62,1.39-27.88,2.6-6.41.83-12.84,1.48-19.28,2.08-33.43,3.1-66.94,1.85-100.43,1.72-8.14,0-16.3-.18-24.45-.36a23.82,23.82,0,0,1-5.21-.75c5.65-.19,11.3-.52,17-.54,12.95,0,25.91-.09,38.87.14,5.75.11,11.51.42,17.26.18,10.23-.43,20.47-.1,30.7-.46,10.69-.37,21.37-.92,32-2.18,10.86-1.27,21.74-2.34,32.63-3.33,4.61-.42,9.26-.53,13.89-.58C483.3,624.59,492.18,624.65,501.33,624.65Z"/><path class="cls-9" d="M794.14,611.28c1.57-.16,3.14-.37,4.72-.47,25.33-1.62,50.69-.68,76-1.11,10-.17,20-.79,29.89-1.74,8.19-.78,16.39-1.38,24.58-2.1a213.33,213.33,0,0,1,23.72-.82,18.69,18.69,0,0,1,5.11.87c-.57.6-1.26.41-1.89.42-6.24,0-12.49-.14-18.72.12-6.61.27-13.21.9-19.79,1.65-6.9.79-13.82,1.36-20.72,2.13-8.65,1-17.36,1.2-26,1.78-2.56.17-5.12.09-7.68.09q-29.76,0-59.52,0c-3.19,0-6.38-.34-9.57-.53Z"/><path class="cls-10" d="M850.42,643.88a47,47,0,0,1-11.37.81c-9.68-.08-19.33.63-29,1.12-7.49.39-15,.94-22.45,1.45-14.36,1-28.73,1.65-43.11,1.26A104.18,104.18,0,0,1,726,646.78c.6,0,1.2-.1,1.8-.09,12.48.23,25-.12,37.42-.57,11.33-.4,22.67-.82,34-1.73,2.86-.23,5.74-.29,8.62-.44,12.54-.69,25.09-.85,37.64-.56C847.1,643.43,848.76,643.71,850.42,643.88Z"/><path class="cls-11" d="M187.16,646.3c44.55,1.36,88.62-1.24,133-1.19a1.71,1.71,0,0,1-1.6.6c-6.8,0-13.58.43-20.37.56-12.79.25-25.57.66-38.35,1-7,.2-14.07.22-21.1.37-2.87.06-5.75.26-8.62.26-9.35,0-18.71-.08-28.05-.43A97.47,97.47,0,0,1,187.16,646.3Z"/><path class="cls-12" d="M495.66,645.64c28.55-1.19,57.07-1.72,85.5,2.22a14.58,14.58,0,0,1-4.47-.08,42.91,42.91,0,0,0-4.55-.27c-3.5-.25-7-.61-10.5-.78-17.34-.81-34.69-.43-52-.47H495.69Z"/><path class="cls-13" d="M688.15,629.26c15.53-1.55,75.05-1.84,78.68-.37C740.38,628.88,714.3,630.37,688.15,629.26Z"/><path class="cls-14" d="M933.23,626.38c-2.41.2-4.7.37-7,.48-5.26.26-10.54.11-15.79.59a21.13,21.13,0,0,1-2.64,0c-.36,0-.89,0-.84-.54,0-.34.45-.37.77-.4,1.5-.13,3-.36,4.52-.38,6.55,0,13.1,0,19.65-.07A1.82,1.82,0,0,1,933.23,626.38Z"/><path class="cls-15" d="M339.08,645a1.31,1.31,0,0,1-1.24.63l-14.55.08a4.3,4.3,0,0,1-1-.06c-.2,0-.46-.1-.45-.43s.25-.38.46-.43a4.9,4.9,0,0,1,.94-.07l15,.08A3.75,3.75,0,0,1,339.08,645Z"/><path class="cls-16" d="M660.71,24.29c8.35-1.05,16.15-.24,24,.21,3.35.2,6.7.32,10.05.52,9.09.53,18.16,1.34,27.24,1.91a218.18,218.18,0,0,0,27.54-.2c5.74-.36,11.48-.66,17.21-1.14,6.92-.59,13.84-1.16,20.76-1.79,7.23-.66,14.46-1.34,21.68-2.1,6.51-.68,13-1.5,19.51-2.21,4.91-.54,9.84-1,14.76-1.51C855.68,16.82,868,16.36,880.27,16c12-.32,24-.28,36-.66,14-.45,28-.08,42-.49,7-.21,14.06-.12,21.08-.65a31.59,31.59,0,0,1,6,.39,4.29,4.29,0,0,1,2.8,1.62c-6-1.47-11.76-.93-17.41-.67-12.78.6-25.56.64-38.34,1-8.48.25-16.95,0-25.42.43-8.63.42-17.26.19-25.89.46-7.82.25-15.66.45-23.46,1-8,.54-16.07,1.17-24.08,2.16-7.76,1-15.54,1.71-23.31,2.56-7,.76-13.95,1.6-20.93,2.27-6.36.61-12.74.94-19.09,1.59-8.26.83-16.55,1.31-24.83,1.72a176.47,176.47,0,0,1-22.53-.2c-6.52-.52-13.08-.67-19.6-1.19-9-.73-18-1-27-1.3A78.27,78.27,0,0,1,660.71,24.29Z"/><path class="cls-17" d="M64.15,42.17c3.09-1.14,6.32-.87,9.47-1.06,6.94-.41,13.92,0,20.85-.65l16.93-1.63c5.72-.57,11.43-1.23,17.16-1.7,8.59-.7,17.16-1.6,25.65-3.14a176.46,176.46,0,0,1,18.06-2.13c6.61-.51,13.18-1.32,19.76-2.13,10.52-1.3,21-3.15,31.6-3.77,10.29-.61,20.59-.93,30.89-1.41,8.93-.41,17.85-1.13,26.77-1.72,4.47-.29,8.95-.21,13.42-.4,8.86-.39,17.69-1.25,26.55-1.57,2.32-.09,4.64,0,7,0a5.73,5.73,0,0,1,3.23.7c-.21.83-.89.53-1.36.54-2.24.06-4.48.06-6.72.07-7.44,0-14.83.84-22.23,1.35-3.27.23-6.55.41-9.81.5-7.83.23-15.65.66-23.46,1.17-9.09.58-18.17,1.14-27.27,1.46Q229,27,217.41,28c-5.48.46-10.92,1.39-16.38,2.07-7.36.93-14.7,2-22.1,2.67-10.65.93-21.29,1.85-31.79,4.06A147.7,147.7,0,0,1,129.82,39c-7.47.67-14.92,1.51-22.38,2.24-4,.4-8.1.73-12.16,1.11a173.75,173.75,0,0,1-18.68.43C72.44,42.75,68.31,42.1,64.15,42.17Z"/><path class="cls-18" d="M211.83,49a126.79,126.79,0,0,1,17.73-4.21c6.75-1.21,13.56-2,20.38-2.74,2.31-.23,4.62-.34,6.93-.47,5.5-.34,11-.36,16.53-.66,10-.54,20.12-.55,30.16-1.28,1.35-.09,2.71,0,4.07-.07,8.07-.2,16.15-.27,24.21-.64,16.77-.75,33.55-1.13,50.33-.73,12.54.3,25.09.58,37.62,1,13.11.44,26.22.14,39.33.33a19.1,19.1,0,0,1,2.62.16c.48.08,1.31,0,1.2.81-.07.58-.77.4-1.21.4-2.56,0-5.12,0-7.68,0-11.51,0-23,.16-34.54-.1-14.78-.35-29.57-.55-44.34-1-11.36-.38-22.69.2-34,.38-9.66.14-19.32.65-29,.91s-19.32.68-29,1c-7,.21-14,.56-21.06,1a327.36,327.36,0,0,0-33.77,3.58c-5,.81-10.1,1.46-15.11,2.44A7.45,7.45,0,0,1,211.83,49Z"/><path class="cls-16" d="M621,23.76a42.68,42.68,0,0,1-11.51,1.66c-6.06.31-12.14.23-18.21.49-7.44.32-14.88-.18-22.3-.48-9.57-.37-19.13-1.06-28.71-1.44-7.43-.29-14.85-.64-22.27-.93-8.22-.33-16.45-.64-24.67-1-4.71-.21-9.42-.25-14.14-.38l-37.3-1.12c9.77-1,19.16-.71,28.55-.8,9-.09,18.07.4,27.1.68,12.06.37,24.11.89,36.17,1.43,9.18.41,18.36.85,27.53,1.45,12,.78,23.94,1.6,35.93,1.2,7.18-.24,14.38-.13,21.56-.75C619.34,23.71,620,23.76,621,23.76Z"/><path class="cls-18" d="M984.41,28.61a208.24,208.24,0,0,1-26.19.19c-15.26-.57-30.52-.45-45.78-.23-11.25.16-22.48.91-33.73,1.3-4.53.16-9.05.79-13.6.15,5.46-.51,10.92-1.06,16.38-1.52,20.09-1.69,40.21-1.67,60.34-1.47,12.38.12,24.74,1,37.12,1.09C980.77,28.13,982.59,28.44,984.41,28.61Z"/><path class="cls-19" d="M274.57,32.25H271c-9.1.06-18.17.86-27.26,1.35-5.65.3-11.31.64-17,1.08-6.75.52-13.5,1.17-20.26,1.73q-7.62.62-15.26,1.07C206.28,33.56,267.82,29.69,274.57,32.25Z"/><path class="cls-16" d="M707.35,17.25c10.71-1,21.39-1.45,32.08-1.88,7.28-.3,14.55-.32,21.81-.16,5.27.13,10.54.11,15.81.28a3.8,3.8,0,0,1,3.11,1.1C755.62,16.09,731.46,17,707.35,17.25Z"/><path class="cls-16" d="M34.53,449.91c-1-2-1-4-1.16-5.8q-.73-7.39-1-14.81c-.29-7.27-.71-14.53-.48-21.81.33-10.54.57-21.08,1-31.62.42-9.91-.23-19.79-.47-29.69-.18-7.43,0-14.88-.21-22.31-.31-9.65-.85-19.29-1.71-28.91-.56-6.2-.83-12.43-1.09-18.65-.41-10-.75-19.95-1.13-29.93-.22-5.83-.16-11.67-.42-17.49q-.47-10.3-.28-20.64c1.15,3.13.89,6.42,1.11,9.61q.75,11,1.21,22c.44,10.69,1.14,21.36,1.73,32,.16,3,.28,5.9.44,8.85.49,9.16,1.47,18.29,1.93,27.46.41,8.13.67,16.28.71,24.44.06,15.34.83,30.69.31,46-.29,8.53-1,17.05-1.24,25.59-.17,5.74-.11,11.5.12,17.25C34.28,430.9,34.71,440.28,34.53,449.91Z"/><path class="cls-20" d="M14.4,395c1.35,3.54,1.12,7.33,1.36,11,.51,7.9,1.77,15.69,2.69,23.53.69,5.86,1.38,11.72,1.87,17.6A306.45,306.45,0,0,1,21.5,484q-.6,16.44-.24,32.85c.13,6.29.86,12.57,1.22,18.86.19,3.34.2,6.7.46,10.05-1-2.29-.94-4.78-1.16-7.17-1-10.42-1.44-20.86-1.88-31.3-.06-1.44,0-2.88,0-4.32,0-11.6.11-23.2-.19-34.79-.26-10.2-.94-20.39-2.13-30.55-1.05-9-2.6-17.85-3.36-26.83a45,45,0,0,1,.18-6.46C14.54,401.2,14.4,398.08,14.4,395Z"/><path class="cls-21" d="M17.13,260.3a7.22,7.22,0,0,1-.67-3.9c0-14.86.17-29.74-.17-44.6-.23-10.3-.4-20.61-.42-30.91,0-13.1,0-26.2.23-39.29.07-3.89.27-7.8.69-11.7,0,.6,0,1.2,0,1.8.59,19.41.3,38.83.64,58.25.33,18.69.43,37.39.43,56.09A84.8,84.8,0,0,1,17.13,260.3Z"/><path class="cls-12" d="M39.72,567.36c-1.64-14.35-4.43-62.55-3.43-70.19.4,4.08.85,7.75,1.11,11.44.71,10.27,1.23,20.55,2.05,30.81.58,7.26.19,14.54.8,21.79A32.55,32.55,0,0,1,39.72,567.36Z"/><path class="cls-21" d="M21.9,311.58c.22,3.15.49,6.29.65,9.44.24,4.62.27,9.26.64,13.87.67,8.61,1,17.21.83,25.84a7.22,7.22,0,0,1-1.16,4.45c-.2-2.06-.49-4.13-.59-6.19-.11-2.64,0-5.28-.1-7.92-.45-12.29-1.11-24.57-.87-36.88A3.49,3.49,0,0,1,21.9,311.58Z"/><path class="cls-22" d="M15.72,473.72a146,146,0,0,1-2.46-34.2C14.29,450.92,15.52,462.3,15.72,473.72Z"/><path class="cls-18" d="M1097.27,333c.69.75.47,1.41.5,2a199.4,199.4,0,0,1-1.29,31.09c-.29,2.53-.26,5.1-.36,7.65-.22,5.27-2.21,10.37-1.62,15.68.53,4.71-.12,9.47.48,14.11,1,8,.45,16,1,23.92a428.36,428.36,0,0,1,.64,44.32c-.32,11.28.08,22.55-.39,33.81-.23,5.47-.36,11-1.08,16.53-.92-.42-.65-1.15-.66-1.7q-.07-5.86-.07-11.75,0-17.4.07-34.79,0-6.46.33-12.93c.4-8.31-.15-16.62-.5-24.92-.35-8.06-.27-16.15-.94-24.16-.62-7.49-.42-15-1.23-22.45a21.37,21.37,0,0,1,.5-6.91c1.16-5.25,1.17-10.62,1.78-15.92q1.35-11.91,1.81-23.87C1096.41,339.5,1096.34,336.3,1097.27,333Z"/><path class="cls-11" d="M1086.86,139.67a28.42,28.42,0,0,1,.71,5.91c.58,9,.37,18.06-1.82,26.91a67.26,67.26,0,0,1-2.44,7.52,29.29,29.29,0,0,0-1.15,15.79,89.51,89.51,0,0,1,1.3,11.89c.37,8.13,1.21,16.22,2.17,24.3.52,4.35.85,8.74,1,13.12.76,18.14.72,36.28.51,54.43a47.73,47.73,0,0,1-.54,4.75c-.92-.77-.63-1.58-.63-2.26-.07-10.32,0-20.64-.19-30.95-.2-8.37-.9-16.73-1.24-25.1-.2-4.79-.54-9.56-1.07-14.32-.66-6-1.23-12.06-1.82-18.1-.27-2.78-.2-5.58-.37-8.37-.24-3.84-1-7.6-1.3-11.42a35.78,35.78,0,0,1,2.22-15.25,74.34,74.34,0,0,0,3.73-17.75c.6-6,.24-12,.44-18A6.53,6.53,0,0,1,1086.86,139.67Z"/><path class="cls-11" d="M1069.65,537.25c-.69-.43-.52-1.13-.54-1.72-.16-4.47-.56-8.92-.54-13.4.07-12.38,0-24.77.09-37.16a123.45,123.45,0,0,1,1.09-13.69C1070.87,473.38,1070.73,532.92,1069.65,537.25Z"/><path class="cls-22" d="M1091.58,166.32c3.45,6.66,2,37.65-.91,43C1092.42,195,1093.16,180.7,1091.58,166.32Z"/><path class="cls-22" d="M1091.16,450.9c-2.21-9.64-2-19.41-1.66-29.2C1090.42,431.41,1091.39,441.12,1091.16,450.9Z"/></g></g></svg>