<?xml version="1.0" encoding="utf-8"?>
<!-- Generator: Adobe Illustrator 22.0.0, SVG Export Plug-In . SVG Version: 6.00 Build 0)  -->
<svg version="1.1" id="Layer_1" xmlns="http://www.w3.org/2000/svg" xmlns:xlink="http://www.w3.org/1999/xlink" x="0px" y="0px"
	 viewBox="0 0 1113.8 682.2" style="enable-background:new 0 0 1113.8 682.2;" xml:space="preserve">
<style type="text/css">
	.st0{fill:#9D9998;}
	.st1{fill:#0F0C09;}
	.st2{fill:#A78064;}
	.st3{fill:#8D6851;}
	.st4{fill:#8C6851;}
	.st5{fill:#775945;}
	.st6{fill:#785945;}
	.st7{fill:#1E1711;}
	.st8{fill:#1E1712;}
	.st9{fill:#1A130F;}
	.st10{fill:#221B15;}
	.st11{fill:#261D18;}
	.st12{fill:#2C221C;}
	.st13{fill:#3A2F27;}
	.st14{fill:#4C3C31;}
	.st15{fill:#1D1611;}
	.st16{fill:#1E1611;}
	.st17{fill:#1F1813;}
	.st18{fill:#211913;}
	.st19{fill:#29201A;}
	.st20{fill:#281F19;}
	.st21{fill:#342922;}
</style>
<title>Asset 5</title>
<g id="Layer_2_1_">
	<g id="Layer_2-2">
		<path class="st0" d="M215.8-198l0.5,0.1l-0.1,5.7c-0.1-0.1-0.3-0.1-0.4,0V-198z"/>
		<path class="st1" d="M216.3-192.2l0.1-5.7c4.6-3,9.6-5,15.3-5c10.2-0.1,20.4-0.5,30.6-1.5c14.2-1.3,28.5-2.4,42.8-3.6
			c8.8-0.8,17.7-1.5,26.5-2.1c9.6-0.6,19.1-1.3,28.7-1.9c16.8-1.1,33.7-1.8,50.5-2.5c18.4-0.8,36.7-1.2,55.1-1.3
			c5.7,0,11.5,0.1,17.2,0.1c9.2,0,18.3,0,27.5-0.1c15.6,0,31.2,0.4,46.8,0.7c21.1,0.5,42.2,1,63.3,1.5c35.3,0.9,70.7,1.2,106.1,1.5
			c31,0.3,61.9,0.2,92.9,0.1c16.2-0.1,31.2-1.5,47.4-1.4c3.5,0.1,7.4-0.7,8.7,1.7c1,1.8,1.5,3.8,1.4,5.9c-0.5,6.7,0.9,13.1,1.3,19.7
			c0.4,7.3,1.2,14.5,1.7,21.7c0.8,10.5,1.5,21,2.3,31.6c0.6,8.5,1.1,17.1,1.6,25.6c0.7,10.5,1.4,21,2,31.6c0.5,7.5,0.9,15,1.3,22.5
			c0.6,11.5,1.3,23,1.8,34.5c0.4,9.8,0.7,19.5,1.1,29.3c0.4,10.8,0.9,21.6,1.2,32.4c0.3,8.5,0.5,17.1,0.8,25.7
			c0.3,10.4,0.7,20.8,0.9,31.2c0.3,13,0.6,26.1,1,39.1l1,39.8c0.4,16.6,0.6,33.3,1,49.9c0.6,26.5,0.7,53.1,0.9,79.7
			c0.2,24.8,0.2,49.6,0.5,74.4c0.3,26.5,0.3,53,0.4,79.4c0.1,16.4,0.1,32.8,0,49.2c0,34.9,0.1,69.9-0.2,104.9c-0.2,22-0.2,44-0.6,66
			c-0.4,21.5-0.3,43-0.8,64.5c-0.5,23.3-0.5,46.5-0.6,69.8c0,18.2,0.7,36.3,1.3,54.4c0.1,3.1,0.2,6.2,0.4,9.3
			c0.4,7.5-5.4,12.4-12.8,11.5c-1.8-0.2-3.6-0.2-5.5-0.1c-32.2,2.5-64.5,3.8-96.8,5c-22.2,0.8-44.5,1.3-66.7,1.4
			c-14.3,0-28.6-0.1-42.9-0.3c-16-0.2-32-0.5-48-0.9c-15.9-0.3-31.8-0.8-47.7-1.2c-15.7-0.4-31.3-0.8-47-1.2
			c-14.5-0.4-28.9-0.9-43.4-1.2c-11.9-0.3-23.8-0.6-35.7-0.8c-14-0.2-28-0.5-42-0.6c-14.6-0.1-29.1-0.1-43.7-0.1
			c-15.9,0-31.8,0.1-47.7,0.5c-17.6,0.5-35.2,1.1-52.8,1.7c-4.2,0.2-8-1.2-11.8-2.6c-2.6-0.8-4.4-3.2-4.3-5.9
			c-0.6-16.6-0.7-33.3-0.9-49.9c-0.2-14.5-0.7-29-1-43.4c-0.3-10.2-0.5-20.3-0.8-30.5c-0.5-17.2-0.9-34.4-1.5-51.6
			c-0.5-15.4-1-30.8-1.5-46.3c-0.3-9.8-0.5-19.5-0.9-29.3c-0.7-16.6-1.2-33.2-1.5-49.9c-0.3-12.5-0.6-24.9-1-37.4
			c-0.6-23.3-1-46.7-1.3-70c-0.2-11.8-0.6-23.7-1-35.5l-1-27.1c-0.5-12.9-0.9-25.7-1.4-38.6c-0.5-12.6-1-25.2-1.4-37.9
			c-0.4-12-1-24-1.5-35.9c-0.6-15-1.2-30-1.9-45c-0.7-16.2-1.5-32.4-2.3-48.6c-0.8-16-1.6-31.9-2.3-47.9c-0.4-9.2-0.8-18.4-1.1-27.6
			c-0.6-13.5-1.2-27-1.7-40.5c-0.3-8.6-0.5-17.3-0.7-25.9c-0.5-20.6-1-41.3-1.3-61.9c-0.2-12.4-0.5-24.8-0.8-37.2
			c-0.3-13-0.8-25.9-1.2-38.8c-0.3-9-0.4-17.9-0.7-26.9c-0.5-16.8-0.7-33.6-1.1-50.4c-0.2-8.2-0.2-16.3-0.4-24.5
			C216.5-179.3,216.4-185.7,216.3-192.2z M638.3-143.4c-5.2-0.1-10.4-0.2-15.6-0.3c-16-0.3-32-0.6-48-1c-16.9-0.4-33.8-0.8-50.6-0.9
			c-17.4-0.2-34.7-0.3-52.1,0.2c-19,0.4-38,1-57,1.9c-9.6,0.5-19.2,0.9-28.7,1.5c-14.4,0.8-28.7,1.7-43.1,2.9
			c-13.3,1.1-26.6,2.2-39.9,3.3c-2.9,0.2-2.6,0.1-2.6,2.8c0.2,13.2,0.5,26.4,0.8,39.6c0.2,13.5,0.6,27,1,40.5
			c0.4,11.4,0.7,22.9,0.9,34.3c0.4,17.5,0.8,35,1,52.5c0.3,21.6,0.7,43.2,1.3,64.8c0.4,13.7,0.9,27.3,1.5,41
			c0.5,10.9,0.9,21.7,1.4,32.6l2,45c0.7,14.5,1.3,29.1,1.9,43.6c0.5,11.5,0.9,23,1.4,34.5c0.6,15.3,1.1,30.5,1.7,45.8
			c0.6,16.2,1.2,32.4,1.8,48.7c0.3,7,0.4,14.1,0.6,21.1c0.6,17.6,1.2,35.2,1.7,52.7c0.4,16.5,0.6,32.9,0.9,49.4
			c0.3,17.2,0.6,34.4,1,51.6c0.5,19.3,0.8,38.7,1.4,58c0.5,17.9,1,35.8,1.5,53.7l0.9,34.8c0.6,23.7,1.3,47.3,1.8,71
			c0.3,13.4,0.7,26.9,0.7,40.3c0,2.5,0,2.6,2.5,2.4c13.3-0.6,26.5-0.6,39.8-0.8c19.4-0.2,38.7-0.3,58.1,0.1
			c12.5,0.3,25.1,0.2,37.7,0.4c13.8,0.3,27.5,0.6,41.2,1c14.2,0.4,28.5,0.7,42.7,1c14.8,0.3,29.6,0.7,44.4,1
			c15.8,0.3,31.7,0.7,47.5,1c13.8,0.3,27.5,0.2,41.3,0.5c9.7,0.2,19.3,0.2,29-0.1c9.2-0.3,18.4-0.2,27.6-0.5
			c14.6-0.5,29.3-0.9,43.9-1.5c11.3-0.5,22.5-1,33.8-1.5c2.4-0.1,2.4-0.1,2.3-2.4c-0.1-5.2-0.4-10.4-0.4-15.6
			c-0.1-23-0.3-46.1,0.2-69.1c0.4-17.3,0.4-34.5,0.5-51.8c0.1-28.2,0.2-56.3,0.3-84.5c0-13.8,0.1-27.5,0.1-41.3
			c0-10.7,0-21.4,0-32.1c0-7.8,0.1-15.5,0-23.3c-0.1-11.8-0.1-23.7-0.1-35.5c-0.1-22.4-0.2-44.8-0.4-67.2
			c-0.2-24.9-0.4-49.7-0.6-74.6c-0.1-15.7-0.2-31.3-0.4-47c-0.3-21-0.5-41.9-1-62.9c-0.3-14.9-0.6-29.7-1-44.6
			c-0.3-14.5-0.7-28.9-1-43.4c-0.2-9.9-0.4-19.8-0.7-29.7c-0.5-18.2-1.2-36.4-1.8-54.6c-0.3-8.3-0.5-16.6-0.9-24.9
			c-0.6-14.1-1-28.3-1.7-42.4c-0.6-12.3-1.3-24.6-1.9-36.9c-0.5-8.1-1-16.3-1.5-24.4c-0.6-12-1.3-23.9-2.1-35.8
			c-0.5-7.5-1-15-1.5-22.5c-0.1-1.5-0.8-1.9-2.1-1.8c-2.1,0.1-4.2,0.2-6.2,0.2c-33.7,0.2-67.4,0.3-101-0.2
			C675.7-143,657-143.1,638.3-143.4L638.3-143.4z M234.4-170.6c-0.5-1-0.8-2.1-0.8-3.3c-0.5-4.8-1.1-9.5-1.6-14.3
			c0-1.3-0.9-2.4-2.1-2.9c-1.7-0.7-3.3-1.6-4.9-2.6c-2.2-1.4-3.5-0.7-3.5,1.9c0,3.3,0.2,6.5,0.3,9.8c0.3,8.6,0.1,17.3,0.5,25.9
			c0.4,8.4,0.1,16.8,0.5,25.2c0.4,7.9,0.2,15.8,0.5,23.7c0.4,11.9,0.7,23.8,1,35.7c0.3,10.4,0.5,20.8,0.9,31.1
			c0.3,7.4,0.1,14.7,0.5,22.1c0.4,6.5,0.1,13.1,0.4,19.7c0.4,8.9,0.1,17.7,0.5,26.6c0.4,8.4,0,16.8,0.5,25.2
			c0.4,8.1,0.1,16.3,0.5,24.5c0.4,9.7,0.6,19.3,1,29c0.5,11.6,0.9,23.3,1.5,35c0.3,7.1,0.7,14.2,1,21.3c0.4,10.7,1,21.4,1.5,32.1
			c0.3,6.5,0.6,13.1,0.9,19.6c0.5,10.5,0.9,21.1,1.5,31.6c0.3,7.3,0.6,14.5,1,21.8c0.3,8,0.7,16,1,23.9c0.3,7.7,0.7,15.5,1,23.2
			c0.3,8.6,0.7,17.3,1,25.9c0.3,8.2,0.7,16.5,0.9,24.7c0.5,13.1,1,26.2,1.5,39.3c0.3,9,0.6,17.9,0.9,26.8c0.3,10.1,0.6,20.3,1,30.4
			c0.3,7.1,0.2,14.2,0.4,21.3c0.4,9.9,0.1,19.8,0.5,29.7c0.3,8.1,0.2,16.2,0.4,24.2c0.4,14.1,0.5,28.3,1,42.4
			c0.3,7,0.2,14.1,0.4,21.1c0.4,12.2,0.7,24.3,1,36.4c0.3,10.8,0.6,21.6,0.9,32.3c0.3,11.4,0.7,22.9,1,34.3
			c0.3,10.9,0.6,21.7,0.9,32.6c0.3,12.4,0.6,24.8,1,37.2c0.4,11.3,0.6,22.7,1,34c0.3,9.4,0.3,18.7,0.5,28.1
			c0.2,15.3,0.2,30.6,0.7,45.8c0.1,2.5,0.8,3,3.3,2.5c0.6-0.2,1.2-0.5,1.7-0.9c1.8-1.5,3.5-3,5.4-4.4c0.9-0.7,1.3-1.8,1.1-2.9
			c-0.8-8-0.1-15.9,0.9-23.8c0.3,4.6,0.5,9.1,0.6,13.6c0.1,3,0.3,6.1,0.4,9.1c0,0.9,0.3,1.2,1.1,0.6c1.6-1.3,3.1-2.5,4.7-3.8
			c0.6-0.6,0.8-1.4,0.7-2.2c0-10.1,0.5-20.2,0.3-30.2c-0.1-6.6,0.4-13.1,0.7-19.7c0.3,1.2,0.5,2.5,0.6,3.8c0.4,7.4,0.8,14.8,1,22.3
			c0,5,0.4,10,1.1,15c0.4,2.1,0.4,4.3,1.2,6.5c8.4-6.4,16.3-13.1,24.3-19.8c1-0.8,1.5-1.9,1.3-3.2c-0.2-4.9-0.3-9.7-0.4-14.6
			c-0.2-6.4-0.2-12.8-0.4-19.2c-0.4-11.1-0.5-22.2-1-33.3c-0.3-5.8-0.2-11.5-0.4-17.3c-0.4-11.1-0.5-22.2-1-33.3
			c-0.3-6-0.2-12-0.5-18c-0.4-9.8-0.7-19.7-1-29.5c-0.3-9.6-0.6-19.2-0.9-28.8c-0.4-10.8-0.6-21.6-1-32.3c-0.4-10.4-0.5-20.8-1-31.2
			c-0.3-6.9,0-13.9-0.5-20.8c-0.4-5.7-0.1-11.3-0.4-17c-0.4-7.8-0.1-15.7-0.5-23.5c-0.4-8.3-0.1-16.6-0.5-24.9
			c-0.4-8.6,0-17.3-0.5-25.9c-0.3-5.6-0.2-11.2-0.4-16.8c-0.4-10.5-0.7-21.1-1-31.6l-0.9-26.1c-0.3-8.7-0.7-17.4-1-26.1
			c-0.3-8.1-0.7-16.1-1-24.2c-0.4-12.8-1-25.6-1.5-38.3c-0.3-6.8-0.6-13.6-0.9-20.4c-0.5-12.1-1.1-24.2-1.7-36.4
			c-0.3-5.7-0.4-11.3-0.7-17c-0.5-11.7-1.2-23.5-1.8-35.2c-0.3-5.4-0.4-10.9-0.7-16.3c-0.5-11.3-1.2-22.5-1.7-33.7
			c-0.3-6.9-0.6-13.7-0.9-20.6c-0.6-11.9-1-23.8-1.4-35.7c-0.4-11.5-0.7-23-1-34.5c-0.2-8.5,0-17-0.5-25.4s-0.2-16.8-0.4-25.2
			c-0.3-14.4-0.5-28.8-1-43.1c-0.3-6.6-0.2-13.1-0.5-19.6c-0.4-10.2-0.7-20.4-1-30.7c-0.4-12.7-0.6-25.4-1-38.1
			c-0.3-9.8-0.2-19.7-0.6-29.5c-0.1-2.4-0.1-4.8-0.1-7.2c0.1-0.9-0.2-1.8-0.9-2.3c-6-4.9-12-9.8-18.2-14.5c-0.4-0.3-0.7-0.8-1.2-0.5
			s-0.3,0.8-0.3,1.3c0,5-0.1,10.1,0,15.1c0,4.1,0,8.1,0.3,12.2c0.4,5,0.5,10,0.6,15.1c-1-5.8-1.6-11.5-2.4-17.3
			c-1.4-9.9-2.8-19.7-4.3-29.6c-0.1-1.2-0.7-2.3-1.7-3c-2.5-1.9-5-4-7.5-6c-0.3-0.3-0.7-0.9-1.2-0.6s-0.2,0.9-0.3,1.3
			C234.4-180.8,234.6-175.8,234.4-170.6z M877.4,810.2c0.3,0.6,0.5,1.3,0.7,2c0.8,6.5,1.7,13,2,19.5c0.3,5.5,0.1,11,0.1,16.6
			c-0.1,2.2-0.1,4.5,0.1,6.7c0.5,3.7,0.8,7.5,0.8,11.2c0,2.7,0,5.4,0,8.2c-0.1,1,0.4,1.9,1.3,2.3c2.7,1.4,5.3,3,8,4.4
			c1.2,0.7,1.8,0.3,2.2-0.9c0.1-0.9,0.7-4.6,0.6-5.3c-0.6-4.7,0-9.6-0.3-14.3c-0.6-11-1-22-1-33.1c-0.1-24.1-0.4-48.2,0.2-72.2
			c0.4-17.1,0.5-34.2,0.5-51.3c0.1-31.2,0.1-62.4,0.2-93.5c0-7.6,0.2-15.2,0.2-22.8c-0.1-35.3,0.2-70.7-0.3-106
			c-0.4-26.6,0-53.3-0.5-79.9c-0.4-20.3,0-40.6-0.5-60.9c-0.4-18.3,0.1-36.6-0.5-54.9c-0.4-12.8,0.1-25.6-0.5-38.4
			c-0.4-9,0-18.1-0.5-27.1c-0.4-8.2,0-16.5-0.5-24.7c-0.4-7.4-0.1-14.9-0.5-22.3c-0.4-6-0.3-12-0.4-18c-0.4-13-0.6-26-1-39.1
			c-0.3-12.1-0.5-24.1-1-36.2c-0.2-7.3-0.5-14.5-0.7-21.8c-0.4-13-0.9-26-1.4-39.1c-0.2-6.1-0.4-12.3-0.6-18.4
			c-0.5-12.3-1.2-24.6-1.8-36.9c-0.2-4.6-0.3-9.1-0.6-13.6c-0.3-3.1-0.3-6.2-0.5-9.3c-0.6-9.6-1.2-19.3-1.8-28.9
			c-0.4-5.7-0.7-11.5-1.1-17.2c-0.6-8.3-1.2-16.6-1.8-24.8c-0.4-5.9-0.6-11.8-1.1-17.7c-0.7-9.6-1.5-19.1-2.2-28.6
			c-0.6-7.3-0.9-14.5-1.6-21.7c-0.3-2.6-0.2-5.3-0.7-7.9c-0.1-0.9-0.4-1.1-1.1-0.4c-1.2,1.2-2.3,2.4-3.4,3.7
			c-2.6,2.8-5.2,5.6-7.8,8.5c-0.8,0.7-1.2,1.7-1.1,2.7c0.7,5.3,0.9,10.7,0.8,16c0,2.6-0.4,5.1-1.3,7.6c-0.6-2.6-0.9-5.2-1-7.8
			c-0.3-4.1-0.6-8.3-0.9-12.4c0-0.4,0.2-0.9-0.3-1c-0.5-0.1-0.7,0.4-0.9,0.7c-2.8,3.1-5.6,6.1-8.4,9.2c-0.6,0.6-1,1.4-1,2.3
			c-0.2,14.1,0.1,28.1,0.9,42.2c0.6,11.7,1.1,23.5,1.4,35.2c0.2,9.1,0.7,18.2,0.6,27.3c-0.1,11.1,0,22.2-1.3,33.3
			c-0.3-13.2-1-26.4-1.5-39.6l-0.9-25.2c-0.3-8-0.6-16-1-23.9c-0.3-7-0.4-13.9-0.6-20.8c0.1-1.1,0-2.2-0.1-3.4
			c-1.1-6.5-1.9-13-2.3-19.5c0-0.3,0.1-0.7-0.2-0.8c-0.3-0.2-0.7,0.3-1,0.5c-2,2-4,3.9-6.1,5.8c-1.8,1.4-2.7,3.7-2.4,6
			c0.2,1.6,0.3,3.3,0.5,5c0.7,9.2,1.4,18.3,1.9,27.5c0.4,7.5,0.9,15,1.5,22.5c0.7,9.6,1.4,19.3,1.9,28.9c0.4,8.4,1,16.7,1.5,25.1
			c0.6,9.7,1,19.5,1.4,29.2c0.3,7.6,0.7,15.2,0.9,22.7c0.3,8.3,0.7,16.6,1,24.9l1,27.5c0.3,9.5,0.6,19,0.9,28.5
			c0.4,12.3,0.6,24.6,1,36.9c0.3,13,0.5,26,1,39.1c0.3,7.5,0,15,0.5,22.5c0.4,6.4,0.1,12.8,0.4,19.2c0.4,8.5,0.1,17.1,0.5,25.7
			c0.5,11.1,0.2,22.2,0.5,33.3c0.5,17.7,0.1,35.5,0.5,53.3c0.5,21.4,0.2,42.9,0.5,64.3c0.4,30.4,0.2,60.8,0.5,91.1
			c0.3,28.1,0.1,56.3-0.2,84.4c-0.3,29.7,0.1,59.3-0.5,89c-0.3,17.4,0,34.9-0.5,52.3c-0.4,13.3,0.1,26.7-0.5,40.1
			c-0.4,9.9-0.3,19.8-0.5,29.7c-0.4,24.1-0.3,48.1-0.1,72.2c-0.1,0.6-0.1,1.1,0.1,1.7c1.7,3.8,2.2,8,3.4,11.9
			c0.5,1.5,1.4,2.9,2.7,3.9c0.7,0.6,1,0.4,1-0.5c0-0.5,0-1,0-1.4c-0.3-4.3-0.7-8.6-0.9-12.9c-0.4-8.6-0.7-17.3-0.9-25.9
			c-0.3-11.3,0.1-22.7-0.4-34.1c0.4,0.4,0.6,0.9,0.6,1.5c1.4,10,2.3,20.2,2.5,30.3c0,3,0.2,5.9,0.3,8.9c0.2,11.8,1.2,23.6,1.6,35.4
			c-0.1,2.4,1.3,4.5,3.5,5.3c6.1,2.8,11.4,6.8,16.5,11c0.4,0.3,0.7,1.1,1.3,0.7s0.3-1,0.3-1.5c0.1-12,0.1-24,0.5-36
			C878.2,825.8,878,818,877.4,810.2z M833-199.1v-0.5c2.1-0.2,4.2-0.5,6.2-0.7c6.2-0.6,12.4-0.8,18.7-1c1,0,1.9-0.4,2.5-1.1
			c1.4-1.6,2.8-3.3,4.1-5c0.3-0.4,0.8-0.7,0.5-1.2c-0.3-0.5-0.8-0.3-1.3-0.3c-6.9,0.7-13.9,0.2-20.8,0.7c-8.8,0.5-17.6,0.4-26.4,0.5
			c-34.5,0.3-68.9,0.5-103.4-0.2c-14.9-0.3-29.9,0-44.9-0.5c-11.3-0.4-22.5,0-33.8-0.5c-8.8-0.4-17.6,0-26.4-0.5
			c-8.2-0.4-16.5-0.1-24.7-0.5c-7.6-0.4-15.2-0.2-22.8-0.5c-9.3-0.4-18.6-0.4-27.9-0.5c-24.8-0.2-49.6-0.5-74.4,0.2
			c-11.7,0.3-23.3,0.5-35,1c-7.6,0.3-15.2,0.6-22.8,1c-8.7,0.5-17.4,0.7-26.1,1.2c-3.2,0.2-6.4,0.3-9.6,0.5
			c-9.3,0.6-18.5,1.2-27.7,1.8c-4.9,0.3-9.7,0.7-14.6,1c-7.2,0.6-14.3,1.2-21.5,1.8c-6.9,0.6-13.9,1-20.8,1.6
			c-8,0.7-16.1,1.2-24.1,1.8c-7.6,0.6-15.2,0.5-22.8,0.4c-0.9,0-1.8,0.1-2.6,0.1c-0.5,0-1.2,0-1.4,0.7c-0.2,0.7,0.3,1,0.8,1.3
			c4.5,2.6,8.8,5.6,12.8,8.8c0.5,0.5,1.2,0.7,2,0.8c2.6-0.1,5.1,0.1,7.7-0.2c7-0.7,14,0,21-0.6c-8.7,1.8-17.5,2.7-26.4,2.6
			c0.1,0.4,0.1,0.6,0.2,0.7c5.1,3.8,10.2,7.4,15,11.5c0.8,0.6,1.7,0.9,2.7,0.8c3.5,0,7-0.1,10.5-0.4c5.3-0.4,10.5-0.7,15.8-0.9
			c3.8-0.1,7.5,0,11.3,0c0.2,0,0.4,0.2,0.3,0.6c-3.5,0.6-7.1,0.9-10.6,1.3c-7.7,0.8-15.3,2.6-23,2.8c-0.5,0-1.1-0.1-1.2,0.4
			c-0.1,0.6,0.4,0.8,0.7,1.2c1.7,1.7,3.4,3.4,5,5.1c0.6,0.7,1.4,1,2.3,1c2.6,0,5.3-0.1,7.9-0.5c6.8-0.6,13.5-1,20.3-1.6
			c11.2-0.9,22.4-1.9,33.7-2.7c10-0.7,20.1-1.3,30.1-1.9c10.2-0.6,20.4-1,30.6-1.4c7.6-0.3,15.2-0.7,22.8-0.9
			c13.7-0.5,27.5-0.8,41.2-1c18.5-0.2,37-0.3,55.4,0.2c8.2,0.3,16.3,0.2,24.5,0.4c13.3,0.4,26.5,0.7,39.8,1
			c13.8,0.3,27.6,0.5,41.5,1c8.5,0.3,16.9,0.2,25.4,0.5c11.2,0.4,22.4,0.1,33.6,0.4c14.3,0.5,28.6,0.2,42.9,0.5
			c16.5,0.4,33,0.2,49.4,0.2c14.9,0,29.8,0,44.6-0.1c3.6,0,7.3-0.8,10.1-3.2c4.3-3.6,7.8-8,11.6-12.1c0.3-0.3,0.7-0.6,0.5-1
			c-0.2-0.6-0.8-0.4-1.2-0.4c-3.2-0.1-6.4-0.3-9.6-0.4c-9.5-0.5-19-0.8-28.5-1c-7.4-0.2-14.8,0-22.3-0.7c6.4-0.9,12.8-1.2,19.3-1.6
			c5.8-0.3,11.7,0,17.5-0.3c5.5-0.3,10.9-0.9,16.4-0.9c4.2,0,8.3-0.3,12.5-0.4c1,0.1,2.1-0.4,2.8-1.1c2.1-2.5,4.4-4.9,6.6-7.3
			c0.3-0.3,0.7-0.5,0.5-1c-0.2-0.5-0.7-0.2-1.1-0.2c-5.1,0-10.2,0-15.4-0.1C837.5-198.6,835.3-199,833-199.1z M801.3,869.7
			c4.7-0.2,8.9-0.4,13.1-0.7c7.8-0.6,15.6-1.3,23.4-1.3c6.7,0,13.3-1.8,20-1.5c0.2,0,0.5,0,0.6-0.2c0.3-0.4-0.1-0.6-0.3-0.8
			c-2.8-2.2-5-5-8-6.9c-2.8-1.8-5.5-3.8-8.1-6c-1-0.9-2.4-1.3-3.8-1.2c-6,0.3-12,0.7-17.9,0.9c-12,0.5-24,1-35.9,1.4
			c-11.3,0.4-22.5,0.7-33.8,1c-12,0.3-24,0.1-36,0.4c-7.6,0.2-15.1,0-22.7-0.2c-10.1-0.3-20.1-0.2-30.2-0.4
			c-15.9-0.4-31.8-0.5-47.7-1.1c-6.3-0.2-12.6-0.2-18.9-0.4c-11.9-0.3-23.8-0.6-35.7-1c-12.9-0.3-25.7-0.6-38.6-1
			c-11.8-0.4-23.6-0.5-35.5-1c-6.7-0.3-13.4-0.2-20.1-0.4c-9.1-0.4-18.2-0.3-27.3-0.5c-18.4-0.3-36.9-0.2-55.3-0.5
			c-6.9-0.1-13.8,0.1-20.8,0.2c-17.8,0.1-35.7,0.2-53.5,0.6c-1.9,0-3.7,0.9-4.9,2.4c-0.2,0.2-0.5,0.4-0.4,0.8s0.5,0.3,0.8,0.4
			c1.9,0.1,3.8,0.3,5.7,0.3c3.1,0,6.1,0.3,9.1,0.8c-6,0.6-11.8,0.7-17.5,1c-1.2,0.1-2.3,0.5-3.2,1.3c-7,5.3-13.5,11.3-20.6,16.5
			c-1.6,1-3,2.3-4.3,3.7c10.2-0.9,20.5-0.9,30.8,0c-2.2,0.4-4.4,0.6-6.7,0.8c-3,0.1-6.1,0.3-9.1,0.6c-5.7,0.5-11.4,1.2-17.2,1.7
			c-3.3,0.3-8.7,4.3-9.7,7.5c-0.1,0.2-0.2,0.4-0.2,0.7c-0.3,1.6,0.5,2.4,2.1,2.3c1-0.1,2.1-0.3,3.1-0.3c8.7-0.3,17.4-0.6,26.1-0.9
			c10.1-0.3,20.3-0.7,30.4-1c9.8-0.3,19.7-0.3,29.5-0.4c19.1-0.2,38.2-0.4,57.3,0.1c14.3,0.4,28.6-0.1,42.9,0.5
			c8.9,0.3,17.7,0.2,26.6,0.4c13.3,0.4,26.7,0.6,40,1c7.5,0.3,15,0.1,22.5,0.4c8.1,0.4,16.1,0.1,24.2,0.5c7.5,0.3,15,0.1,22.5,0.4
			c8.5,0.4,16.9,0.1,25.4,0.5c7.7,0.4,15.4,0.2,23,0.4c12,0.4,24,0.3,36,0.5c23.5,0.3,47,0.4,70.5-0.2c11-0.3,22-0.6,33.1-0.9
			c13.8-0.4,27.6-1,41.4-1.6c6.6-0.3,13.3-0.6,19.9-0.9c11.7-0.6,23.5-1,35.2-1.5c4.3-0.2,8.6-0.1,13-0.1c1.1,0,1.4-0.3,0.7-1.2
			c-0.8-1.2-1.9-2.2-3-3.1c-4.5-3.5-9.6-6.1-14.1-9.5c-3.9-2.9-7.9-5-13-3.7c-16.2,0-32.5,0.7-48.7,0.5
			C805.6,870.3,803.4,870.1,801.3,869.7z M815.9-132.6H815c-0.1-2-0.3-4.1-0.6-6.1c-0.2-2.3-0.5-4.6-0.6-6.9c0-1.1-0.6-1.7-1.6-0.7
			c-1.8,1.6-3.3,3.3-3.1,6.1c0.5,6.5,0.9,13,1.4,19.6c0.5,7.6,1,15.3,1.4,22.9c0.4,7.6,1,15.1,1.5,22.7c0.5,8.1,1,16.3,1.4,24.4
			c0.5,8.8,1.1,17.5,1.4,26.3c0.3,7.3,0.6,14.7,1,22c0.4,8.4,0.7,16.8,1,25.1c0.3,8.5,0.7,17.1,0.9,25.6c0.3,10.1,0.5,20.1,1,30.2
			c0.3,5,0.1,10.1,0.4,15.1c0.5,6.1,0.1,12.3,0.5,18.4c0.5,7,0,14.1,0.5,21.1c0.5,7,0,14,0.5,21.1c0.5,7.1,0,14.2,0.5,21.3
			c0.5,7.3,0.1,14.7,0.5,22c0.5,8.5,0,16.9,0.5,25.4c0.5,8.9,0.1,17.9,0.4,26.9c0.5,15.3,0.1,30.5,0.5,45.8
			c0.5,23.3,0.1,46.7,0.5,70.1c0.5,29.9,0.2,59.8,0.5,89.7c0.3,30.7,0.3,61.4-0.2,92.1c-0.4,28.7,0.1,57.4-0.4,86.1
			c-0.4,22.1-0.1,44.3-0.6,66.5c-0.2,9.5,0.1,19-0.4,28.5c-0.5,9.7-0.3,19.5-0.5,29.3c-0.3,16.2-0.1,32.5-0.1,48.7
			c0,5.2,0.2,10.4,1.8,15.4c0.8,2.5,1.3,5.1,2,7.6c0.2,0.8,0.7,1.7,1.5,1.6s0.3-1.2,0.3-1.9c0.2-3.7-0.3-7.4,0.7-11.3
			c1,4.7,1.4,9.5,1.2,14.3c-0.2,0.9,0,1.8,0.5,2.5c2.8,3.1,5.8,6,8.9,8.7c0.4,0.3,0.9,1,1.4,0.7s0.2-1,0.2-1.6
			c-0.1-5-0.4-9.9-0.4-14.8c-0.1-24.3-0.5-48.6,0.3-72.9c0.4-13.5,0.3-27,0.4-40.5c0.4-42.5,0.2-84.9,0.5-127.3
			c0.3-35.9,0.3-71.8-0.2-107.7c-0.4-25.7,0-51.3-0.4-77c-0.4-21.7,0-43.3-0.5-65c-0.4-17,0.2-34.1-0.4-51.1
			c-0.5-13.3,0.2-26.7-0.5-40c-0.4-8.8,0-17.6-0.5-26.4c-0.5-8.6,0-17.3-0.5-25.9c-0.4-7,0-14-0.5-21.1c-0.4-6.2-0.1-12.5-0.5-18.7
			c-0.4-6.9,0-13.9-0.5-20.9c-0.4-6-0.1-12-0.5-18c-0.5-6.9-0.2-13.9-0.5-20.8c-0.4-10.1-0.7-20.3-1-30.4c-0.3-9.6-0.6-19.2-1-28.7
			c-0.3-8.9-0.6-17.7-1-26.6c-0.3-7.5-0.6-15-0.9-22.5l-1-22c-0.3-5.9-0.6-11.8-1-17.7c-0.5-8.5-0.9-17-1.5-25.6
			c-0.5-6.3-0.6-12.6-1.1-18.9c-0.2-2.7-0.3-5.4-0.5-8.1c-0.6-8-1.2-15.9-1.8-23.9c-0.4-6.1-0.6-12.3-1.1-18.4
			c-0.2-2.6-0.2-5.1-0.6-7.6c-0.2-1,0.2-2.7-0.6-2.8c-1.1-0.1-1.8,1.4-2.6,2.3c-0.8,0.8-0.1,1.7,0.1,2.5c0.8,4,1.2,13.7,0.6,17.7
			c-0.3-1.1-0.6-2.2-0.7-3.3c-0.3-4.4-1.3-8.8-1.5-13.3c0-1-0.5-1.2-1.2-0.5c-1.1,1.2-2.1,2.4-3.2,3.6c-0.2,0.3-0.3,0.8-0.2,1.1
			c0.3,2.8,0.4,5.6,0.3,8.4C815.9-137.7,815.9-135.1,815.9-132.6z M284.2-122.2c-0.5-3.1-1-6.1-1.3-9.2c-0.7-5.6-2-11.2-1.6-16.9
			c0.1-2.1-0.9-3.1-2.3-4.1c-0.9-0.7-1.3-0.3-1.3,0.7v1.4c0.1,7.1,0,14.2,0.4,21.3c0.4,7.6,0,15.2,0.5,22.8c0.4,5.9,0,11.8,0.5,17.7
			c0.5,5.9,0.2,12,0.5,18c0.4,10.6,0.5,21.2,1,31.9c0.3,7,0,14.1,0.5,21.1s0.1,14.2,0.4,21.3c0.5,9.4,0,18.9,0.5,28.3
			c0.4,8.9,0.2,17.7,0.5,26.6c0.3,11.3,0.6,22.5,0.9,33.8c0.3,10.8,0.7,21.6,1.2,32.3c0.4,9.3,0.8,18.7,1.3,28
			c0.4,7.2,0.7,14.4,1,21.5l1.5,31.7c0.3,6.7,0.6,13.4,0.9,20.1c0.3,6.9,0.7,13.7,1,20.6c0.3,7.4,0.7,14.8,1,22.3
			c0.3,8,0.7,16,1,23.9c0.3,7.7,0.7,15.5,1,23.2c0.3,8.6,0.7,17.2,1,25.9c0.3,8.2,0.7,16.4,1,24.7c0.3,8.7,0.6,17.4,1,26.1
			c0.3,8.9,0.6,17.7,0.9,26.6c0.3,9.5,0.5,19,1,28.5c0.3,5,0.1,10.1,0.4,15.1c0.4,7.7,0.2,15.3,0.5,23c0.4,8.8,0,17.6,0.5,26.4
			c0.5,9.2,0,18.4,0.5,27.6c0.4,7.3,0,14.5,0.5,21.8c0.4,6.5,0.1,13.1,0.5,19.7c0.4,6.8,0,13.7,0.5,20.6c0.4,6,0,12,0.5,18
			s0,11.8,0.5,17.7c0.4,5.7,0,11.5,0.5,17.3c0.4,5.3,0.3,10.7,0.4,16c0.4,11.3,0.5,22.7,1,34c0.3,5.7,0,11.3,0.4,17
			s0.1,11.7,0.5,17.5c0.4,6.2,0,12.5,0.5,18.7c0.4,5.5,0,11,0.5,16.5c0.4,5.7,0.3,11.5,0.5,17.3c0.2,11.5,0.9,23,0.7,34.5
			c-0.1,4.1,0.6,8.1,0.4,12.2c0,0.4-0.1,0.9,0.2,1.1s0.9-0.1,1.3-0.4c2-1.7,4.1-3.3,6.1-5c1.2-1,2-2.5,2-4.2c0.2-2.5,0.3-5,0.5-7.4
			c0.2-2.6,0.6-5.2,1.2-7.8c0.4,4.8,1.1,9.3,0.3,13.9c0,0.3-0.1,0.8,0.1,0.9c0.4,0.3,0.7,0,1-0.3c2.9-2,5-4.3,3.7-8.2
			c-0.1-0.6-0.1-1.3,0-1.9c-0.2-9.2,0.2-18.4-0.4-27.6c-0.4-6.1,0-12.3-0.5-18.4c-0.4-5.5-0.1-11-0.5-16.5
			c-0.4-6.1-0.1-12.1-0.5-18.2c-0.4-5.7,0-11.5-0.5-17.3c-0.4-6.1,0-12.3-0.5-18.5c-0.4-5-0.3-10.1-0.4-15.1
			c-0.4-10.7-0.7-21.4-1-32.1c-0.3-10.5-0.7-20.9-1-31.4c-0.3-10.6-0.5-21.2-1-31.9c-0.3-6.5,0-12.9-0.5-19.4c-0.4-6-0.1-12-0.5-18
			c-0.5-6.8-0.1-13.7-0.5-20.6c-0.5-7.7-0.1-15.3-0.5-23c-0.5-10.2,0-20.5-0.5-30.7c-0.4-7.2-0.2-14.4-0.4-21.6
			c-0.4-10.9-0.7-21.7-1-32.6c-0.3-8.9-0.6-17.9-0.9-26.8c-0.3-9.2-0.6-18.4-1-27.5c-0.3-8.2-0.6-16.4-0.9-24.7
			c-0.3-9.3-0.6-18.5-1-27.8c-0.3-7.7-0.6-15.3-0.9-23c-0.3-8.5-0.7-17.1-1-25.6c-0.3-7.3-0.6-14.7-0.9-22s-0.7-14.7-1-22
			c-0.3-6.9-0.7-13.9-1-20.8c-0.3-7.1-0.7-14.2-1-21.3s-0.7-14-1-21c-0.3-7.3-0.7-14.5-1-21.8c-0.3-7.8-0.7-15.6-0.9-23.5
			c-0.3-9.8-0.5-19.6-1-29.5c-0.4-7.6,0-15.2-0.5-22.8c-0.5-8.1-0.1-16.1-0.5-24.2c-0.5-10.2,0-20.5-0.5-30.7
			c-0.4-7.3,0-14.7-0.5-22.1c-0.4-6.7,0-13.4-0.5-20.1c-0.4-5.1-0.1-10.2-0.4-15.3c-0.4-6.1,0-12.3-0.5-18.4
			c-0.4-5-0.2-10.1-0.4-15.1c-0.4-7.8-0.3-15.7-0.5-23.5c-0.2-11.3-0.6-22.7-0.6-34c0.1-1.1-0.4-2.2-1.3-2.9c-3-2.5-6-5-9-7.6
			c-0.3-0.3-0.6-0.7-1-0.6c-0.6,0.2-0.3,0.8-0.3,1.3c0,5.5-0.1,11,0.1,16.6C284.3-127.4,284.3-124.8,284.2-122.2z M315.2-145
			c-3.3,0.9-6.6,1.5-10,1.7c-2.3,0.3-4.6,0.5-6.9,0.5c-0.3,0-0.7-0.1-0.8,0.3c-0.1,0.4,0.2,0.6,0.4,0.8c0.5,0.6,1.4,1,2.2,0.9
			c3.8,0,7.6-0.6,11.4-0.9c6.7-0.5,13.4-1,20-1.6s13.3-1.3,20-1.8c7-0.6,14-1,21-1.4c8.1-0.5,16.2-1,24.4-1.4c7-0.3,14-0.6,21-0.9
			c8.1-0.3,16.1-0.7,24.2-1c7-0.3,14.1-0.4,21.1-0.4c21.8-0.2,43.7-0.6,65.5,0.2c7.8,0.3,15.7-0.1,23.5,0.5c6.1,0.4,12.1,0,18.2,0.5
			c6.6,0.4,13.3,0,19.9,0.5c6.6,0.5,13.3,0,19.9,0.5c7,0.5,14.1,0.1,21.1,0.5c9.5,0.5,19,0.2,28.5,0.5c14.6,0.5,29.1,0.2,43.7,0.5
			c18.7,0.4,37.4,0.2,56.2,0.2c13.4,0,26.9,0,40.3-0.1c3.1,0.1,6.1-0.8,8.6-2.5c0.3-0.2,0.7-0.6,0.7-0.9c-0.1-0.6-0.7-0.4-1.2-0.4
			c-7.1,0-14.2-0.6-21.3-0.9c-7.7-0.3-15.3-0.8-23-0.6c-1.6,0-3.3,0-4.9,0c3.2-0.7,6.5-1,9.8-0.9c1,0,2.1,0,3.1-0.1
			c6.6-0.5,13.3-0.6,19.9-0.2c6.4,0.3,12.8,0.8,19.1,0.8c0.8,0.1,1.6-0.2,2.1-0.8c2.4-2.9,4.9-5.7,7.3-8.6c0.2-0.3,0.7-0.6,0.4-1
			c-0.2-0.2-0.7-0.2-1.1-0.2c-1.8,0.1-3.6,0.4-5.5,0.4c-34-0.1-68,0.4-102-0.3c-14.5-0.3-29.1,0.1-43.7-0.4
			c-11.6-0.5-23.2,0.1-34.8-0.5c-8.8-0.4-17.6,0-26.4-0.5c-8.1-0.5-16.3,0-24.5-0.5c-7.6-0.4-15.2-0.3-22.8-0.4
			c-12.5-0.3-24.9-0.6-37.4-0.6c-21.5,0.1-43-0.3-64.5,0.3c-12.9,0.4-25.7,0.6-38.6,1c-5.5,0.2-11,0.5-16.5,0.7
			c-3.7,0.1-7.3,0.2-11,0.4c-7.9,0.4-15.8,1-23.7,1.3c-3.8,0.2-7.5,0.5-11.2,0.7c-2.9,0.2-5.7,0.2-8.6,0.4
			c-7.9,0.6-15.7,1.2-23.6,1.8c-5,0.4-10,0.7-15,1.1c-7.9,0.6-15.8,1.2-23.6,1.9c-0.7,0.1-1.4,0.2-2.1,0.3c-0.9,0.2-0.9,0.5-0.3,1
			c2,1.7,4,3.4,6,5.2c0.5,0.5,1.3,0.7,2,0.4c2.9-0.6,5.8-1.1,8.7-1.3c8.4-0.9,16.8-1.6,25.3-1.8c4.5-0.1,9.1-0.8,13.7-0.2
			c-6.6,1.1-13.3,1.3-19.9,2c-6.3,0.7-12.6,1-18.8,1.6c-2.5,0.2-4.9,0.6-7.3,0.9c-0.4,0.1-1.3,0.1-0.8,0.7c1,1.2,1.8,2.8,3.7,2.7
			c1.6-0.1,3.2-0.1,4.8-0.2C305.7-145.3,310.4-145.3,315.2-145L315.2-145z M807.6,836.8c0.3-0.7,0.6-0.8,0.9-0.9
			c4.1-1.2,8.3-1.9,12.5-2c0.5,0,1.1,0.2,1.3-0.3c0.3-0.6-0.4-1-0.7-1.4c-0.8-1.3-2.4-2-3.9-1.7c-1.4,0.1-2.9,0.4-4.3,0.4
			c-6.5,0.2-12.9,0.6-19.4,0.9c-8.1,0.4-16.1,0.7-24.2,1c-9.6,0.3-19.2,0.6-28.7,1c-9.6,0.4-19.3,0.2-29,0.4
			c-11.3,0.2-22.7,0.3-34.1-0.2c-10.8-0.5-21.6,0.1-32.4-0.5c-7.5-0.4-15,0-22.5-0.5c-5.8-0.4-11.7-0.1-17.5-0.5
			c-6.4-0.4-12.8,0-19.2-0.5c-5.9-0.4-11.8-0.2-17.7-0.4c-11.3-0.4-22.5-0.5-33.8-1c-6-0.3-12-0.2-18-0.4c-11.3-0.4-22.5-0.5-33.8-1
			c-7.2-0.3-14.4-0.1-21.6-0.4c-12.5-0.5-24.9-0.3-37.4-0.4c-23-0.3-46.1-0.5-69.1,0.2c-9,0.3-18.1,0.1-27.1,0.6
			c-0.6,0-1.1,0.1-1.6,0.2c-0.5,0.2-1.1,0.6-1,1.2s0.8,0.5,1.2,0.5c2.7,0.1,5.3,0.5,7.9,1.2c-0.8,0.5-1.7,0.8-2.7,0.7
			c-2.5,0-5,0-7.4,0c-0.7-0.1-1.5,0-2.1,0.3c-2.4,1.8-4.7,3.7-7.1,5.9c6.8,0.3,13.3-0.4,20.1,0.6c-0.3,0.2-0.6,0.3-0.9,0.4
			c-6.3,1.2-12.7,1.7-19.1,1.4c-2.3-0.1-4.2,0.4-5.7,2.2c-0.3,0.3-1,0.4-0.7,1c0.1,0.2,0.7,0.2,1.1,0.2c4.5-0.1,9.1-0.2,13.7-0.4
			c11-0.4,22-0.4,33.1-0.4c17.8-0.2,35.6-0.3,53.5,0.2c14.9,0.4,29.7-0.1,44.6,0.5c8.2,0.3,16.5-0.1,24.7,0.4
			c6.9,0.4,13.9,0,20.9,0.5c6.3,0.4,12.6,0.1,18.9,0.4c7.8,0.5,15.7,0.1,23.5,0.5c7.4,0.4,14.9,0.1,22.3,0.5
			c8.1,0.4,16.1,0.1,24.2,0.5c8.2,0.4,16.5,0,24.7,0.4c8.6,0.4,17.3,0.2,25.9,0.5c10.5,0.4,21.1,0.3,31.7,0.4
			c23.2,0.3,46.4,0.5,69.6-0.2c13.1-0.3,26.2-0.5,39.3-1.1c3.8-0.2,7.5-0.3,11.3-0.4c9.8-0.3,19.6-0.9,29.4-1.1
			c4.3-0.1,8.6-0.7,12.9-0.5c0.2,0,0.3,0,0.5,0c0.8-0.1,0.8-0.5,0.3-0.9c-1.4-1.2-2.8-2.4-4.2-3.6c-0.3-0.2-0.6-0.1-0.9-0.1
			c-4.1,0.4-8.3,0.9-12.4,1.1c-4,0.2-8,0-11.9,0c0.7-0.5,1.4-0.7,2.3-0.8c5.5-0.8,10.9-1.3,16.4-1.8c1.3-0.1,3.4,0.6,3.7-0.5
			c0.3-1.1-1.8-2-2.7-3.1c-0.7-0.9-1.9-1.3-2.9-0.8C817.5,836.6,812.6,836.3,807.6,836.8z"/>
		<path class="st2" d="M638.3-143.4c18.7,0.2,37.4,0.4,56.1,0.7c33.7,0.4,67.3,0.4,101,0.2c2.1,0,4.2-0.1,6.2-0.2
			c1.4-0.1,2,0.3,2.1,1.8c0.5,7.5,1,15,1.5,22.5c0.8,11.9,1.5,23.8,2.3,35.7c0.5,8.1,1,16.3,1.5,24.4c0.7,12.3,1.4,24.6,1.9,36.9
			c0.6,14.1,1.1,28.3,1.7,42.4c0.3,8.3,0.6,16.6,0.9,24.9c0.5,18.2,1.2,36.4,1.8,54.6c0.3,9.9,0.4,19.8,0.7,29.7
			c0.3,14.5,0.7,28.9,1,43.4c0.3,14.9,0.6,29.7,1,44.6c0.4,21,0.7,41.9,1,62.9c0.2,15.7,0.2,31.3,0.4,47c0.2,24.9,0.4,49.7,0.6,74.6
			c0.2,22.4,0.3,44.8,0.3,67.2c0.1,11.8,0,23.7,0.1,35.5c0.1,7.8,0,15.5,0,23.3c0,10.7,0,21.4,0,32.1c0,13.8-0.1,27.5-0.1,41.3
			c-0.1,28.2-0.1,56.3-0.3,84.5c-0.1,17.3-0.1,34.5-0.5,51.8c-0.5,23-0.3,46.1-0.2,69.1c0,5.2,0.3,10.4,0.4,15.6
			c0.1,2.3,0,2.3-2.3,2.4c-11.3,0.5-22.5,1-33.8,1.5c-14.6,0.7-29.2,1.1-43.9,1.5c-9.2,0.3-18.4,0.2-27.6,0.5
			c-9.7,0.3-19.4,0.3-29,0.1c-13.8-0.2-27.5-0.2-41.3-0.5c-15.8-0.3-31.7-0.7-47.5-1c-14.8-0.3-29.6-0.6-44.4-1
			c-14.2-0.3-28.5-0.6-42.7-1c-13.7-0.3-27.5-0.6-41.2-1c-12.5-0.3-25.1-0.2-37.7-0.4c-19.4-0.4-38.7-0.3-58.1-0.1
			c-13.3,0.2-26.5,0.2-39.8,0.8c-2.4,0.1-2.5,0-2.5-2.4c0-13.4-0.4-26.9-0.7-40.3c-0.6-23.7-1.2-47.3-1.8-71l-0.9-34.8
			c-0.5-17.9-0.9-35.8-1.5-53.7c-0.6-19.3-1-38.7-1.4-58c-0.4-17.2-0.7-34.4-1-51.6c-0.3-16.5-0.5-32.9-0.9-49.4
			c-0.5-17.6-1.1-35.2-1.7-52.7c-0.2-7-0.4-14.1-0.6-21.1c-0.6-16.2-1.2-32.4-1.8-48.7c-0.6-15.3-1.1-30.5-1.7-45.8
			c-0.4-11.5-0.9-23-1.4-34.5c-0.6-14.5-1.2-29.1-1.9-43.6l-2-45c-0.5-10.9-0.9-21.7-1.4-32.6c-0.6-13.7-1.1-27.3-1.5-41
			c-0.7-21.6-1-43.2-1.3-64.8c-0.3-17.5-0.7-35-1-52.5c-0.3-11.4-0.5-22.9-0.9-34.3c-0.5-13.5-0.8-27-1-40.5
			c-0.3-13.2-0.5-26.4-0.8-39.6c0-2.6-0.3-2.5,2.6-2.8c13.3-1.1,26.6-2.2,39.9-3.3c14.3-1.2,28.7-2.1,43.1-2.9
			c9.6-0.6,19.2-1,28.7-1.5c19-0.9,38-1.5,57-1.9c17.4-0.4,34.7-0.3,52.1-0.2c16.9,0.1,33.8,0.5,50.6,0.9c16,0.4,32,0.7,48,1
			C627.9-143.6,633-143.5,638.3-143.4z"/>
		<path class="st3" d="M234.4-170.6c0.2-5.2,0-10.2,0.5-15.1c0.1-0.5-0.2-1.1,0.3-1.3c0.5-0.2,0.8,0.3,1.2,0.6c2.5,2,4.9,4.1,7.5,6
			c1,0.7,1.6,1.8,1.7,3c1.4,9.9,2.9,19.7,4.3,29.6c0.8,5.8,1.4,11.5,2.4,17.3c-0.2-5-0.2-10.1-0.6-15.1c-0.3-4.1-0.3-8.2-0.3-12.2
			c0-5,0-10.1,0-15.1c0-0.4-0.2-1,0.3-1.3c0.5-0.3,0.9,0.3,1.2,0.5c6.2,4.7,12.2,9.6,18.2,14.5c0.7,0.6,1,1.4,0.9,2.3
			c0,2.4,0,4.8,0.1,7.2c0.4,9.8,0.3,19.7,0.6,29.5c0.3,12.7,0.6,25.4,1,38.1c0.3,10.2,0.6,20.4,1,30.7c0.2,6.6,0.2,13.1,0.5,19.6
			c0.5,14.4,0.7,28.8,1,43.2c0.2,8.4,0,16.8,0.4,25.2c0.4,8.4,0.2,17,0.5,25.4c0.3,11.5,0.6,23,1,34.5c0.4,11.9,0.9,23.8,1.4,35.7
			c0.3,6.9,0.6,13.7,0.9,20.6c0.5,11.3,1.2,22.5,1.7,33.7c0.3,5.4,0.4,10.9,0.7,16.3c0.6,11.7,1.2,23.5,1.8,35.2
			c0.3,5.7,0.4,11.3,0.7,17c0.6,12.1,1.1,24.3,1.5,36.4c0.3,6.8,0.6,13.6,0.9,20.3c0.5,12.8,1,25.6,1.5,38.3
			c0.3,8.1,0.7,16.1,1,24.2c0.3,8.7,0.7,17.4,1,26.1l0.9,26.1c0.4,10.5,0.6,21.1,1,31.6c0.2,5.6,0,11.2,0.4,16.8
			c0.5,8.6,0.1,17.3,0.5,25.9c0.4,8.3,0.1,16.6,0.5,24.9c0.4,7.8,0.1,15.7,0.5,23.5c0.3,5.7,0.1,11.4,0.4,17
			c0.4,7,0.2,13.9,0.5,20.8c0.4,10.4,0.6,20.8,1,31.2c0.4,10.8,0.6,21.6,1,32.3c0.3,9.6,0.6,19.2,0.9,28.8c0.3,9.8,0.6,19.7,1,29.5
			c0.2,6,0.2,12,0.5,18c0.5,11.1,0.6,22.2,1,33.3c0.2,5.8,0.2,11.5,0.4,17.3c0.5,11.1,0.7,22.2,1,33.3c0.2,6.4,0.2,12.8,0.4,19.2
			c0.1,4.9,0.2,9.8,0.4,14.6c0.1,1.2-0.4,2.4-1.3,3.2c-8,6.7-15.9,13.3-24.3,19.8c-0.8-2.2-0.8-4.4-1.2-6.5c-0.8-5-1.1-10-1.1-15
			c-0.1-7.4-0.6-14.8-1-22.3c-0.1-1.3-0.3-2.5-0.6-3.8c-0.3,6.6-0.8,13.1-0.7,19.7c0.2,10.1-0.3,20.1-0.3,30.2
			c0.1,0.8-0.1,1.6-0.7,2.2c-1.6,1.3-3.1,2.5-4.7,3.8c-0.8,0.6-1.1,0.3-1.1-0.6c-0.1-3-0.3-6.1-0.4-9.1c-0.2-4.6-0.3-9.1-0.6-13.6
			c-1,7.9-1.8,15.8-0.9,23.8c0.2,1.1-0.2,2.3-1.1,2.9c-1.8,1.4-3.6,2.9-5.4,4.4c-0.5,0.4-1,0.7-1.7,0.9c-2.4,0.6-3.2,0-3.3-2.5
			c-0.4-15.3-0.4-30.5-0.7-45.8c-0.1-9.3-0.2-18.7-0.5-28.1c-0.3-11.3-0.6-22.7-1-34c-0.4-12.4-0.7-24.8-1-37.2
			c-0.3-10.9-0.6-21.7-0.9-32.6c-0.3-11.4-0.7-22.9-1-34.3c-0.3-10.8-0.6-21.6-0.9-32.3c-0.3-12.1-0.7-24.3-1-36.4
			c-0.2-7-0.2-14.1-0.4-21.1c-0.5-14.1-0.7-28.3-1-42.4c-0.2-8.1-0.1-16.2-0.4-24.2c-0.4-9.9-0.1-19.8-0.5-29.7
			c-0.3-7.1-0.2-14.2-0.4-21.3c-0.4-10.2-0.7-20.3-1-30.4c-0.3-9-0.6-17.9-0.9-26.8c-0.5-13.1-1-26.2-1.5-39.3
			c-0.3-8.2-0.7-16.5-0.9-24.7c-0.3-8.6-0.7-17.3-1-25.9c-0.3-7.8-0.7-15.5-1-23.2c-0.3-8-0.6-16-1-23.9c-0.3-7.3-0.6-14.5-1-21.8
			c-0.5-10.5-1-21.1-1.5-31.6c-0.3-6.5-0.6-13.1-0.9-19.6c-0.5-10.7-1.1-21.4-1.5-32.1c-0.3-7.1-0.6-14.2-1-21.3
			c-0.6-11.6-1-23.3-1.5-35c-0.4-9.7-0.6-19.3-1-29c-0.4-8.1-0.1-16.3-0.5-24.5c-0.4-8.4-0.1-16.8-0.5-25.2
			c-0.4-8.9-0.1-17.8-0.5-26.6c-0.3-6.6,0-13.1-0.4-19.7c-0.4-7.4-0.2-14.7-0.5-22.1c-0.4-10.4-0.6-20.8-0.9-31.1
			c-0.3-11.9-0.7-23.8-1-35.7c-0.2-7.9-0.1-15.8-0.5-23.7c-0.4-8.4-0.1-16.8-0.5-25.2c-0.4-8.6-0.2-17.3-0.5-25.9
			c-0.1-3.3-0.3-6.6-0.3-9.8c0-2.6,1.3-3.3,3.5-1.9c1.5,1,3.2,1.9,4.9,2.6c1.3,0.4,2.1,1.5,2.2,2.8c0.5,4.8,1.1,9.5,1.6,14.3
			C233.6-172.7,233.9-171.6,234.4-170.6z M270.5,690.5c0.6-0.5,0.9-1.2,0.7-2c-0.2-6.6,0.2-13.1,0.4-19.7
			c0.3-10.6,0.8-21.2,1.3-31.8c0.3-5.3,0.5-10.7,1.1-16c0.9-8.8,2-17.6,2.6-26.4c0.7-11,1-22,1.6-33c0.2-4.5,0.6-9.1,1.1-13.6
			c0.9-8.3,1.8-16.7,1.8-25.1c0-9.4-0.1-18.9-0.5-28.3c-0.3-7.8-0.2-15.5-0.3-23.3c-0.2-13.3-1.5-26.5-1.1-39.8c0.1-1.5,0-3-0.2-4.5
			c-1.3-7.8-1.8-15.7-2.9-23.5c-1.8-12.8-2.3-25.8-3.7-38.6c-0.6-5.9-1.2-11.7-2.2-17.6c-1.7-9.7-3.3-19.3-4.5-29.1
			c-1.2-8.9-2.3-17.7-3.5-26.6c-1-7-1.8-14.1-2.1-21.2s-0.7-14.4-0.6-21.6c0.2-5.1,0-10.3-0.7-15.3c-0.5,8.6-1.3,16.6-0.9,24.7
			c0.2,5.3,0.2,10.5,0.6,15.8c0.5,5.5,1,11,1.7,16.4c1,7.5,2.1,15,3.2,22.5c1.4,9.7,2.7,19.4,4.5,29.1c2.3,12.4,3.5,25,4.7,37.5
			c0.3,2.8,0.4,5.6,0.6,8.3c0.5,6,1.4,12,2.2,18c0.6,4.7,1.1,9.3,1.8,14c1.1,6.1,1.6,12.2,1.6,18.3c-0.2,7.9-0.1,15.8-0.4,23.7
			c-0.5,13.3,0,26.5,0.3,39.8c0.1,3-0.1,5.9,0.2,8.9c0.8,8,0.1,16-0.3,23.9c-0.4,8.7-1.6,17.3-2.1,26s-0.7,17.2-1.1,25.9
			c-0.3,6.1-0.5,12.1-1.1,18.2c-1,9.8-2.1,19.7-2.6,29.6c-0.5,9-1,18-1.1,27.1c0,4.9,0,9.8-0.2,14.6
			C270.1,680.7,270.8,685.3,270.5,690.5z M273.4,285.5c0-9.1,0.1-18,0-26.9c0-4.6-0.2-9.3-0.6-13.9c-1-10.9-2.1-21.8-3.3-32.6
			c-1.3-10.6-1.8-21.3-2.2-32c-0.4-10.2,0-20.5-0.5-30.7c-0.2-5.8,0.1-11.5,0.2-17.3c0.2-13,0.2-25.9,0.1-38.9
			c0-5.7-0.3-11.3-0.5-17c-0.4,1.7-0.7,3.5-0.8,5.2c-0.2,8.1-0.3,16.3-0.4,24.5c-0.1,33.5-1.4,67,1.7,100.4
			c0.6,6.4,1.3,12.9,2.1,19.3c1.2,9.3,2.2,18.5,2.6,27.9c0.4,8.7,0.8,17.4,0.6,26.1c0,1.1,0,2.2,0,3.4
			C272.3,283.9,272.7,284.9,273.4,285.5L273.4,285.5z M286.8,578.3l-0.3,0.1c-0.2,3.2-0.5,6.4-0.5,9.6c-0.1,19.8-0.1,39.7,0,59.5
			c0,2.6-0.1,5.1,0.1,7.7c0.6,8.7,0.8,17.4,1.8,26c0.8,6.9,1.3,13.8,2.1,20.7c0.8,6.6,1.4,13.2,1.7,19.8c0.3,6.2,0.1,12.5,0.1,18.7
			c0,0.6-0.2,1.3,0.4,1.9c0.5-1.7,0.8-3.4,0.9-5.1c0.2-7.9-0.1-15.8-0.8-23.7c-0.7-8.2-1.3-16.4-2.1-24.6c-1-9.9-1.6-19.9-1.7-29.9
			c-0.4-25.3,0.5-50.7-1.1-76C287.1,581.4,286.9,579.9,286.8,578.3L286.8,578.3z M254.2,634.6c0.2-1.7,0.5-3.3,0.5-5
			c0.3-12.5,0.1-25.1-0.6-37.6c-0.2-2.9-0.2-5.8-0.4-8.6c-0.9-11.3-1.3-22.7-1.7-34c-0.5-12.5-0.8-24.9-0.6-37.4
			c0-0.6-0.1-1.2-0.1-1.8c-1.1,6.1-1.7,12.3-1.7,18.5c-0.4,14.4,0.3,28.8,1.3,43.1c0.5,7.5,1.1,15,1.5,22.5c0.5,9.7,1.2,19.3,1.1,29
			C253.2,627,253.4,630.8,254.2,634.6L254.2,634.6z M251.7-28.7c-0.8,4.9-1.2,9.9-1.2,14.8c-0.3,9.3-0.4,18.7-0.4,28.1
			c0,2.9,0.2,5.8,0.3,8.6c0.2,7,0.2,14.1,0.4,21.1c0.4,12.8,0.8,25.6,1,38.4c0.1,6.8,0.5,13.6,0.6,20.4c-0.1,0.6,0.1,1.2,0.6,1.6
			C253,59.9,250.4,15.9,251.7-28.7z M252.4,279.8h-0.6v13.9c0,17.4,0.3,34.7-0.5,52c-0.2,3.5-0.5,7-0.8,10.5c0,1.5-0.1,3-0.3,4.5
			c-0.3,1.5-0.3,3-0.1,4.5C254.1,336.9,253.6,308.4,252.4,279.8z M268.8,472.3c-1.1,26.2,0.4,52.2,0.4,78.7
			C270.6,547.4,270.3,487.8,268.8,472.3z M271.7,717.4c0.3-0.4,0.4-0.8,0.3-1.3c0-6.5,0-13.1-0.1-19.7c0-1.5-0.3-3-0.4-4.5
			c0-0.3-0.1-0.7-0.4-0.8c-0.6,0-0.5,0.5-0.5,0.8c-0.1,0.9-0.1,1.8,0,2.6c0.5,5.3,0.3,10.5,0.6,15.8
			C271.3,712.7,271.5,715,271.7,717.4L271.7,717.4z M253,123.2c0.1-0.2,0.2-0.5,0.2-0.8l0.1-15c0-0.3,0-0.6-0.1-0.9
			c0-0.2-0.1-0.5-0.4-0.5s-0.4,0.3-0.4,0.5c-0.1,0.3-0.1,0.7-0.1,1l0.1,14.5C252.4,122.6,252.6,123,253,123.2z"/>
		<path class="st4" d="M877.4,810.2c0.5,7.8,0.6,15.7,0.3,23.5c-0.5,12-0.5,24-0.5,36c0,0.5,0.3,1.2-0.3,1.5
			c-0.6,0.3-0.9-0.4-1.3-0.7c-5.1-4.2-10.4-8.3-16.5-11c-2.2-0.8-3.6-3-3.5-5.3c-0.4-11.8-1.4-23.6-1.6-35.4c0-2.9-0.2-5.9-0.3-8.9
			c-0.2-10.1-1-20.3-2.5-30.3c0-0.6-0.3-1.1-0.6-1.5c0.4,11.4,0.1,22.7,0.4,34.1c0.2,8.6,0.5,17.3,0.9,25.9
			c0.2,4.3,0.6,8.6,0.9,12.9c0,0.5,0,1,0,1.4c0,0.8-0.3,1-1,0.5c-1.3-1-2.2-2.3-2.7-3.9c-1.2-4-1.7-8.1-3.4-11.9
			c-0.1-0.5-0.2-1.1-0.1-1.7c-0.2-24.1-0.3-48.2,0.1-72.2c0.2-9.9,0.1-19.8,0.5-29.7c0.5-13.3,0.1-26.7,0.5-40.1
			c0.5-17.4,0.1-34.9,0.5-52.3c0.6-29.7,0.1-59.3,0.5-89c0.3-28.1,0.5-56.3,0.2-84.4c-0.3-30.4,0-60.8-0.5-91.1
			c-0.3-21.4,0-42.9-0.5-64.3c-0.4-17.8,0-35.5-0.5-53.3c-0.3-11.1,0-22.2-0.5-33.3c-0.3-8.6-0.1-17.1-0.5-25.7
			c-0.3-6.4,0-12.8-0.4-19.2c-0.4-7.5-0.2-15-0.5-22.5c-0.5-13-0.7-26-1-39.1c-0.3-12.3-0.6-24.6-1-36.9c-0.3-9.5-0.6-19-0.9-28.5
			l-1-27.5c-0.3-8.3-0.7-16.6-1-24.9c-0.3-7.6-0.6-15.2-1-22.7c-0.4-9.7-0.9-19.5-1.4-29.2c-0.5-8.4-1-16.7-1.5-25.1
			c-0.5-9.6-1.2-19.3-1.9-28.9c-0.6-7.5-1-15-1.5-22.5c-0.5-9.2-1.2-18.3-1.9-27.5c-0.1-1.7-0.2-3.3-0.5-5c-0.3-2.3,0.6-4.6,2.4-6
			c2.1-1.9,4.1-3.8,6.1-5.8c0.3-0.3,0.5-0.7,1-0.5s0.2,0.6,0.2,0.9c0.4,6.5,1.2,13,2.3,19.5c0.1,1.1,0.1,2.2,0.1,3.4
			c0.2,7,0.3,13.9,0.6,20.8c0.4,8,0.7,16,1,23.9l0.9,25.2c0.5,13.2,1.3,26.4,1.5,39.6c1.3-11.1,1.2-22.2,1.3-33.3
			c0-9.1-0.4-18.2-0.6-27.3c-0.3-11.8-0.8-23.5-1.4-35.2c-0.7-14.1-1.1-28.1-0.8-42.2c0-0.9,0.4-1.7,1-2.3c2.8-3.1,5.6-6.1,8.4-9.2
			c0.3-0.3,0.5-0.8,0.9-0.7c0.4,0.1,0.3,0.7,0.3,1c0.3,4.1,0.6,8.3,0.9,12.4c0.1,2.6,0.4,5.2,1,7.8c0.8-2.4,1.3-5,1.3-7.6
			c0.2-5.3-0.1-10.7-0.8-16c-0.1-1,0.3-2.1,1.2-2.7c2.7-2.9,5.4-5.8,7.9-8.6c1.1-1.2,2.3-2.5,3.4-3.7c0.7-0.7,1-0.5,1.2,0.5
			c0.5,2.6,0.5,5.3,0.7,7.9c0.7,7.2,1.1,14.5,1.6,21.7c0.7,9.5,1.5,19.1,2.2,28.6c0.4,5.9,0.7,11.8,1.1,17.7
			c0.6,8.3,1.2,16.6,1.8,24.8c0.4,5.7,0.7,11.5,1.1,17.2c0.6,9.6,1.2,19.3,1.8,28.9c0.2,3.1,0.2,6.2,0.5,9.3
			c0.4,4.5,0.4,9.1,0.6,13.6c0.6,12.3,1.2,24.6,1.8,36.9c0.3,6.1,0.4,12.3,0.6,18.4c0.5,13,1,26,1.4,39.1c0.2,7.3,0.4,14.5,0.7,21.8
			c0.4,12.1,0.6,24.1,1,36.2c0.4,13,0.6,26,1,39.1c0.2,6,0,12,0.4,18c0.5,7.4,0.1,14.9,0.5,22.3c0.4,8.2,0.1,16.5,0.5,24.7
			c0.4,9,0.1,18.1,0.5,27.1c0.6,12.8,0.1,25.6,0.5,38.4c0.5,18.3,0.1,36.6,0.5,54.9c0.5,20.3,0.1,40.6,0.5,60.9
			c0.5,26.6,0.1,53.3,0.5,79.9c0.5,35.3,0.2,70.7,0.3,106c0,7.6-0.2,15.2-0.3,22.7c-0.1,31.2-0.1,62.4-0.2,93.5
			c-0.1,17.1-0.1,34.2-0.5,51.3c-0.6,24.1-0.3,48.1-0.2,72.2c0,11,0.5,22,1,33.1c0.2,4.7,0.4,9.7,0.5,14.1c0,1.9-0.2,3.8-0.5,5.6
			c-0.4,1.4-1.3,1.4-2.5,0.7c-2.7-1.4-5.3-2.9-8-4.4c-0.9-0.4-1.4-1.3-1.3-2.3c0-2.7,0-5.4,0-8.2c0-3.8-0.3-7.5-0.8-11.2
			c-0.2-2.2-0.2-4.5-0.1-6.7c0-5.5,0.1-11-0.1-16.6c-0.3-6.5-1.2-13-2-19.5C877.9,811.5,877.7,810.8,877.4,810.2z M873.8,444.9
			c-1.1,5.1-1.7,10.2-1.8,15.4c-0.3,9-0.6,18-1.3,27c-0.5,6.5-0.7,13.1-1.2,19.6c-0.5,7.5-0.6,15-0.2,22.5
			c0.4,8.3,0.9,16.6,1.7,24.8c0.7,6.3,1,12.7,1.6,19.1c0.7,7,1.5,14,2.3,20.9c0.9,7.8,1.6,15.5,2.6,23.3c1,8,1.6,16,2.2,24.1
			c0.5,7.8,0.7,15.6,1,23.5c0.3,8.6,0,17.3,0.5,25.9c0.4,8.5,0.2,16.9,0.4,25.4c0.4,12.8,0.4,25.6,1,38.3c0.3,5.7,0.8,11.4-0.7,17.4
			c0.9-0.7,1.5-1.7,1.6-2.8c0.3-2,0.5-4,0.4-6c-0.5-7-0.4-14.1-0.7-21.1c-0.4-14,0-28-0.5-42c-0.4-12-0.3-24-0.7-36
			c-0.3-12.3-0.8-24.6-1.9-36.8c-0.5-4.9-1-9.8-1.5-14.8c-0.7-6.5-1.5-13-2.2-19.5c-0.8-7.2-1.4-14.5-2.1-21.7
			c-0.6-6.9-1.2-13.8-1.8-20.8c-0.5-5.7-0.8-11.5-1.1-17.2c-0.6-9.2-0.7-18.4-0.2-27.5c0.6-9.1,1.4-18.2,1.9-27.2
			c0.2-3.3,0.3-6.7,0.5-10C874,461,874.8,453.2,873.8,444.9z M855.9-151.7c0.1,4.2-0.6,8.3-0.6,12.4c-0.2,6.2,0,12.5,0.4,18.7
			c0.4,4.1,0.7,8.1,1.1,12.2c0.7,7.5,1.6,14.9,2.2,22.4c0.4,5.8,1.1,11.6,2.2,17.3c2.2,10.5,3.1,21.1,4.1,31.8
			c0.7,7.4,1.7,14.7,2.7,22.1c0.7,5.5,1.6,10.9,2.1,16.4c0.7,7.7,1.1,15.4,1.4,23.2c0.3,9.1,0.9,18.2,1.5,27.3
			c0.5,7.8,0.9,15.6,1.2,23.5c0.1,3.3,0.3,6.5,0.5,9.8c0.5,7.4,1.3,14.8,1.3,22.2c0,2.2,0,4.5,0.1,6.7c0,0.5-0.3,1.1,0.5,1.4
			c0.5-1,0.8-2.1,0.7-3.2c0-2.3,0.1-4.6,0-7c-0.3-8.9-1.2-17.7-1.6-26.5c-0.2-4.5-0.1-9-0.4-13.4c-0.6-8.9-1.3-17.8-1.7-26.8
			c-0.5-10.3-0.8-20.6-1.4-30.9c-0.6-10.6-2.5-21.1-3.8-31.6c-0.8-6.6-1.6-13.1-2.1-19.8c-0.4-6-1.1-12.1-2.2-18
			c-1.5-8.5-2.4-17.1-3.1-25.6c-0.5-5.7-1.1-11.4-1.7-17.2l-1.6-16.9c-0.7-6.9-0.2-13.9-0.7-20.8C856.7-145.4,857-148.6,855.9-151.7
			z M849-4c0,0.5,0,0.9,0,1.4c1,5,1.6,10.1,2.4,15.1c1.8,11.2,3,22.5,3.6,33.8c0.4,7,0.7,14,1,21.1c0.3,9.7,0.7,19.3,1,29
			c0.3,9.7,0.8,19.3,0.9,29c0.2,11.3,0.8,22.7,0.4,34c-0.5,14.8-0.7,29.6-1,44.3c-0.3,11.5-0.1,23-0.1,34.5c0,2.6,0,5.1,0,7.7
			c0,0.4-0.2,1.1,0.4,1.2c0.8,0.1,0.7-0.7,0.8-1.2c0.1-0.9,0.2-1.7,0.2-2.6c0.2-13.1-0.1-26.2,0.3-39.3c0.4-12.5,0.7-25.1,1-37.6
			c0.4-16.8,0-33.6-0.7-50.3c-0.4-8.1-0.4-16.1-0.6-24.2c0-1.4,0-2.7-0.1-4.1c-0.7-10-0.7-20.1-1.3-30.2c-0.3-5.5-0.3-11-0.7-16.5
			c-0.1-2.3-0.2-4.6-0.5-6.9c-0.7-6.8-1.5-13.6-2.7-20.4C852.3,7.7,850.9,1.8,849-4z M874.3,405.2c0-1.1,0-1.7,0-2.3
			c-0.6-7.2-0.5-14.4-0.8-21.6c-0.4-12,0.4-24,1.2-35.9c0.6-9.2,1-18.3,1.5-27.5c0.5-12.1,1.1-24.1,1.4-36.2
			c0.3-9,0.8-18.1,0.7-27.1c-0.1-9.4,0.2-18.8-0.8-28.5l-1.1,37.3c-0.1,4.7-0.2,9.4-0.4,14.1c-0.4,8.2-0.7,16.5-1,24.7
			c-0.3,7.4-0.6,14.8-0.9,22.3c-0.4,9.6-1.1,19.1-1.4,28.7c-0.3,7.4-0.8,14.9-0.5,22.3c0.3,6.1,0.2,12.2,0.5,18.2
			C872.7,397.5,873.2,401.4,874.3,405.2z M869.4,768.6c0.2-1.8,0.5-3.6,0.5-5.5c0.1-12.4,1-24.7,1.1-37.1
			c0.2-20.1,0.2-40.3-1.5-60.3c-0.5-5.5-1-10.9-1.5-16.4c-0.6,4.5,0,9.1,0.1,13.6c0.4,11.3,1.1,22.5,1.3,33.7
			c0.2,15.3,0.3,30.5-0.2,45.8C868.8,751.1,868.8,759.8,869.4,768.6L869.4,768.6z M865.8,58.7c2.6-6.8-1.3-68.3-5.2-83.3
			c0.3,5.1,0.7,10.2,1.1,15.3c0.6,6.8,1.2,13.5,1.7,20.3c0.4,5.6,0.8,11.3,1.1,17c0.5,9.1,1.3,18.2,1.3,27.3V58.7z M880.8,491.5
			c0.3,24.1,1.2,48.3,0.7,72.8c0.8-0.8,1.2-2,1.1-3.1c0.2-5.3,0.2-10.5,0.3-15.8c0.2-7.3,0.1-14.5-0.2-21.8
			C882.2,512.9,881.8,502.2,880.8,491.5z"/>
		<path class="st4" d="M833-199.1c2.3,0.2,4.5,0.5,6.8,0.6c5.1,0.1,10.2,0.1,15.4,0.1c0.4,0,0.9-0.2,1.1,0.2c0.2,0.4-0.2,0.7-0.5,1
			c-2.2,2.4-4.4,4.9-6.6,7.3c-0.7,0.8-1.7,1.2-2.8,1.2c-4.2,0.1-8.3,0.4-12.5,0.4c-5.4,0-10.8,0.6-16.3,0.9
			c-5.8,0.3-11.7,0-17.5,0.3c-6.4,0.3-12.9,0.6-19.3,1.6c7.4,0.7,14.8,0.5,22.3,0.7c9.5,0.3,19,0.6,28.5,1c3.2,0.2,6.4,0.4,9.6,0.4
			c0.5,0,1-0.2,1.2,0.4c0.1,0.4-0.3,0.7-0.5,1c-3.8,4.1-7.3,8.5-11.6,12.1c-2.8,2.4-6.5,3.1-10.1,3.2c-14.9,0.1-29.8,0.1-44.6,0.1
			c-16.5,0-33,0.2-49.4-0.2c-14.3-0.3-28.6,0-42.9-0.5c-11.2-0.4-22.4,0-33.6-0.4c-8.5-0.3-17-0.2-25.4-0.5
			c-13.8-0.5-27.7-0.7-41.5-1c-13.3-0.3-26.5-0.7-39.8-1c-8.1-0.2-16.3-0.1-24.5-0.4c-18.5-0.6-37-0.4-55.4-0.2
			c-13.8,0.1-27.5,0.5-41.2,1c-7.6,0.3-15.2,0.6-22.8,0.9c-10.2,0.4-20.4,0.9-30.6,1.4c-10,0.6-20.1,1.2-30.1,1.9
			c-11.2,0.8-22.4,1.8-33.7,2.7c-6.8,0.5-13.5,1-20.3,1.6c-2.6,0.3-5.3,0.5-7.9,0.5c-0.9,0-1.7-0.3-2.3-1c-1.6-1.8-3.4-3.4-5-5.1
			c-0.3-0.3-0.9-0.6-0.7-1.1c0.1-0.5,0.8-0.4,1.2-0.4c7.8-0.2,15.3-2,23-2.8c3.6-0.4,7.1-0.7,10.6-1.3c0.1-0.4-0.1-0.6-0.3-0.6
			c-3.8,0-7.5-0.1-11.3,0c-5.3,0.2-10.5,0.5-15.8,0.9c-3.5,0.3-7,0.3-10.5,0.4c-1,0.1-1.9-0.2-2.7-0.8c-4.8-4.1-10-7.8-15-11.5
			c-0.1-0.1-0.1-0.3-0.2-0.7c8.9,0.1,17.7-0.8,26.4-2.6c-7,0.6-14-0.1-21,0.6c-2.5,0.3-5.1,0.1-7.7,0.2c-0.7,0-1.4-0.3-2-0.8
			c-4-3.3-8.3-6.2-12.8-8.8c-0.5-0.3-1-0.6-0.8-1.3s0.8-0.7,1.4-0.7c0.9-0.1,1.8-0.1,2.6-0.1c7.6,0.1,15.2,0.1,22.8-0.4
			c8-0.6,16.1-1.1,24.1-1.8c6.9-0.6,13.9-1,20.8-1.6c7.2-0.6,14.3-1.2,21.5-1.8c4.8-0.4,9.7-0.7,14.6-1c9.2-0.6,18.4-1.3,27.6-1.8
			c3.2-0.2,6.4-0.3,9.6-0.5c8.7-0.5,17.4-0.7,26.1-1.2c7.6-0.4,15.2-0.7,22.8-1c11.7-0.5,23.3-0.6,35-1c24.8-0.7,49.6-0.4,74.4-0.1
			c9.3,0.1,18.6,0.1,27.8,0.5c7.6,0.3,15.2,0.1,22.8,0.5c8.2,0.4,16.5,0.1,24.7,0.5c8.8,0.4,17.6,0.1,26.4,0.5
			c11.3,0.5,22.6,0.1,33.8,0.5c15,0.5,29.9,0.2,44.9,0.5c34.5,0.7,68.9,0.4,103.4,0.2c8.8-0.1,17.6,0,26.4-0.5
			c7-0.4,13.9,0.1,20.8-0.7c0.5-0.1,1-0.2,1.3,0.3s-0.3,0.8-0.5,1.2c-1.3,1.7-2.6,3.4-4.1,5c-0.7,0.7-1.6,1.1-2.5,1.1
			c-6.2,0.2-12.5,0.4-18.7,1c-2.1,0.2-4.2,0.5-6.2,0.7L833-199.1z M448.1-181.3c9.6,0.2,19-0.3,28.4-0.6c5.8-0.2,11.5-0.3,17.3-0.1
			c8.5,0.3,17.1,1,25.6,1.2c15.4,0.5,30.7-0.3,46-0.3c8.2,0,16.3-0.3,24.4-0.7c9.2-0.5,18.3-1.4,27.5-1.9c3-0.2,5.9-0.3,8.8-0.4
			c10.7-0.6,21.4-1.3,32-1.7c7.3-0.3,14.7-0.7,22-1.2c3.2-0.2,6.5,0,9.6-1.1c-6.9-0.1-13.8,0-20.6,0.3c-5.8,0.3-11.7,0.2-17.5,0.4
			c-10,0.4-20,0.7-29.9,1.1c-6.2,0.3-12.5,0.5-18.6,1.1c-9.6,0.9-19.3,1.4-28.9,1.7c-7.4,0.2-14.9,0-22.3,0.2
			c-9.9,0.2-19.8,0.9-29.7,0.5c-10.5-0.5-21.1-0.7-31.6-1c-7.3-0.2-14.5,0.2-21.8,0.5c-4.9,0.2-9.9,0.5-14.8,1
			C452-182.3,450.1-182.3,448.1-181.3z M503-201.4c-3.1,0-6.2,0.1-9.4,0c-2.1-0.2-4.3-0.3-6.5-0.2c-9,0.8-17.9,2.3-26.8,3.4
			c-10.2,1.2-20.4,1.9-30.5,2.1c-11.6,0.3-23.2,0.1-34.8,0.2c-1.4,0-2.9,0-4.3,0c-10.4,0.4-20.9,0.9-31.3,1.9
			c-2.4,0.2-4.9,0.1-7.2,1.2c3.3-0.3,6.7-0.3,10-0.5c6.3-0.4,12.6-1.1,18.9-1.2c10.9-0.2,21.9-0.2,32.9,0.2
			c12.3,0.3,24.6,0,36.9-1.2c5.9-0.5,11.7-1.2,17.6-1.9c7.8-0.9,15.6-2.2,23.5-2.7C495.8-200.3,499.5-200.1,503-201.4z M637.7-198.7
			c4.7,0.6,9.5,0.9,14.3,0.7c18.7,0,37.4-0.1,56.1-0.4c19.4-0.3,38.8-0.1,58.3-0.6c0.6,0,1.2,0,1.8,0c-3.9-0.4-7.8-0.6-11.7-0.7
			c-13.1-0.3-26.2-0.3-39.3-0.2c-10.3,0-20.6,0.2-30.9,0.4c-14.9,0.3-29.7,0.1-44.6,0.2C640.3-199.5,639-199.3,637.7-198.7z
			 M330.7-176.1c2,0.4,4.1,0.5,6.2,0.5c7.3-0.6,14.5-0.2,21.8-0.8c10.3-0.8,20.5-1.3,30.8-2.1c3.7-0.3,7.4-0.7,11.4-1.1
			C393.2-180.5,345-177.8,330.7-176.1z M586.5-193.9c-0.8-0.5-1.7-0.8-2.6-0.6c-12.3-0.2-24.6,0.4-36.9,0.9c-2.6,0.1-5.3,0-7.9,0.1
			c-2.1,0.1-4.1,0.4-6.2,0.6c1.3,0.9,2.9,1.3,4.5,1.1c8.6,0.1,17.2-0.2,25.8-0.8c4.6-0.4,9.3-0.4,13.9-0.6
			C580.2-193.4,583.3-193.7,586.5-193.9z M424.3-200.1c11.4-0.2,22.8-1.4,34.2-2.5C447.1-203.1,435.6-202.3,424.3-200.1z"/>
		<path class="st4" d="M801.3,869.7c2.1,0.5,4.3,0.7,6.5,0.7c16.2,0.2,32.5-0.6,48.7-0.5c5.1-1.4,9.1,0.7,13,3.7
			c4.5,3.4,9.6,6,14.1,9.5c1.1,0.9,2.2,1.9,3,3.1c0.7,1,0.4,1.2-0.7,1.2c-4.3,0-8.7-0.1-13,0.1c-11.7,0.4-23.5,0.9-35.2,1.5
			c-6.6,0.3-13.2,0.6-19.9,0.9c-13.8,0.6-27.6,1.1-41.4,1.6c-11,0.3-22,0.6-33.1,0.9c-23.5,0.6-47,0.5-70.5,0.2c-12-0.2-24,0-36-0.5
			c-7.7-0.3-15.3,0-23-0.4c-8.5-0.4-17-0.1-25.4-0.5c-7.5-0.3-15-0.1-22.5-0.4c-8.1-0.4-16.2-0.1-24.2-0.5c-7.5-0.4-15-0.2-22.5-0.4
			c-13.3-0.5-26.7-0.6-40-1c-8.9-0.3-17.8-0.1-26.6-0.4c-14.3-0.6-28.6-0.1-42.9-0.5c-19.1-0.5-38.2-0.3-57.3-0.1
			c-9.8,0.1-19.7,0.1-29.5,0.4c-10.2,0.3-20.3,0.6-30.4,1c-8.7,0.3-17.4,0.6-26.1,0.9c-1,0-2.1,0.2-3.1,0.3
			c-1.6,0.1-2.4-0.7-2.1-2.3c0.1-0.2,0.1-0.5,0.2-0.7c1-3.2,6.4-7.2,9.7-7.5c5.7-0.5,11.4-1.2,17.2-1.7c3-0.3,6-0.5,9.1-0.6
			c2.2-0.1,4.5-0.4,6.7-0.8c-10.2-0.9-20.5-0.9-30.8,0c1.3-1.4,2.7-2.6,4.3-3.7c7.1-5.2,13.6-11.2,20.6-16.5c0.9-0.8,2-1.2,3.2-1.3
			c5.7-0.3,11.5-0.4,17.5-1c-3-0.5-6.1-0.7-9.1-0.8c-1.9,0-3.8-0.2-5.7-0.3c-0.3,0-0.7,0.1-0.8-0.4s0.2-0.6,0.4-0.8
			c1.2-1.5,3-2.4,4.9-2.4c17.8-0.4,35.7-0.5,53.5-0.6c6.9,0,13.8-0.3,20.8-0.2c18.4,0.2,36.9,0.2,55.3,0.5
			c9.1,0.2,18.2,0.1,27.3,0.5c6.7,0.3,13.4,0.2,20.1,0.4c11.8,0.5,23.6,0.6,35.5,1c12.9,0.4,25.7,0.7,38.6,1
			c11.9,0.3,23.8,0.6,35.7,1c6.3,0.2,12.6,0.2,18.9,0.4c15.9,0.6,31.8,0.7,47.7,1.1c10.1,0.2,20.2,0.1,30.2,0.4
			c7.6,0.2,15.1,0.4,22.7,0.2c12-0.3,24-0.2,36-0.4c11.3-0.2,22.5-0.6,33.8-1c12-0.4,24-0.9,35.9-1.4c6-0.3,12-0.6,17.9-0.9
			c1.4-0.1,2.7,0.3,3.8,1.2c2.5,2.2,5.3,4.2,8.1,6c3,1.9,5.2,4.7,8,6.9c0.2,0.2,0.6,0.4,0.3,0.8c-0.2,0.1-0.4,0.2-0.6,0.2
			c-6.7-0.3-13.3,1.4-20,1.5c-7.8,0.1-15.6,0.8-23.4,1.3C810.2,869.3,806,869.4,801.3,869.7z M565,881.4c-3.3-0.9-6.5-0.9-9.7-1
			c-8-0.3-16-0.9-23.9-1.8c-5.3-0.6-10.7-0.6-15.9-1.8c-2.3-0.5-4.6-0.7-6.9-0.5c-7.5,0.8-15,0.6-22.5,1.2c-8,0.7-16.1,0.6-24.2,0.9
			c-8.3,0.3-16.6,0.9-24.9,0.5c-4.3-0.2-8.6-0.3-12.9-0.3c-11.6,0-23.2,0-34.8-0.1c-3.9,0-7.8,0-11.8,0.1c-0.5,0-1.3-0.3-1.7,0.7
			c5.6,0.7,11.1,0.8,16.5,1.1c11.3,0.5,22.5,0.1,33.8,0.4c14.8,0.6,29.6,0.3,44.3-0.6c8-0.6,16,0,23.9-1c4.6-0.6,9.4,0,14.1-0.5
			c5.3-0.6,10.4,1.4,15.7,1.6c2.5,0.1,5.1,0.1,7.7,0.4c10.3,1.2,20.7,1.7,31.1,1.3C563.7,881.9,564.3,882.2,565,881.4z M758.3,871
			c-1-0.4-2.1-0.6-3.1-0.5c-6-0.2-12,0.2-18-0.4c-6-0.5-12-1.8-17.8-3.7c-4.9-1.8-10.1-2.6-15.3-2.2c-3.8,0.3-7.6,1.1-11.4,1.3
			c-2.8,0.2-5.6,0.1-8.4,0.4c-6,0.6-12.1,1.2-18.1,1.8c-4.8,0.5-9.5,0.9-14.3,1.1c-8.4,0.3-16.7,1-25.1,1.2
			c-10.3,0.2-20.6,0.1-31,0.2c-0.7,0-1.5-0.3-2.3,0.6c1.6,0.3,3.2,0.4,4.8,0.5c18.2,0.2,36.3,0.3,54.4-0.5c4.4-0.2,8.8-0.5,13.1-1
			c8.1-1,16.2-1.8,24.3-2.2c4-0.2,8-0.6,11.9-1.3c5.3-1.1,10.7-0.7,15.8,1.2c2.5,1,5,1.8,7.5,2.4c8.9,2.2,17.9,2.4,26.9,1.8
			C754.4,871.7,756.4,871.5,758.3,871L758.3,871z M360.8,853.8c4.3,1.1,63.9,1.2,66,0.1c-4.5-0.6-9.1-1-13.7-1.1
			c-12.4-0.1-24.8,0-37.2-0.1c-4.5,0-8.9,0.4-13.4,0.5C361.9,853.3,361.2,853.2,360.8,853.8L360.8,853.8z M731.7,875.7
			c-14.4,1.6-28.7,0.8-43-0.9C694,877.7,725,879.2,731.7,875.7L731.7,875.7z M447.1,875.3c9.8,0.2,19.5-0.7,29.2-1.7
			C466.6,873.3,456.8,873.2,447.1,875.3L447.1,875.3z"/>
		<path class="st5" d="M815.9-132.6c0-2.5,0-5.1,0-7.6c0.1-2.8,0-5.6-0.3-8.4c-0.1-0.4-0.1-0.8,0.2-1.1c1-1.2,2.1-2.4,3.2-3.6
			c0.7-0.7,1.2-0.5,1.2,0.5c0.2,4.5,1.2,8.9,1.5,13.3c0.1,1.1,0.3,2.2,0.7,3.3c0.6-4,0.3-13.7-0.6-17.7c-0.2-0.8-0.9-1.7-0.1-2.5
			c0.8-0.8,1.4-2.4,2.6-2.3c0.8,0.1,0.5,1.8,0.6,2.8c0.4,2.5,0.3,5.1,0.6,7.6c0.6,6.1,0.7,12.3,1.1,18.4c0.5,8,1.2,15.9,1.8,23.9
			c0.2,2.7,0.2,5.4,0.5,8.1c0.5,6.3,0.7,12.6,1.1,18.9c0.6,8.5,1,17,1.5,25.6c0.3,5.9,0.7,11.8,1,17.7l1,22c0.3,7.5,0.6,15,0.9,22.5
			c0.4,8.9,0.7,17.7,1,26.6c0.3,9.6,0.6,19.2,1,28.7c0.3,10.1,0.6,20.3,1,30.4c0.3,7,0,13.9,0.5,20.8c0.4,6,0,12,0.5,18
			c0.5,7,0,13.9,0.5,20.9c0.4,6.2,0,12.5,0.5,18.7c0.5,7,0.1,14.1,0.5,21.1c0.5,8.6,0,17.3,0.5,25.9c0.5,8.8,0,17.6,0.5,26.4
			c0.6,13.3,0,26.7,0.5,40c0.6,17,0,34.1,0.4,51.1c0.5,21.7,0.1,43.3,0.5,65c0.5,25.7,0.1,51.3,0.5,77c0.5,35.9,0.5,71.8,0.2,107.7
			c-0.3,42.5-0.1,84.9-0.5,127.3c-0.1,13.5,0,27-0.4,40.5c-0.8,24.3-0.3,48.6-0.3,72.9c0,4.9,0.3,9.9,0.4,14.8
			c0,0.5,0.3,1.3-0.2,1.6c-0.6,0.3-1-0.3-1.4-0.7c-3.1-2.8-6.1-5.7-8.9-8.7c-0.5-0.7-0.7-1.6-0.5-2.5c0.2-4.8-0.2-9.6-1.2-14.3
			c-1,3.9-0.5,7.6-0.7,11.3c0,0.7,0.4,1.7-0.4,1.9c-0.7,0.2-1.3-0.8-1.5-1.6c-0.7-2.5-1.2-5.1-2-7.6c-1.7-5-1.8-10.2-1.9-15.4
			c0-16.2-0.2-32.5,0.1-48.7c0.2-9.8,0-19.5,0.5-29.3c0.3-9.6,0.1-19.1,0.3-28.6c0.5-22.2,0.2-44.3,0.6-66.5
			c0.5-28.7,0-57.4,0.4-86.1c0.4-30.7,0.5-61.4,0.2-92.1c-0.3-29.9,0.1-59.8-0.5-89.7c-0.4-23.3,0.1-46.7-0.5-70
			c-0.4-15.3,0-30.5-0.5-45.8c-0.3-9,0-17.9-0.4-26.9c-0.4-8.5,0-17-0.5-25.4c-0.4-7.4,0-14.7-0.5-22c-0.4-7.1,0-14.2-0.5-21.3
			c-0.5-7.1,0-14.1-0.5-21.1c-0.5-7,0-14.1-0.5-21.1c-0.4-6.1,0-12.3-0.5-18.4c-0.4-5-0.2-10.1-0.4-15.1c-0.5-10-0.7-20.1-1-30.2
			c-0.3-8.5-0.6-17.1-0.9-25.6c-0.3-8.4-0.6-16.8-1-25.1c-0.3-7.3-0.7-14.7-1-22c-0.4-8.8-1-17.5-1.4-26.3
			c-0.4-8.1-0.9-16.3-1.4-24.4c-0.5-7.6-1-15.1-1.5-22.7s-0.9-15.3-1.4-22.9c-0.5-6.5-0.9-13-1.4-19.6c-0.2-2.8,1.3-4.4,3.1-6.1
			c1-1,1.6-0.4,1.6,0.7c0,2.3,0.4,4.6,0.6,6.9c0.3,2,0.5,4.1,0.6,6.1L815.9-132.6z"/>
		<path class="st6" d="M284.2-122.2c0.2-2.5,0.1-5.1-0.1-7.6c-0.2-5.5-0.1-11-0.1-16.6c0-0.4-0.3-1.1,0.3-1.3c0.4-0.1,0.7,0.3,1,0.6
			c3,2.5,6,5,9,7.6c0.9,0.7,1.4,1.8,1.3,2.9c0,11.3,0.4,22.7,0.6,34c0.2,7.8,0,15.7,0.5,23.5c0.3,5,0,10.1,0.4,15.1
			c0.5,6.1,0.1,12.3,0.5,18.4c0.4,5.1,0.1,10.2,0.4,15.3c0.5,6.7,0.1,13.4,0.5,20.1c0.5,7.4,0,14.7,0.5,22.1
			c0.6,10.2,0,20.5,0.5,30.7c0.4,8.1,0,16.1,0.5,24.2c0.4,7.6,0.1,15.2,0.5,22.8c0.5,9.8,0.7,19.6,1,29.5c0.3,7.8,0.7,15.6,0.9,23.5
			c0.3,7.3,0.7,14.5,1,21.8c0.3,7,0.7,14,1,21s0.7,14.2,1,21.3c0.3,6.9,0.7,13.9,1,20.8c0.3,7.3,0.6,14.7,1,22s0.7,14.7,0.9,22
			c0.3,8.5,0.7,17.1,1,25.6c0.3,7.7,0.6,15.3,0.9,23c0.4,9.3,0.7,18.5,1,27.8c0.3,8.2,0.6,16.4,0.9,24.7c0.4,9.2,0.7,18.3,1,27.5
			c0.3,8.9,0.6,17.9,0.9,26.8c0.3,10.9,0.6,21.7,1,32.6c0.3,7.2,0,14.4,0.4,21.6c0.6,10.2,0,20.5,0.5,30.7c0.4,7.7,0,15.3,0.5,23
			c0.4,6.9,0,13.8,0.5,20.6c0.4,6,0,12,0.5,18c0.5,6.5,0.2,13,0.5,19.4c0.5,10.6,0.7,21.2,1,31.9c0.3,10.5,0.6,20.9,1,31.4
			c0.3,10.7,0.6,21.4,1,32.1c0.2,5,0,10.1,0.4,15.1c0.5,6.2,0.1,12.3,0.5,18.5c0.4,5.8,0.1,11.5,0.5,17.3c0.4,6.1,0.1,12.2,0.5,18.2
			c0.4,5.5,0.1,11,0.5,16.5c0.5,6.2,0.1,12.3,0.5,18.4c0.6,9.2,0.2,18.4,0.4,27.6c-0.1,0.6-0.1,1.3,0,1.9c1.3,3.9-0.8,6.2-3.7,8.2
			c-0.3,0.2-0.7,0.6-1,0.3c-0.2-0.2-0.2-0.6-0.1-0.9c0.8-4.5,0.1-9-0.3-13.9c-0.7,2.6-1.1,5.2-1.2,7.8c-0.3,2.4-0.4,4.9-0.5,7.4
			c0,1.6-0.8,3.1-2,4.2c-2,1.7-4.1,3.3-6.1,5c-0.4,0.3-0.8,0.7-1.3,0.4s-0.3-0.7-0.2-1.1c0.2-4.1-0.5-8.1-0.4-12.2
			c0.2-11.5-0.4-23-0.7-34.5c-0.1-5.7,0-11.5-0.5-17.3c-0.4-5.5,0-11-0.5-16.5c-0.5-6.2-0.1-12.5-0.5-18.7c-0.4-5.8,0-11.7-0.5-17.5
			s-0.2-11.3-0.4-17c-0.5-11.3-0.7-22.7-1-34c-0.2-5.3,0-10.7-0.4-16c-0.5-5.8-0.1-11.5-0.5-17.3c-0.4-5.9-0.1-11.8-0.5-17.7
			s0-12-0.5-18c-0.5-6.9,0-13.8-0.5-20.6c-0.4-6.6,0-13.1-0.5-19.7c-0.5-7.3,0-14.6-0.5-21.8c-0.5-9.2,0-18.4-0.5-27.6
			c-0.4-8.8,0-17.6-0.5-26.4c-0.4-7.7-0.1-15.3-0.5-23c-0.3-5-0.1-10.1-0.4-15.1c-0.5-9.5-0.7-19-1-28.5c-0.3-8.9-0.6-17.7-0.9-26.6
			c-0.3-8.7-0.7-17.4-1-26.1c-0.3-8.2-0.7-16.4-1-24.7c-0.3-8.6-0.6-17.2-1-25.9c-0.3-7.7-0.7-15.5-1-23.2c-0.3-8-0.7-16-1-23.9
			c-0.3-7.4-0.6-14.8-1-22.3c-0.3-6.9-0.6-13.7-1-20.6c-0.3-6.7-0.6-13.4-0.9-20.1l-1.5-31.8c-0.3-7.2-0.6-14.4-1-21.5
			c-0.5-9.3-0.9-18.6-1.3-28c-0.4-10.8-0.8-21.5-1.2-32.3c-0.3-11.3-0.6-22.5-0.9-33.8c-0.3-8.9,0-17.8-0.5-26.6
			c-0.5-9.4,0-18.9-0.5-28.3c-0.4-7.1,0-14.2-0.4-21.3s-0.2-14.1-0.5-21.1c-0.5-10.6-0.6-21.2-1-31.9c-0.2-6,0-12-0.5-18
			s-0.1-11.8-0.5-17.7c-0.5-7.6-0.1-15.2-0.5-22.8c-0.4-7.1-0.3-14.2-0.4-21.3v-1.4c0-1,0.3-1.4,1.3-0.7c1.3,1,2.4,2,2.3,4.1
			c-0.4,5.7,0.9,11.3,1.6,16.9C283.2-128.3,283.7-125.3,284.2-122.2z"/>
		<path class="st5" d="M315.1-145c-4.7-0.2-9.4-0.2-14,0.1c-1.6,0.1-3.2,0.2-4.8,0.2c-1.9,0.1-2.7-1.6-3.7-2.7
			c-0.5-0.6,0.3-0.6,0.8-0.7c2.5-0.3,4.9-0.7,7.3-0.9c6.3-0.6,12.6-0.9,18.8-1.6c6.6-0.7,13.3-0.9,19.9-2c-4.6-0.6-9.1,0.1-13.7,0.2
			c-8.5,0.2-16.9,0.9-25.3,1.8c-2.9,0.3-5.9,0.7-8.7,1.3c-0.7,0.2-1.5,0.1-2-0.4c-2-1.8-4-3.5-6-5.2c-0.7-0.5-0.6-0.9,0.3-1
			c0.7-0.1,1.4-0.3,2.1-0.3c7.9-0.6,15.7-1.3,23.6-1.9c5-0.4,10-0.7,15-1.1c7.9-0.6,15.8-1.2,23.6-1.8c2.9-0.2,5.7-0.3,8.6-0.4
			c3.7-0.2,7.5-0.5,11.2-0.7c7.9-0.3,15.8-0.9,23.7-1.3c3.7-0.2,7.4-0.3,11-0.4c5.5-0.2,11-0.5,16.5-0.7c12.9-0.4,25.7-0.7,38.6-1
			c21.5-0.6,43-0.3,64.5-0.3c12.5,0,24.9,0.3,37.4,0.6c7.6,0.2,15.2,0,22.8,0.4c8.1,0.5,16.3,0,24.5,0.5c8.8,0.5,17.6,0,26.4,0.5
			c11.6,0.6,23.2,0,34.8,0.5c14.5,0.6,29.1,0.1,43.6,0.4c34,0.8,68,0.3,102,0.3c1.9,0,3.7-0.3,5.5-0.4c0.4,0,0.9,0,1.1,0.2
			c0.3,0.4-0.2,0.7-0.4,1c-2.5,2.9-4.9,5.7-7.3,8.6c-0.5,0.6-1.3,0.9-2.1,0.8c-6.4,0-12.8-0.6-19.1-0.8c-6.6-0.4-13.3-0.3-19.9,0.2
			c-1,0.1-2.1,0.1-3.1,0.1c-3.3-0.1-6.6,0.2-9.8,0.9c1.6,0,3.3,0,4.9,0c7.7-0.2,15.3,0.3,23,0.6c7.1,0.3,14.2,0.9,21.3,0.9
			c0.4,0,1.1-0.2,1.2,0.4c0,0.3-0.4,0.7-0.7,0.9c-2.5,1.7-5.5,2.6-8.6,2.5c-13.4,0.1-26.9,0.1-40.3,0.1c-18.7,0-37.4,0.2-56.2-0.2
			c-14.6-0.3-29.1,0-43.7-0.5c-9.5-0.3-19,0-28.5-0.5c-7-0.3-14.1,0-21.1-0.5c-6.6-0.4-13.3,0-19.9-0.5s-13.3,0-19.9-0.5
			c-6.1-0.4-12.1-0.1-18.2-0.5c-7.8-0.5-15.7-0.2-23.5-0.5c-21.8-0.8-43.7-0.4-65.5-0.2c-7,0.1-14.1,0.1-21.1,0.4
			c-8.1,0.3-16.1,0.7-24.2,1c-7,0.3-14,0.6-21,0.9c-8.1,0.4-16.3,0.9-24.4,1.4c-7,0.4-14,0.9-21,1.4c-6.7,0.5-13.3,1.2-20,1.8
			s-13.4,1-20,1.6c-3.8,0.3-7.6,0.9-11.4,0.9c-0.9,0.1-1.8-0.2-2.4-0.9c-0.2-0.3-0.5-0.4-0.4-0.8c0.1-0.4,0.5-0.3,0.8-0.3
			c2.3,0,4.6-0.1,6.9-0.5C308.5-143.4,311.8-144.1,315.1-145z"/>
		<path class="st5" d="M807.6,836.8c5-0.6,9.9-0.3,14.6-1.5c1-0.4,2.2-0.1,2.9,0.8c0.9,1.1,2.9,2.1,2.7,3.1s-2.4,0.4-3.7,0.5
			c-5.5,0.5-11,1-16.4,1.8c-0.8,0.1-1.6,0.4-2.3,0.8c4,0,8,0.2,11.9,0c4.1-0.2,8.3-0.7,12.4-1.1c0.3,0,0.7-0.1,0.9,0.1
			c1.4,1.2,2.8,2.3,4.2,3.6c0.5,0.4,0.4,0.8-0.3,0.9c-0.2,0-0.3,0-0.5,0c-4.3-0.2-8.6,0.4-12.9,0.5c-9.8,0.2-19.6,0.8-29.4,1.1
			c-3.7,0.1-7.5,0.2-11.3,0.4c-13.1,0.6-26.2,0.7-39.3,1.1c-23.2,0.6-46.4,0.4-69.6,0.2c-10.5-0.1-21.1,0-31.7-0.4
			c-8.6-0.4-17.3-0.1-25.9-0.5c-8.2-0.4-16.5-0.1-24.7-0.4c-8.1-0.4-16.2-0.1-24.2-0.5c-7.4-0.4-14.9,0-22.3-0.5
			c-7.8-0.4-15.7,0-23.5-0.5c-6.3-0.4-12.6,0-18.9-0.4c-7-0.5-13.9-0.1-20.9-0.5c-8.2-0.5-16.5-0.1-24.7-0.4
			c-14.9-0.6-29.8-0.1-44.6-0.5c-17.8-0.5-35.7-0.3-53.5-0.2c-11,0.1-22,0.1-33.1,0.4c-4.5,0.2-9.1,0.3-13.7,0.4c-0.4,0-1,0-1.1-0.2
			c-0.3-0.6,0.4-0.7,0.7-1c1.5-1.8,3.4-2.3,5.7-2.2c6.4,0.2,12.8-0.3,19.1-1.6c0.3-0.1,0.6-0.3,0.9-0.4c-6.8-1-13.3-0.2-20.1-0.6
			c2.5-2.3,4.8-4.1,7.1-5.9c0.6-0.3,1.4-0.4,2.1-0.3c2.5,0,5,0,7.4,0c0.9,0.1,1.9-0.1,2.7-0.7c-2.6-0.7-5.2-1.1-7.9-1.2
			c-0.4,0-1.1,0.2-1.2-0.5s0.5-1,1-1.2c0.5-0.2,1.1-0.2,1.6-0.2c9-0.5,18.1-0.3,27.1-0.6c23-0.7,46.1-0.4,69.1-0.2
			c12.5,0.1,25,0,37.4,0.4c7.2,0.3,14.4,0.1,21.6,0.4c11.3,0.5,22.5,0.6,33.8,1c6,0.2,12,0.1,18,0.4c11.3,0.5,22.5,0.6,33.8,1
			c5.9,0.2,11.8,0,17.7,0.4c6.4,0.4,12.8,0.1,19.2,0.5c5.8,0.4,11.7,0.1,17.5,0.5c7.5,0.5,15,0.1,22.5,0.5c10.8,0.6,21.6,0,32.4,0.5
			c11.3,0.5,22.7,0.4,34,0.2c9.7-0.2,19.4-0.1,29-0.4c9.7-0.4,19.2-0.6,28.7-1c8.1-0.3,16.1-0.6,24.2-1c6.4-0.3,12.9-0.7,19.4-0.9
			c1.4,0,2.8-0.3,4.3-0.4c1.5-0.2,3.1,0.4,3.9,1.7c0.3,0.4,1,0.8,0.6,1.4c-0.3,0.5-0.9,0.3-1.3,0.3c-4.2,0.1-8.4,0.8-12.5,2
			C808.2,836.1,807.9,836.2,807.6,836.8z"/>
		<path class="st7" d="M270.5,690.5c0.3-5.2-0.4-9.8-0.1-14.6c0.2-4.9,0.2-9.8,0.2-14.6c0-9,0.6-18,1.1-27.1
			c0.5-9.9,1.6-19.7,2.6-29.6c0.6-6,0.8-12.1,1.1-18.2c0.4-8.6,0.5-17.3,1.1-25.9s1.7-17.3,2.1-26c0.4-8,1.1-15.9,0.3-23.9
			c-0.3-2.9-0.1-5.9-0.2-8.9c-0.3-13.3-0.8-26.5-0.3-39.8c0.3-7.9,0.2-15.8,0.4-23.7c0-6.1-0.5-12.3-1.6-18.3
			c-0.7-4.7-1.2-9.3-1.8-14c-0.8-6-1.7-12-2.2-18c-0.3-2.8-0.4-5.6-0.6-8.3c-1.2-12.5-2.4-25.1-4.7-37.5c-1.8-9.6-3.1-19.4-4.5-29.1
			c-1.1-7.5-2.2-15-3.2-22.5c-0.7-5.5-1.2-10.9-1.7-16.4c-0.4-5.3-0.4-10.5-0.6-15.8c-0.4-8.1,0.4-16.1,0.9-24.7
			c0.7,5.1,0.9,10.2,0.7,15.3c-0.1,7.2,0.3,14.4,0.6,21.6s1.1,14.1,2.1,21.2c1.3,8.8,2.4,17.7,3.5,26.6c1.3,9.7,2.8,19.4,4.5,29.1
			c1,5.8,1.6,11.7,2.2,17.6c1.3,12.9,1.8,25.8,3.7,38.6c1.1,7.8,1.6,15.7,2.9,23.5c0.2,1.5,0.2,3,0.2,4.5
			c-0.4,13.3,0.9,26.5,1.1,39.8c0.1,7.8,0.1,15.5,0.3,23.3c0.3,9.4,0.5,18.9,0.5,28.3c0,8.4-1,16.7-1.8,25.1
			c-0.5,4.5-0.8,9.1-1.1,13.6c-0.6,11-0.9,22-1.6,33c-0.6,8.8-1.7,17.6-2.6,26.4c-0.6,5.3-0.8,10.7-1.1,16
			c-0.5,10.6-1.1,21.2-1.3,31.8c-0.2,6.5-0.6,13.1-0.4,19.7C271.4,689.3,271.1,690,270.5,690.5z"/>
		<path class="st8" d="M273.4,285.5c-0.7-0.6-1-1.6-0.9-2.5c0-1.1,0-2.2,0-3.4c0.2-8.7-0.1-17.4-0.6-26.1
			c-0.4-9.3-1.4-18.6-2.6-27.9c-0.8-6.4-1.5-12.8-2.1-19.3c-3.1-33.4-1.8-66.9-1.7-100.4c0-8.1,0.2-16.3,0.4-24.5
			c0.1-1.8,0.3-3.5,0.8-5.2c0.2,5.6,0.5,11.3,0.5,17c0,13,0.1,25.9-0.1,38.9c-0.1,5.8-0.4,11.5-0.2,17.3c0.4,10.2,0.1,20.5,0.5,30.7
			c0.4,10.7,0.9,21.4,2.2,32c1.3,10.9,2.3,21.7,3.3,32.6c0.4,4.6,0.5,9.3,0.6,13.9C273.5,267.5,273.4,276.3,273.4,285.5z"/>
		<path class="st8" d="M286.8,578.3c0.2,1.6,0.4,3.1,0.5,4.7c1.6,25.3,0.7,50.7,1.1,76c0.2,10,0.8,20,1.7,29.9
			c0.8,8.2,1.4,16.4,2.1,24.6c0.7,7.9,1,15.8,0.8,23.7c-0.1,1.7-0.3,3.5-0.9,5.1c-0.6-0.6-0.4-1.3-0.4-1.9c0-6.2,0.1-12.5-0.1-18.7
			c-0.3-6.6-0.9-13.2-1.7-19.8c-0.8-6.9-1.4-13.8-2.1-20.7c-1-8.7-1.2-17.4-1.8-26c-0.2-2.6-0.1-5.1-0.1-7.7c0-19.8,0-39.7,0-59.5
			c0-3.2,0.3-6.4,0.5-9.6L286.8,578.3z"/>
		<path class="st9" d="M254.2,634.6c-0.7-3.7-1-7.6-0.8-11.4c0.1-9.7-0.6-19.3-1.1-29c-0.4-7.5-0.9-15-1.5-22.5
			c-1-14.4-1.7-28.7-1.3-43.1c0-6.2,0.6-12.4,1.7-18.5c0,0.6,0.1,1.2,0.1,1.8c-0.2,12.5,0.1,25,0.6,37.4c0.4,11.3,0.8,22.7,1.7,34
			c0.2,2.9,0.3,5.7,0.4,8.6c0.7,12.5,0.8,25.1,0.6,37.6C254.6,631.3,254.3,632.9,254.2,634.6z"/>
		<path class="st10" d="M251.7-28.7c-1.4,44.6,1.2,88.6,1.2,133c-0.5-0.4-0.7-1-0.6-1.6c0-6.8-0.4-13.6-0.6-20.4
			c-0.3-12.8-0.7-25.6-1-38.4c-0.2-7-0.2-14.1-0.4-21.1c-0.1-2.9-0.3-5.8-0.3-8.6c0-9.4,0.1-18.7,0.4-28.1
			C250.6-18.8,251-23.7,251.7-28.7z"/>
		<path class="st11" d="M252.4,279.8c1.2,28.6,1.7,57.1-2.2,85.5c-0.2-1.5-0.2-3,0.1-4.5c0.2-1.5,0.3-3,0.3-4.5
			c0.3-3.5,0.6-7,0.8-10.5c0.8-17.3,0.4-34.7,0.5-52v-14L252.4,279.8z"/>
		<path class="st12" d="M268.8,472.3c1.5,15.5,1.8,75,0.4,78.7C269.2,524.5,267.7,498.5,268.8,472.3z"/>
		<path class="st13" d="M271.7,717.4c-0.2-2.4-0.4-4.7-0.5-7c-0.3-5.3-0.1-10.5-0.6-15.8c-0.1-0.9-0.1-1.8,0-2.6
			c0-0.4,0-0.9,0.5-0.8c0.3,0,0.4,0.5,0.4,0.8c0.1,1.5,0.4,3,0.4,4.5c0,6.5,0,13.1,0.1,19.7C272.1,716.5,271.9,717,271.7,717.4z"/>
		<path class="st14" d="M253,123.2c-0.4-0.3-0.7-0.7-0.6-1.2l-0.1-14.5c0-0.3,0-0.7,0.1-1c0-0.2,0.1-0.5,0.4-0.5s0.4,0.3,0.4,0.5
			c0.1,0.3,0.1,0.6,0.1,0.9l-0.1,15C253.2,122.7,253.1,123,253,123.2z"/>
		<path class="st15" d="M873.8,444.9c1,8.3,0.2,16.2-0.2,24c-0.2,3.3-0.3,6.7-0.5,10c-0.5,9.1-1.3,18.2-1.9,27.2
			c-0.5,9.2-0.4,18.4,0.2,27.5c0.4,5.7,0.7,11.5,1.1,17.2c0.6,6.9,1.2,13.8,1.8,20.8c0.7,7.2,1.3,14.5,2.1,21.7
			c0.7,6.5,1.5,13,2.2,19.5c0.5,4.9,1,9.8,1.5,14.8c1.2,12.2,1.6,24.5,2,36.8c0.3,12,0.3,24,0.7,36c0.5,14,0.1,28,0.5,42
			c0.2,7,0.1,14.1,0.7,21.1c0.1,2-0.1,4-0.4,6c-0.2,1.1-0.7,2.1-1.6,2.8c1.5-6,0.9-11.8,0.7-17.4c-0.6-12.8-0.6-25.6-1-38.3
			c-0.3-8.5,0-17-0.4-25.4c-0.4-8.6-0.2-17.3-0.5-25.9c-0.3-7.8-0.5-15.7-1-23.5c-0.5-8-1.2-16.1-2.2-24.1c-1-7.8-1.7-15.5-2.6-23.3
			c-0.8-7-1.6-14-2.3-20.9c-0.6-6.4-0.9-12.7-1.6-19.1c-0.8-8.3-1.3-16.5-1.7-24.8c-0.4-7.5-0.3-15,0.2-22.5
			c0.5-6.5,0.7-13.1,1.2-19.6c0.7-9,1-18,1.3-27C872.1,455.2,872.7,450,873.8,444.9z"/>
		<path class="st16" d="M855.9-151.7c1.1,3.1,0.9,6.3,1.1,9.5c0.4,6.9,0,13.9,0.7,20.8l1.6,16.9c0.6,5.7,1.2,11.4,1.7,17.2
			c0.7,8.6,1.6,17.2,3.1,25.6c1,6,1.7,12,2.1,18.1c0.5,6.6,1.3,13.2,2.1,19.8c1.3,10.5,3.2,21,3.8,31.6c0.6,10.3,0.9,20.6,1.4,30.9
			c0.4,8.9,1.1,17.9,1.7,26.8c0.3,4.5,0.2,9,0.4,13.4c0.4,8.9,1.3,17.7,1.6,26.5c0.1,2.3,0,4.6,0,7c0.1,1.1-0.2,2.2-0.7,3.2
			c-0.8-0.2-0.5-0.9-0.5-1.4c-0.1-2.2-0.1-4.5-0.1-6.7c0-7.4-0.8-14.8-1.3-22.2c-0.2-3.3-0.4-6.5-0.5-9.8
			c-0.2-7.8-0.7-15.6-1.2-23.5c-0.6-9.1-1.1-18.2-1.5-27.3c-0.2-7.8-0.7-15.5-1.4-23.2c-0.5-5.5-1.4-10.9-2.1-16.4
			c-0.9-7.4-2-14.7-2.7-22.1c-0.9-10.6-1.8-21.3-4.1-31.8c-1.1-5.7-1.8-11.5-2.2-17.3c-0.7-7.5-1.5-14.9-2.2-22.4
			c-0.4-4-0.7-8.1-1.1-12.2c-0.5-6.2-0.6-12.5-0.4-18.7C855.3-143.4,855.9-147.5,855.9-151.7z"/>
		<path class="st17" d="M849-4c1.8,5.8,3.2,11.7,4.2,17.7c1.2,6.8,2,13.6,2.7,20.4c0.2,2.3,0.3,4.6,0.5,6.9c0.3,5.5,0.4,11,0.7,16.5
			c0.5,10,0.5,20.1,1.3,30.2c0.1,1.4,0,2.7,0.1,4.1c0.2,8.1,0.3,16.1,0.6,24.2c0.8,16.8,1.1,33.5,0.7,50.3
			c-0.3,12.5-0.6,25.1-1,37.6c-0.4,13.1-0.1,26.2-0.3,39.3c0,0.9,0,1.8-0.2,2.6c-0.1,0.5,0,1.3-0.8,1.2c-0.6-0.1-0.4-0.8-0.4-1.2
			c0-2.6,0-5.1,0-7.7c0-11.5-0.2-23,0.1-34.5c0.3-14.8,0.5-29.6,1-44.3c0.4-11.4-0.2-22.7-0.4-34c-0.1-9.7-0.6-19.3-0.9-29
			s-0.7-19.3-1-29c-0.2-7-0.6-14-1-21.1c-0.6-11.3-1.8-22.6-3.6-33.8c-0.8-5-1.5-10.1-2.4-15.1C848.9-3.1,849-3.5,849-4z"/>
		<path class="st15" d="M874.3,405.2c-1.1-3.7-1.6-7.6-1.7-11.5c-0.3-6.1-0.2-12.1-0.5-18.2c-0.3-7.4,0.2-14.9,0.5-22.3
			c0.4-9.6,1.1-19.1,1.4-28.7c0.3-7.4,0.6-14.8,0.9-22.3c0.3-8.2,0.6-16.5,1-24.7c0.2-4.7,0.3-9.4,0.4-14.1l1.1-37.3
			c1,9.8,0.7,19.2,0.8,28.5c0.1,9-0.4,18.1-0.7,27.1c-0.4,12.1-0.9,24.1-1.4,36.2c-0.4,9.2-0.8,18.4-1.4,27.5
			c-0.8,12-1.6,23.9-1.2,35.9c0.2,7.2,0.1,14.4,0.8,21.6C874.3,403.5,874.3,404.2,874.3,405.2z"/>
		<path class="st17" d="M869.4,768.6c-0.6-8.7-0.7-17.5-0.2-26.2c0.6-15.3,0.5-30.5,0.2-45.8c-0.2-11.3-0.9-22.5-1.3-33.7
			c-0.2-4.5-0.8-9-0.1-13.6c0.5,5.5,1.1,10.9,1.5,16.4c1.7,20.1,1.7,40.2,1.5,60.3c-0.1,12.4-1,24.7-1.1,37.1
			C869.9,764.9,869.6,766.8,869.4,768.6z"/>
		<path class="st18" d="M865.8,58.7v-3.6c-0.1-9.1-0.9-18.2-1.3-27.3c-0.3-5.6-0.6-11.3-1.1-17c-0.5-6.8-1.2-13.5-1.7-20.3
			c-0.4-5.1-0.8-10.2-1.1-15.3C864.5-9.6,868.4,52,865.8,58.7z"/>
		<path class="st15" d="M880.8,491.5c1,10.7,1.5,21.4,1.9,32.1c0.3,7.3,0.3,14.5,0.2,21.8c-0.1,5.3-0.1,10.5-0.3,15.8
			c0.1,1.2-0.3,2.3-1.1,3.1C882,539.8,881,515.6,880.8,491.5z"/>
		<path class="st15" d="M448.1-181.3c2-1,4-1,5.8-1.2c4.9-0.5,9.9-0.8,14.8-1c7.3-0.3,14.5-0.7,21.8-0.5c10.5,0.3,21.1,0.6,31.6,1
			c9.9,0.4,19.8-0.2,29.7-0.5c7.4-0.2,14.9,0,22.3-0.2c9.6-0.3,19.3-0.9,28.9-1.7c6.2-0.6,12.4-0.8,18.7-1.1c10-0.4,20-0.8,29.9-1.1
			c5.8-0.2,11.7-0.2,17.5-0.4c6.9-0.3,13.7-0.4,20.6-0.3c-3.1,1.2-6.4,0.9-9.6,1.1c-7.3,0.5-14.7,0.9-22,1.2
			c-10.7,0.4-21.4,1.1-32,1.7c-3,0.2-5.9,0.3-8.8,0.4c-9.2,0.5-18.3,1.5-27.5,1.9c-8.1,0.4-16.3,0.7-24.4,0.7
			c-15.3,0.1-30.7,0.8-46,0.3c-8.5-0.3-17-1-25.6-1.2c-5.7-0.2-11.5-0.1-17.3,0.1C467.1-181.6,457.8-181.1,448.1-181.3z"/>
		<path class="st19" d="M503-201.4c-3.5,1.4-7.3,1.1-11,1.4c-7.9,0.5-15.7,1.8-23.5,2.7c-5.9,0.7-11.7,1.4-17.6,1.9
			c-12.3,1.1-24.6,1.5-36.9,1.2c-11-0.4-21.9-0.5-32.8-0.2c-6.3,0.1-12.6,0.9-18.9,1.2c-3.3,0.2-6.7,0.2-10,0.5
			c2.3-1,4.8-0.9,7.2-1.2c10.4-1,20.9-1.4,31.3-1.9c1.4-0.1,2.9,0,4.3,0c11.6,0,23.2,0.1,34.8-0.2c10.2-0.3,20.4-0.9,30.5-2.1
			c9-1,17.9-2.6,26.8-3.4c2.2-0.1,4.3,0,6.5,0.2C496.8-201.3,500-201.4,503-201.4z"/>
		<path class="st20" d="M637.7-198.7c1.2-0.6,2.6-0.8,3.9-0.7c14.9,0,29.7,0.2,44.6-0.2c10.3-0.2,20.6-0.4,30.9-0.4
			c13.1,0,26.2,0,39.3,0.2c3.9,0.1,7.8,0.3,11.7,0.7c-0.6,0-1.2,0-1.8,0c-19.4,0.6-38.8,0.3-58.3,0.6c-18.7,0.3-37.4,0.4-56.1,0.4
			C647.2-197.8,642.5-198.1,637.7-198.7z"/>
		<path class="st11" d="M330.7-176.1c14.3-1.6,62.5-4.4,70.2-3.4c-4.1,0.4-7.8,0.9-11.4,1.1c-10.3,0.7-20.5,1.2-30.8,2.1
			c-7.3,0.6-14.5,0.2-21.8,0.8C334.8-175.6,332.7-175.7,330.7-176.1z"/>
		<path class="st20" d="M586.5-193.9c-3.2,0.2-6.3,0.5-9.4,0.6c-4.6,0.2-9.3,0.3-13.9,0.6c-8.6,0.7-17.2,1-25.8,0.8
			c-1.6,0.1-3.1-0.3-4.5-1.2c2.1-0.2,4.1-0.5,6.2-0.6c2.6-0.1,5.3,0,7.9-0.1c12.3-0.5,24.6-1.1,36.9-0.9
			C584.8-194.7,585.7-194.5,586.5-193.9z"/>
		<path class="st21" d="M424.3-200.1c11.3-2.2,22.7-3,34.2-2.5C447.1-201.5,435.7-200.3,424.3-200.1z"/>
		<path class="st17" d="M565,881.4c-0.8,0.7-1.4,0.5-2,0.5c-10.4,0.4-20.8-0.1-31.1-1.3c-2.5-0.3-5.1-0.3-7.7-0.4
			c-5.3-0.2-10.4-2.2-15.7-1.6c-4.7,0.5-9.5-0.1-14.1,0.5c-8,1-16,0.4-23.9,1c-14.8,1-29.5,1.2-44.3,0.6
			c-11.3-0.3-22.5,0.1-33.8-0.4c-5.5-0.2-11-0.4-16.5-1.1c0.4-0.9,1.2-0.7,1.7-0.7c3.9,0,7.8-0.1,11.8-0.1c11.6,0,23.2,0,34.8,0.1
			c4.3,0,8.6,0.1,12.9,0.3c8.3,0.4,16.6-0.2,24.9-0.5c8.1-0.3,16.1-0.3,24.2-0.9c7.5-0.6,15-0.4,22.5-1.2c2.3-0.2,4.6,0,6.9,0.5
			c5.3,1.2,10.6,1.2,15.9,1.8c7.9,0.9,15.9,1.5,23.9,1.8C558.5,880.6,561.7,880.5,565,881.4z"/>
		<path class="st10" d="M758.4,871c-1.9,0.4-3.9,0.7-5.9,0.7c-9,0.6-18.1,0.4-26.9-1.8c-2.6-0.7-5.1-1.5-7.5-2.4
			c-5.1-1.8-10.5-2.2-15.8-1.2c-3.9,0.7-7.9,1.1-11.9,1.3c-8.1,0.4-16.2,1.2-24.3,2.2c-4.3,0.5-8.7,0.8-13.1,1
			c-18.1,0.8-36.3,0.7-54.4,0.5c-1.6-0.1-3.2-0.3-4.8-0.5c0.8-0.9,1.6-0.6,2.3-0.6c10.3-0.1,20.6,0,31-0.2
			c8.4-0.2,16.7-0.9,25.1-1.2c4.8-0.2,9.6-0.5,14.3-1.1c6-0.7,12.1-1.2,18.1-1.8c2.8-0.3,5.6-0.2,8.4-0.4c3.8-0.2,7.6-1,11.4-1.3
			c5.2-0.4,10.4,0.4,15.3,2.2c5.7,2,11.7,3.2,17.8,3.7c6,0.6,12,0.2,18,0.4C756.3,870.4,757.4,870.6,758.4,871z"/>
		<path class="st10" d="M360.8,853.8c0.4-0.7,1.1-0.5,1.7-0.5c4.5-0.2,8.9-0.6,13.4-0.5c12.4,0.1,24.8,0,37.2,0.1
			c4.6,0.1,9.2,0.5,13.7,1.1C424.7,855,365.1,854.9,360.8,853.8z"/>
		<path class="st21" d="M731.7,875.7c-6.7,3.4-37.6,2-43-0.9C703,876.6,717.3,877.3,731.7,875.7z"/>
		<path class="st21" d="M447.1,875.3c9.6-2.2,19.4-2,29.2-1.7C466.6,874.6,456.9,875.6,447.1,875.3z"/>
	</g>
</g>
</svg>
