<svg xmlns="http://www.w3.org/2000/svg" viewBox="0 0 128.01 149.11"><title>Asset 1</title><g id="Layer_2" data-name="Layer 2"><g id="Layer_1-2" data-name="Layer 1"><path d="M66.4,90.56c-.87,5.27-4.81,8.36-8.11,11.82-1.7,1.78-2.94,3.41-1.38,6.25a6.39,6.39,0,0,1-3.59-3.79,8.88,8.88,0,0,1-.21-5.71c.9-2.88,2-5.7,3.07-8.54l1.35-3.69c-1,.28-1.56.42-2.15.61-7.15,2.36-14.29,4.79-21.47,7.07-4.12,1.31-8.3,2.41-12.47,3.51-1.12.3-1.74.67-2,1.94-.47,2.46-1.23,4.86-1.81,7.31-.42,1.76-.2,2.1,1.54,2.67,1.1.37,2.23.63,3.31,1A2.19,2.19,0,0,1,24,113.79c-.32,1.87.44,2.74,2.36,2.9a47.17,47.17,0,0,1,5.34.6,29.82,29.82,0,0,0-3.27.58c-.45.13-1.07.63-1.11,1s.4,1,.73,1.41a1.32,1.32,0,0,0,.85.41c2.54.28,3,2.23,3.51,4.21a34.46,34.46,0,0,0,.91,3.35,2.79,2.79,0,0,0,3,2,12.09,12.09,0,0,0,4.47-1c8.91-4.72,17-10.45,23.07-18.72a26.94,26.94,0,0,0,4.09-9.32c.25-1,.57-1.94,1-3.18.53,2.91-3.5,20.24-5.46,23.73.39-2.79.74-5.34,1.1-7.91-.39,0-.48,0-.51,0-4,3.84-7.94,7.68-12,11.66,5,1.87,4.8,6.78,6.3,11.18,1.19-3.12,2.23-5.89,3.28-8.66l.41.15a81.56,81.56,0,0,1-6.83,20.91c.09-1.55.26-3.1.25-4.65,0-3.35,0-6.7-.25-10A9.51,9.51,0,0,0,54,131c-1.41-2.83-5.43-3.82-7.79-2.08A19.38,19.38,0,0,1,38,132.06a5.77,5.77,0,0,1-7-4.5c-.11-.57-.34-1.11-.45-1.68-.36-1.92-.89-3.53-3.28-3.91-1.38-.22-2.13-1.54-2.62-2.89a2.79,2.79,0,0,0-1-1.47,3.17,3.17,0,0,1-1.84-3.49,1.34,1.34,0,0,0-1.09-1.71c-1.17-.35-2.31-.81-3.49-1.12a2.36,2.36,0,0,1-1.92-2.72,11.48,11.48,0,0,1,.45-2.45c.66-2.34,1.38-4.67,2.13-7.19a8.39,8.39,0,0,1-5.61-2.55A60.34,60.34,0,0,1,2.06,85,11.94,11.94,0,0,1,.29,75.64,89.57,89.57,0,0,1,6.81,56.87a8.09,8.09,0,0,1,1-1.67c1.12-1.41,2.43-2.55,4.4-2.29a2.77,2.77,0,0,0,3.45-2.18c.07-.24.27-.45.33-.7,1-4.18,4.14-6.47,7.6-8.51,5.41-3.2,11.25-5.4,17.1-7.61a33.13,33.13,0,0,1,17.61-2c4.83.83,9.7,1.38,14.54,2.09a20.14,20.14,0,0,1,10,4.74c.54.44,1.1.87,1.77,1.42.49-.85.89-1.64,1.37-2.37,1.39-2.14,2.27-2.33,4.65-.85.75-2.59,1.47-5.1,2.19-7.6s1.37-5,2.17-7.42,1.46-2.82,4.2-2.4c.71-3.16,1.41-6.34,2.12-9.53.63-2.82,1.18-5.66,1.93-8.45.47-1.77,1.51-2,3-.88a11.74,11.74,0,0,1,4.24,7,22.23,22.23,0,0,1,.62,8.63,5.46,5.46,0,0,0,.12,2.28c.39-.51.75-1.05,1.17-1.54a18.85,18.85,0,0,1,2.19-2.43c2-1.65,4.41-1.18,5.36,1.22a18,18,0,0,1,1.41,6,53.66,53.66,0,0,1-.38,10.6,19.36,19.36,0,0,1-1.34,4.42c1.39-.56,2.65-1.19,4-1.58,2.52-.75,3.59-.09,4.17,2.48.66,3-.13,5.77-.91,8.56-1.7,6.12-4.76,11.39-10.22,15.26,2,1.13,2.14,2.67,1.71,4.53a25.11,25.11,0,0,1-6.54,12.09c-2,2-4.38,3.73-6.7,5.68a2.22,2.22,0,0,1,1.61,2.38,5.07,5.07,0,0,1-2.94,3.46c-3.24,1.55-5.85,2.92-9.18,4.4a11,11,0,0,0,5.78,2c-2.07,3.69-5.44,6.43-9.33,6.72,1.25.71,2.41,1.55,3.38,2.09.44.18.35.3,0,.38L87,107.07c.81,5.32,5.25,7.37,9.35,9.74l-.29.49c-2.29-1-4.66-1.78-6.83-3a5.44,5.44,0,0,1-2.13-2.66,12.86,12.86,0,0,0-6.71-7.09A15.78,15.78,0,0,1,71.9,94.06a2.89,2.89,0,0,0-2.38-2.4A25.81,25.81,0,0,1,66.4,90.56ZM17.54,53.23c1.07.17,1.69.28,2.32.37,7.46,1.09,15,2,22.37,3.3,7.81,1.35,15.56,3,23.33,4.58.7.14,1.26.32,1.91-.33,3.2-3.19,6.45-6.31,9.7-9.43,2.63-2.53,4.5-5.59,6.67-8.83-2.22-1.54-4.29-2.94-6.31-4.4a2,2,0,0,0-2.88.15A14.63,14.63,0,0,1,67.79,42l6.3-4.77-.16-.44a19,19,0,0,0-2.19-.55c-6.12-.89-12.24-1.86-18.38-2.54a21.27,21.27,0,0,0-5.89.66,24.19,24.19,0,0,0-3.69,1.14c-4.24,1.51-8.53,2.93-12.7,4.62a59.75,59.75,0,0,0-6.64,3.45,4,4,0,0,0-1.18.82c9.47.39,16.32.39,24.72,1.55-4.58.14-9.15.17-13.73.14-3.74,0-7.48-.12-11.22-.18a2.58,2.58,0,0,0-2.6,1.33C19.48,49.1,18.59,51,17.54,53.23Zm65.29,5.62s1.25-2,1.79-2.69a25.39,25.39,0,0,0,5-15.35c0-1-.2-2.41-1.25-2.78-.31-.13-.71,1.47-.94,2.16a35.64,35.64,0,0,1-9.1,14.17c-3,2.93-6.13,5.67-9.18,8.53C63.63,68,62.23,74.47,63.37,81.63a10.61,10.61,0,0,0,1.48,4.13c3,4.47,9.09,5.44,13.31,4.1,2.36-.74,3-3.48,1.44-4.75a10.73,10.73,0,0,0-.89-.62,51.22,51.22,0,0,0,6.15-1.1c2.79-.84,4.21-3.06,5.25-5.57.52-1.26.11-1.86-1.27-1.75a26.83,26.83,0,0,0-3.41.62c-.63.14-1.23.37-1.86.52s-1.1.21-1.65.32c6.22-3,11.83-7.33,12.34-14.3.09-1.49-6.74,2.12-9.93,3.44a18.76,18.76,0,0,1,2-2.15,32.76,32.76,0,0,0,6.89-9.26c.71-1.54,1.08-4.15.53-4.76s-1.56,0-2.78,1.13C88.42,54,82.83,58.85,82.83,58.85ZM100,58.49c1-2.67,1.86-5,2.64-7.33,1.35-4.1,2.76-8.2,2.51-12.61a13.79,13.79,0,0,0-.27-2.86c-.26-.92-.68-1-1.09-.25s-1,1.5-1.45,2.26c-1.42,2.31-1.78,2.42-3.21,4.72a29.06,29.06,0,0,1-2.36,3.16c.06-.22.12-.45.2-.68a47.78,47.78,0,0,0,2.69-18.81,7.05,7.05,0,0,0-1.87-4.82c-.61-.51-1,1.08-1.12,1.58-2.69,9.78-4.48,19.88-8,29.36,1.09-1,2.47-2.09,3.67-3s2.31-.43,2.79.94a4.31,4.31,0,0,1,.2,2.27,33,33,0,0,1-1.52,5c-.63,1.55-1.53,3-2.4,4.65l1.41-.55c2.22-.83,3.29,0,3,2.42a6.77,6.77,0,0,1-.35,1.3,24.27,24.27,0,0,1-5,9.06c2.07.33,1.77,1.47,1.31,3.22a5.93,5.93,0,0,1-.63,1.61c-2,3.26-3.62,6-7.83,6.44-.8.08-1,.12-1.75.14.88,1.71-.07,3.25-.82,4.82,3.65.13,6.75-.88,10-1.9a8.12,8.12,0,0,0,2.87-1.94c.91-1,.31-1.64-1-1.84-.57-.09-1.15-.2-1.77-.34.67-.26,1.16-.43,1.51-.55,4.37-1.66,8.24-5.62,10.66-10.43a10,10,0,0,0,.91-3.12c.15-1.26-.47-1.62-1.64-1.08a10,10,0,0,0-1.15.72l-4.49,2.8c2.13-2.7,4.06-5,5.82-7.43a28.84,28.84,0,0,0,4.9-10.42c.25-1.08.88-2.16.07-3.32C106.86,50.58,102.45,55.94,100,58.49ZM62.85,66.16c-4.43-.66-8.68-1.34-12.94-1.91-4.6-.62-9.21-1.1-13.8-1.72-5.61-.75-11.21-1.6-16.82-2.4-1.78-.26-3.57-.45-5.35-.72a1.68,1.68,0,0,0-2.08,1.24L7,74.48c0,.09.06.23.16.6.54,0,1.15.08,1.77.08,4.31-.06,8.63,0,12.94-.23,7.84-.43,15.67-1,23.51-1.6,4.62-.35,9.24-.8,13.86-1.22.8-.07,1.64,0,2-1.12C61.62,69.45,62.23,68,62.85,66.16Zm-2.46,7.31-5.66.47c-9.43.84-18.85,1.91-28.3,2.46-6.42.37-12.88,0-19.32-.05A15.94,15.94,0,0,1,5,76a88.4,88.4,0,0,1,5.66-15.8c.59-1.27,1.11-1.93,3-1.67,5.93.82,11.94,1,17.9,1.68,6.72.73,13.43,1.6,20.13,2.54,3.76.53,7.48,1.34,11.23,2,1.71.31,2.18,0,2.69-1.65-5.47-.83-11-1.64-16.42-2.49-8.78-1.36-17.56-2.77-26.35-4.09-3.31-.5-6.65-.86-10-1.2-1.16-.12-2.24,0-2.87,1.35A127.44,127.44,0,0,0,2.55,77a5,5,0,0,0,.52,4.26C6.2,86,9.33,90.72,13.57,94.58a5.64,5.64,0,0,0,6,1.53c8.25-2.53,16.58-4.8,24.83-7.33C50,87,55.61,85,61.4,83.09l-.31-1.27c-7.32,2.33-14.38,4.77-21.56,6.82-7,2-14.09,3.6-21.15,5.39-1.61.41-3.06.51-3.84-1.4-.13-.31-.6-.47-.85-.76-2.27-2.64-4.58-5.24-6.74-8-1.12-1.4-.72-2.08,1.12-2.38.38-.06.77-.07,1.16-.12,5-.54,10-1,15-1.64q10.17-1.22,20.34-2.53c4.85-.62,9.7-1.32,14.55-2C60,75.13,60.83,75,60.39,73.47Zm0,3.33c-17.63,2.38-34.94,5.3-53,5.69.71,1,1.06,1.61,1.5,2.13,2.17,2.55,4.34,5.1,6.59,7.59a2,2,0,0,0,1.63.52c3.4-.72,6.81-1.42,10.15-2.37q14.13-4,28.19-8.18c1.77-.53,3.46-1.35,5.31-2.08Zm43.69-25.39a25.94,25.94,0,0,0,3.3-2.09c5.72-5,10.26-10.81,11.55-18.63.65-4,1.27-7.9.21-11.86-.27-1-.36-2.54-1.6-2.57A3.78,3.78,0,0,0,115,17.87c-2.43,3.54-4.72,7.2-7,10.85-1,1.57-2.59,4.67-2.59,4.67s.11,0,.27.26a5,5,0,0,1,.72,3.08,54.85,54.85,0,0,1-.45,7.59C105.56,46.64,104.77,48.89,104.12,51.41Zm-.64,15.23c.09.08,4.53-2.58,6.59-3.76A33,33,0,0,0,117.41,57c4.28-4.47,7.36-9.58,8.29-15.8a6.45,6.45,0,0,0,0-1.91c-.2-1.49-.7-1.86-2.07-1.31a28.71,28.71,0,0,0-4.27,2.2,35.3,35.3,0,0,0-9,8.36c-.81,1-1.74,1.84-1.1,3.35a3,3,0,0,1-.08,1.71c-1,3.93-2.13,7.82-4.45,11.24C104.42,65.33,103.81,66.1,103.48,66.64ZM97.6,97.08A19.14,19.14,0,0,1,93,95.6a24.62,24.62,0,0,0-8-2.49c-3.94-.44-7.86-1-11.84-.42.75,7.56,14.21,13.47,18.29,12-2.06-1.17-5.65-2.79-6.93-5.18C89.37,101.69,93.57,100.69,97.6,97.08Zm2.78-59.66a18.5,18.5,0,0,0,5.16-7.8c.9-3,1.6-6.08,2.37-9.13a25.49,25.49,0,0,0,.5-12.21,12.34,12.34,0,0,0-3.23-6.44c-.62-.83-1.12,4.68-1.59,6.85-.8,3.71-1.59,7.41-2.32,11.13a20.84,20.84,0,0,0-.34,3.62c-.06,3.47,0,6.93-.09,10.4A34.14,34.14,0,0,1,100.38,37.42Zm15.07,26.84c-.26-2.07-4.68.65-8,2.66a3.16,3.16,0,0,0-1.58,2.22c-1.18,5.16-3.45,10.3-7.94,13.59-.12.09,3.6,0,4.89-.73,5.82-3.51,10.5-8.07,12.29-14.93A10.1,10.1,0,0,0,115.45,64.26ZM62.09,85.11a14.19,14.19,0,0,0-2.34.9,2.4,2.4,0,0,0-1,1.26c-.57,1.76-1,3.57-1.55,5.33a51.42,51.42,0,0,1-2.1,5.8c-.74,1.54-1.7,4.88.1,7.59-.3-2.08,2-4.61,3.13-5.77a28.46,28.46,0,0,0,5.55-7.85,4.54,4.54,0,0,0,0-4.43C63.42,87,62.78,86.13,62.09,85.11Zm26.33,6.18c5.14,1,14-1.93,15.63-5.15.56-1.35-5.22-1-7.83-.94C97,87.23,91.63,89.8,88.42,91.29Z"/><path d="M20.38,51.57a7.48,7.48,0,0,1,1.73-4.64c1,1,0,1.7-.24,2.41a18.18,18.18,0,0,1-1.07,2.39Z"/><path d="M80.2,42.73l-4-2.65.29-.45a10.28,10.28,0,0,1,4,2.74Z"/><path d="M10,70.86c.84-2.41,1.54-4.61,2.41-6.74.16-.4,1-.53,1.51-.78.19.49.64,1.07.52,1.47-.63,2.15-1.35,4.28-2.18,6.36a1.88,1.88,0,0,1-1.43.85C10.55,72,10.24,71.23,10,70.86Z"/><path d="M21.19,64.94c-.66,2.11-1.18,4-1.88,5.88-.16.4-1,.55-1.5.82-.23-.48-.74-1-.65-1.43a49.62,49.62,0,0,1,1.62-5.72,1.67,1.67,0,0,1,1.41-.84C20.61,63.75,20.89,64.52,21.19,64.94Z"/><path d="M27.58,65.72c-.75,1.82-1.41,3.54-2.19,5.2-.16.34-.78.46-1.19.68-.17-.43-.57-.92-.47-1.27a49.37,49.37,0,0,1,1.75-5,1.67,1.67,0,0,1,1.29-.74C27,64.53,27.28,65.25,27.58,65.72Z"/><path d="M29.24,70.5c.57-1.6,1-3,1.62-4.35.17-.37.88-.49,1.34-.73.19.51.62,1.07.51,1.5a25.87,25.87,0,0,1-1.4,4c-.16.36-.89.85-1.11.75C29.78,71.47,29.54,70.89,29.24,70.5Z"/><path d="M38.14,67.24c-.57,1.32-1,2.51-1.61,3.64-.15.29-.9.61-1.06.49-.34-.25-.73-.86-.64-1.18a22.47,22.47,0,0,1,1.44-3.56c.15-.3.84-.64,1.06-.53S37.86,66.82,38.14,67.24Z"/><path d="M42.8,67.48c-.53,1.09-.95,2.08-1.49,3-.15.25-.76.52-.94.41s-.69-.71-.63-1a14.26,14.26,0,0,1,1-3.06A1.38,1.38,0,0,1,42,66.33C42.32,66.43,42.51,67,42.8,67.48Z"/><path d="M49.45,67.27c.66.26.74.63.65.86a18.32,18.32,0,0,1-1.48,2.76c-.08.12-.66-.08-1-.13a9.71,9.71,0,0,1,.55-2A3.2,3.2,0,0,1,49.45,67.27Z"/><path d="M44.92,71.13c-.51-.2-.85-.61-.79-.81a13.66,13.66,0,0,1,1.07-2.86,2.11,2.11,0,0,1,1.27-.67,2.88,2.88,0,0,1,0,2A17,17,0,0,1,44.92,71.13Z"/><path d="M23.18,88.76a1,1,0,0,1-1.47,1,5.89,5.89,0,0,1-1.52-1.43c-.82-1-1.59-2-2.35-3-.45-.62-.71-1.4.09-1.82a1.78,1.78,0,0,1,1.65.25c1.24,1.46,2.34,3,3.47,4.59A1.44,1.44,0,0,1,23.18,88.76Z"/><path d="M17.73,89.63c-.09.14-.21.5-.45.6a.9.9,0,0,1-.85-.11c-1.32-1.47-2.61-3-3.84-4.52-.15-.19,0-.74.14-1a1,1,0,0,1,.84-.24C14.47,84.52,17.71,88.56,17.73,89.63Z"/><path d="M24.52,83.11c.94,0,3.49,3.9,3.1,4.78s-1,.89-1.53.27a25.08,25.08,0,0,1-2.38-3.5A1,1,0,0,1,24.52,83.11Z"/><path d="M29.47,82.38c.19.11.55.21.71.45a23.8,23.8,0,0,1,1.67,2.78,1.23,1.23,0,0,1-.3,1.13,1.22,1.22,0,0,1-1.14-.19,15.67,15.67,0,0,1-1.87-2.65A1,1,0,0,1,29.47,82.38Z"/><path d="M35.88,84.79a7.26,7.26,0,0,1-.78.53,25.66,25.66,0,0,1-1.91-2.49,1.79,1.79,0,0,1,.85-.75C34.76,82,36,83.66,35.88,84.79Z"/><path d="M39.25,84.42a6.47,6.47,0,0,1-1.08-1.36,3.88,3.88,0,0,1-.06-1.6c0-.1.39-.31.44-.27A5.65,5.65,0,0,1,40,82.53a3.08,3.08,0,0,1,0,1.57C40,84.19,39.64,84.25,39.25,84.42Z"/><path d="M43.28,80.61a6.34,6.34,0,0,1,.88,1.66c.06.32-.44.75-.68,1.14-.38-.42-.93-.79-1.09-1.28a2.06,2.06,0,0,1,0-1.26C42.55,80.84,43.09,80.63,43.28,80.61Z"/></g></g></svg>