<svg xmlns="http://www.w3.org/2000/svg" viewBox="0 0 319.68 242.64"><defs><style>.cls-1{fill:#0b0b0b;}.cls-2{fill:#cecccb;}.cls-3{fill:#fff9f1;}</style></defs><title>Asset 7</title><g id="Layer_2" data-name="Layer 2"><g id="Layer_3" data-name="Layer 3"><path class="cls-1" d="M319.68,235.2v1.2c-2.36,1.16-4.91,1-7.4.86a80.28,80.28,0,0,0-11-.17c-8.78.67-17.59.43-26.39.23-14.4-.32-28.79-.1-43.16.76-11,.65-21.95,1.35-32.92,2q-12.4.74-24.8,1.34c-6.35.31-12.7.53-19,.76-.36,0-1,.34-1.07-.33a18.36,18.36,0,0,0-1.14-3c-.86-2.68-3.19-4.37-4.78-6.64l1,7.46c.3,2.18-.06,2.65-2.1,2.8H127.67a18,18,0,0,1-4.51-.57c-1.19-.34-2.3-.91-2.43-2.31a32.9,32.9,0,0,0-2.36-8.56c-1.62-4.35-4.18-8.34-4.88-13.1-1.58,3.61-3.15,7.13-4.66,10.68a16.4,16.4,0,0,0-.92,4.79c-.22,2.06.36,4,.33,6.07,0,1.85-.22,2-2.11,1.95-5.82-.3-11.65-.62-17.48-.9-21.56-1-43.11-1.45-64.63.93-5.89.65-11.7-.17-17.47-1.34-2.65-.54-5.39-.93-6.55-3.94v-1.44c.4-.23.37-.68.46-1C1.32,230.12,2.23,226.57,3,223c1.21-5.8,3.83-11.18,4.33-17.22.87-10.55,2.3-21,3.41-31.58,1.09-10.37,2.06-20.76,2.74-31.17.69-10.57,1.57-21.14,1.76-31.73.25-14.52-.49-29-1.21-43.52-.74-15-.76-30-1-45a21.53,21.53,0,0,1,.48-5.37c.21-.93.33-2,1.21-2.53a19.48,19.48,0,0,1,5.27-2.45,89.9,89.9,0,0,1,15.3-2.07c14.61-.94,29.25-1.24,43.88-1.3,18.4-.07,36.8.09,55.2.17,1.09,0,1.85-.08,2.05-1.41A3.55,3.55,0,0,1,138,5.67,26.6,26.6,0,0,1,149.47.94C151.31.57,153.18.31,155,0h1.44c1.24.47,2.56.26,3.83.46,3.5.55,6.92,1.29,9.74,3.6,1.47,1.21,2.54,2.94,4.61,3.32a.78.78,0,0,1,.47.35,1.67,1.67,0,0,0,1.67.62c3.56-.16,7.11-.34,10.67-.41C207.74,7.54,228,6.45,248.26,6c14.9-.32,29.82-1.42,44.7.23,6.07.67,12.18,1.2,18,3.54a2.32,2.32,0,0,1,1.58,2.11c.57,3.79.62,7.62,1.16,11.43,1.32,9.31,1.53,18.72,1.7,28.11.27,14.48.14,29-.08,43.43q-.48,30.78.42,61.54c.23,8,.5,16,1,24,.63,9.44.56,18.91,1.39,28.36.76,8.62.84,17.32,1.33,26C319.46,234.91,319.42,235.13,319.68,235.2ZM310.81,96.3c.13-6.52.34-16,.49-25.39.31-19.43.41-38.86-2-58.2a1.15,1.15,0,0,0-1-1.14,26.63,26.63,0,0,0-6.15-.83c-6.09-.16-12.11-1.1-18.16-1.64-9.89-.89-19.75.1-29.6.64q-17.43.94-34.87,1.6c-14.15.53-28.31.87-42.46,1.27a2.45,2.45,0,0,0-2.24,1.15,14.49,14.49,0,0,1-8.2,5.87c-1.19.33-2.89-.15-3.48,1s-.34,2.58-.38,3.89c-.17,4.89-1.39,6-6.29,5.54a8.08,8.08,0,0,1-1.18-.2c-2.94-.67-3.61-1.41-4-4.4C151.18,24,151,22.5,150.9,21c-.05-.8-.33-1.17-1.18-1.26-1.75-.2-3.49-.46-5.2-.83-3-.66-5.78-1.75-7.3-4.68a1.39,1.39,0,0,0-1.49-.84c-2.84.06-5.68.07-8.52.07-28.39,0-56.79-.59-85.18.67a136,136,0,0,0-20.61,2.13c-1.77.35-3.14,1.55-4.79,2.08-.77.24-.93.5-.9,1.18.13,3.59.24,7.19.38,10.79.38,10.07.43,20.15,1.15,30.21.6,8.37,1.44,16.73,1.74,25.13q.78,21.64-.18,43.3c-.65,14.74-1.67,29.46-3.24,44.13-1.42,13.27-2.93,26.53-4.77,39.75-1.05,7.56-2.27,15.08-5.3,22.17-.47,1.1.36,1.18.93,1.3a43.7,43.7,0,0,0,5,.77,171.93,171.93,0,0,0,19.66,0c12.43-.49,24.85-1.1,37.29-1.22,10.89-.1,21.76.29,32.62.81,1.09.05,1.43-.23,1.49-1.31a20,20,0,0,1,.66-3.76c1.52-5.58,4.63-10.38,7.42-15.35a29.85,29.85,0,0,0,2.54-6.64c.2-.73.27-1.54,1.22-1.47s1,.84,1,1.63a12.7,12.7,0,0,0,.6,5.07,184.18,184.18,0,0,0,10.8,22,1.22,1.22,0,0,0,1.2.76q7.62,0,15.24,0c.8,0,.88-.33.89-1,0-2,0-4,.21-6,.35-3.42.92-6.8,2.8-9.81.42-.68.42-.43.65,0a40.4,40.4,0,0,1,1.66,4.1c1,2.89,1.69,5.91,4.2,8,1.38,1.18,1.84,3.52,3.53,4s3.72,0,5.6-.1c14.5-.58,29-1.44,43.48-2.37,13.37-.87,26.73-1.92,40.13-2.22,22.47-.5,45,0,67.42-.2,1,0,1.16-.34,1.07-1.24q-.4-4.42-.66-8.85-1.12-19.35-1.82-38.71c-.38-10.71-1.33-21.4-1.5-32.11C310.51,133.86,310.29,116.54,310.81,96.3ZM152.9,3.6a35.19,35.19,0,0,0-10,2.22,7.23,7.23,0,0,0-2.65,1.58c-.47.46-1,1-.93,1.62.34,4.11.93,5.73,5.51,6.82a40.76,40.76,0,0,0,6.39,1c2.11.15,4.23.18,6.34.39s4-.4,6.1-.43a10.16,10.16,0,0,0,8.07-4.5c1.46-1.95,1.21-3.13-.93-4.34C165.78,5.11,160.43,3.58,152.9,3.6Zm5,23.79c1.32.36,1.83-.52,1.87-2a29.81,29.81,0,0,1,.19-4.53c.12-.63-.35-.48-.67-.49-1.87-.07-3.75-.11-5.61-.2-.58,0-.89-.05-.66.73a21.85,21.85,0,0,1,.54,3.05c.42,3,.64,3.21,3.66,3.37Z"/><path class="cls-2" d="M127.68,242.64a.23.23,0,0,1,0-.18h19.22a.19.19,0,0,1,0,.18Z"/><path class="cls-3" d="M310.81,96.3c-.52,20.24-.3,37.56,0,54.88.17,10.71,1.12,21.4,1.5,32.11q.69,19.36,1.82,38.71.25,4.42.66,8.85c.09.9-.06,1.23-1.07,1.24-22.47.17-44.95-.3-67.42.2-13.4.3-26.76,1.35-40.13,2.22-14.49.93-29,1.79-43.48,2.37-1.88.08-3.9.62-5.6.1s-2.15-2.85-3.53-4c-2.51-2.14-3.2-5.16-4.2-8a40.4,40.4,0,0,0-1.66-4.1c-.23-.47-.23-.72-.65,0-1.88,3-2.45,6.39-2.8,9.81-.2,2-.18,4-.21,6,0,.67-.09,1-.89,1q-7.62,0-15.24,0a1.22,1.22,0,0,1-1.2-.76,184.18,184.18,0,0,1-10.8-22,12.7,12.7,0,0,1-.6-5.07c0-.79-.06-1.55-1-1.63s-1,.74-1.22,1.47a29.85,29.85,0,0,1-2.54,6.64c-2.79,5-5.9,9.77-7.42,15.35a20,20,0,0,0-.66,3.76c-.06,1.08-.4,1.36-1.49,1.31-10.86-.52-21.73-.91-32.62-.81-12.44.12-24.86.73-37.29,1.22a171.93,171.93,0,0,1-19.66,0,43.7,43.7,0,0,1-5-.77c-.57-.12-1.4-.2-.93-1.3,3-7.09,4.25-14.61,5.3-22.17,1.84-13.22,3.35-26.48,4.77-39.75,1.57-14.67,2.59-29.39,3.24-44.13q1-21.66.18-43.3c-.3-8.4-1.14-16.76-1.74-25.13-.72-10.06-.77-20.14-1.15-30.21-.14-3.6-.25-7.2-.38-10.79,0-.68.13-.94.9-1.18,1.65-.53,3-1.73,4.79-2.08A136,136,0,0,1,42,14.16c28.39-1.26,56.79-.66,85.18-.67,2.84,0,5.68,0,8.52-.07a1.39,1.39,0,0,1,1.49.84c1.52,2.93,4.3,4,7.3,4.68,1.71.37,3.45.63,5.2.83.85.09,1.13.46,1.18,1.26.11,1.47.28,2.94.46,4.41.38,3,1,3.73,4,4.4a8.08,8.08,0,0,0,1.18.2c4.9.44,6.12-.65,6.29-5.54,0-1.31-.18-2.82.38-3.89s2.29-.65,3.48-1a14.49,14.49,0,0,0,8.2-5.87,2.45,2.45,0,0,1,2.24-1.15c14.15-.4,28.31-.74,42.46-1.27q17.44-.66,34.87-1.6c9.85-.54,19.71-1.53,29.6-.64,6.05.54,12.07,1.48,18.16,1.64a26.63,26.63,0,0,1,6.15.83,1.15,1.15,0,0,1,1,1.14c2.38,19.34,2.28,38.77,2,58.2C311.15,80.35,310.94,89.78,310.81,96.3Z"/><path class="cls-2" d="M152.9,3.6c7.53,0,12.88,1.51,17.86,4.33,2.14,1.21,2.39,2.39.93,4.34a10.16,10.16,0,0,1-8.07,4.5c-2.05,0-4,.64-6.1.43s-4.23-.24-6.34-.39a40.76,40.76,0,0,1-6.39-1c-4.58-1.09-5.17-2.71-5.51-6.82-.05-.64.46-1.16.93-1.62a7.23,7.23,0,0,1,2.65-1.58A35.19,35.19,0,0,1,152.9,3.6Z"/><path class="cls-2" d="M157.91,27.39l-.68,0c-3-.16-3.24-.38-3.66-3.37a21.85,21.85,0,0,0-.54-3.05c-.23-.78.08-.76.66-.73,1.86.09,3.74.13,5.61.2.32,0,.79-.14.67.49a29.81,29.81,0,0,0-.19,4.53C159.74,26.87,159.23,27.75,157.91,27.39Z"/></g></g></svg>