<svg xmlns="http://www.w3.org/2000/svg" viewBox="0 0 326.4 244.32"><defs><style>.cls-1{fill:#0d0d0d;}.cls-2{fill:#cecccb;}.cls-3{fill:#fff9f1;}</style></defs><title>Asset 8</title><g id="Layer_2" data-name="Layer 2"><g id="Layer_3" data-name="Layer 3"><path class="cls-1" d="M246,244.14a161.15,161.15,0,0,1-18.75-1.5c-6-.85-11.91-1.78-17.87-2.66a160.74,160.74,0,0,0-20-1.58c-7.19-.16-14.39-.7-21.58-.05-5,.45-9.92,1.06-14.89,1.55-12.49,1.21-25,1.51-37.44-.34-9.5-1.4-19-3.08-28.45-4.5A208,208,0,0,0,52.14,233c-4.24.09-8.47.27-12.71.39-.25,0-.63.21-.74-.1s.19-.48.31-.72a10.26,10.26,0,0,0,1.33-4.89,61.85,61.85,0,0,1,.54-8.49c0-.25.24-.58-.07-.73-.09,0-.44.29-.56.5-1.36,2.53-2.76,5-4,7.61s-3.53,4.45-4.7,7.06c-.16.34-.49.36-.82.39-7.51.81-15,1.6-22.51,2.44-1.42.16-2.83.48-4.24.73-.11,0-.26.12-.34.08-1.44-.74-2.21.25-3,1.14-.14.14-.3.31-.5.13s0-.34.11-.51A98.71,98.71,0,0,0,8.7,217.9a429.15,429.15,0,0,0,13.51-55.64c1.71-10.34,2.53-20.78,3.25-31.23,1.24-18,2.11-36,2-54-.07-12.76-.53-25.51-1.6-38.22a98.61,98.61,0,0,0-2.19-12.72,13.1,13.1,0,0,1,.35-7c.56-1.68,1.5-2.19,3.2-1.74a4.27,4.27,0,0,0,1.17.19c17.2-.41,34.37,1.21,51.57,1,11-.11,21.91-.4,32.87-.25a144.75,144.75,0,0,0,28-2.77c1.55-.28,2-.78,2.42-2.37,1.6-6.45,6.1-10.17,12.33-12C157.26.72,159,.4,160.8,0h3.12L168,.19c6.58,1.13,12,3.68,13.64,11a17.23,17.23,0,0,1,.5,2c.07.77.45.86,1.11.82,8.57-.48,17.1.36,25.64.8,12.38.63,24.75,1.52,37.13,2,13.48.5,27,.63,40.43.29,5.7-.14,11.39.27,17.11-.18a52.85,52.85,0,0,1,18.5,1.73,2,2,0,0,1,1.55,1.87c1.2,8.33,1.09,16.73,1.62,25.1q.48,7.47.94,14.95,0,6.14,0,12.26-.37,6.09-.74,12.2c-.36,5.9-1,11.77-1.8,17.63-1.06,7.67-2.72,15.23-3.9,22.87a379.87,379.87,0,0,1-8.14,37.35c-3.8,14.58-9,28.73-13.41,43.1-3.14,10.13-8,19.52-12.43,29.09a12.7,12.7,0,0,1-6.07,6c-3.26,1.68-7,1.51-10.47,2.13a104.21,104.21,0,0,1-15.29,1ZM5.39,233.46c7.61-1.26,15.29-1.9,23-2.78a2.45,2.45,0,0,0,1.75-.83,44.83,44.83,0,0,0,7.32-10.32c1.15-2.46,2.38-4.88,3.6-7.3a55.36,55.36,0,0,1,2.83-5.8c-.07,1.2-.21,2.31-.18,3.43.13,6.14.33,12.29.44,18.44,0,1.07.25,1.36,1.37,1.31a237,237,0,0,1,54.87,3.82,201,201,0,0,0,26.11,3.41c8.15.39,16.29,0,24.44-.11,9.48-.17,18.93-1,28.41-1.11a212.17,212.17,0,0,1,36.84,2.12c6.26,1,12.54,2,18.87,2.52,10.42.92,20.86.45,31.29.38a24.84,24.84,0,0,0,11.28-2.6A2.45,2.45,0,0,0,279,235.5a8.94,8.94,0,0,0-2.65-6c-4.68-4.88-10.17-8.33-17-9.18a9.82,9.82,0,0,1-3.1-.87c-.81-.41-1.18-.84-.09-1.46a63.08,63.08,0,0,0,15.67-13.12c13.9-15.52,25.77-32.48,34.22-51.65,1.85-4.19,4.35-8.08,5.57-12.57,2.42-8.95,4.58-18,6.64-27a187.36,187.36,0,0,0,4.54-29c.69-10.27,0-20.55-.62-30.81s-1.38-20.43-2-30.65c-.08-1.49-.54-1.87-1.94-1.86-9.6,0-19.2-.09-28.8,0-15.4.13-30.8.24-46.18-.53-20.29-1-40.56-2.5-60.89-2.33a2.69,2.69,0,0,0-2.29,1c-2.2,3-5.4,4-8.81,4.49-1.23.18-1.42.7-1.25,1.72a22.51,22.51,0,0,1,.2,5.25,2.35,2.35,0,0,1-2.2,2.42,8.83,8.83,0,0,0-2.82.93c-2.1,1-3.39.47-3.86-1.8s-.85-4.62-1.2-6.94c-.09-.58-.22-.83-.85-.87a28.34,28.34,0,0,1-3.8-.44c-3.36-.66-6.86-1-9.22-4a.59.59,0,0,0-.61-.27c-3.46.74-7,0-10.49.61-6.61,1.13-13.36,1.26-20.06,1.71a467.56,467.56,0,0,1-55.4.27c-9.95-.51-19.88-1.08-29.85-1-1,0-1.76.16-1.76,1.27a59.45,59.45,0,0,0,.2,7.07c.58,4.83,1.34,9.65,1.76,14.51,1.39,16,1.72,32,1.6,48.07-.11,15.8-.93,31.58-2.1,47.33-.63,8.41-1.57,16.79-3,25.12a386.41,386.41,0,0,1-9,39.06c-2.82,10.29-5.59,20.61-12.35,29.24l-.1.26Zm276.2,1c.3-.52.57-.91.77-1.34,5.81-12.53,12.11-24.85,16.22-38.13,1.76-5.7,4.27-11.18,5.88-16.91,2.86-10.18,5.29-20.47,7.89-30.72a5.75,5.75,0,0,0,.14-.94c0-.14,0-.4-.1-.42-.25-.09-.3.17-.39.33s-.2.44-.31.65c-3.34,6.33-6,13-8.75,19.55-2.94,6.92-7.43,12.93-11.78,19-8.39,11.72-17.66,22.62-29.43,31.15-.6.44-1.19.91-1.78,1.37a5.29,5.29,0,0,0,2.24.55c8.21,1.79,14.75,5.87,18.56,13.64C281.07,233,281.28,233.68,281.59,234.49ZM164.83,4.25a26.83,26.83,0,0,0-7.23.82c-4.77,1.36-8.82,3.71-10.84,8.59a3,3,0,0,0,.23,3.06,10.13,10.13,0,0,0,6.06,4.39,43.59,43.59,0,0,0,14.89.62,21.24,21.24,0,0,0,7-1.59,6.41,6.41,0,0,0,3.47-8.09,10,10,0,0,0-5.32-6A17.25,17.25,0,0,0,164.83,4.25ZM168.25,30c-.11-1.34-.19-2.37-.27-3.41-.17-2.22-.16-2.2-2.45-1.94-.91.1-1.83.09-2.75.1-.52,0-.78,0-.63.71.37,1.71.59,3.46.92,5.18.38,2,.4,2,2.31,1.28a6.76,6.76,0,0,1,1.48-.44C168,31.33,168.37,30.72,168.25,30Z"/><path class="cls-2" d="M326.18,60.47h.22V72.72h-.21Q326.19,66.6,326.18,60.47Z"/><path class="cls-2" d="M253.94,244.14a.28.28,0,0,1,0,.18H246a.28.28,0,0,1,0-.18Z"/><path class="cls-2" d="M168,0a.31.31,0,0,1,0,.19L163.92,0Z"/><path class="cls-3" d="M5.18,233.18c6.76-8.63,9.53-19,12.35-29.24a386.41,386.41,0,0,0,9-39.06c1.38-8.33,2.32-16.71,3-25.12,1.17-15.75,2-31.53,2.1-47.33.12-16.05-.21-32.08-1.6-48.07-.42-4.86-1.18-9.68-1.76-14.51a59.45,59.45,0,0,1-.2-7.07c0-1.11.8-1.27,1.76-1.27,10,0,19.9.54,29.85,1a467.56,467.56,0,0,0,55.4-.27c6.7-.45,13.45-.58,20.06-1.71,3.52-.61,7,.13,10.49-.61a.59.59,0,0,1,.61.27c2.36,3,5.86,3.33,9.22,4a28.34,28.34,0,0,0,3.8.44c.63,0,.76.29.85.87.35,2.32.73,4.64,1.2,6.94s1.76,2.83,3.86,1.8a8.83,8.83,0,0,1,2.82-.93,2.35,2.35,0,0,0,2.2-2.42,22.51,22.51,0,0,0-.2-5.25c-.17-1,0-1.54,1.25-1.72,3.41-.49,6.61-1.51,8.81-4.49a2.69,2.69,0,0,1,2.29-1c20.33-.17,40.6,1.31,60.89,2.33,15.38.77,30.78.66,46.18.53,9.6-.07,19.2,0,28.8,0,1.4,0,1.86.37,1.94,1.86.6,10.22,1.38,20.43,2,30.65s1.31,20.54.62,30.81a187.36,187.36,0,0,1-4.54,29c-2.06,9-4.22,18-6.64,27-1.22,4.49-3.72,8.38-5.57,12.57-8.45,19.17-20.32,36.13-34.22,51.65A63.08,63.08,0,0,1,256.09,218c-1.09.62-.72,1.05.09,1.46a9.82,9.82,0,0,0,3.1.87c6.87.85,12.36,4.3,17,9.18a8.94,8.94,0,0,1,2.65,6,2.45,2.45,0,0,1-1.39,2.54,24.84,24.84,0,0,1-11.28,2.6c-10.43.07-20.87.54-31.29-.38-6.33-.56-12.61-1.53-18.87-2.52a212.17,212.17,0,0,0-36.84-2.12c-9.48.15-18.93.94-28.41,1.11-8.15.16-16.29.5-24.44.11a201,201,0,0,1-26.11-3.41,237,237,0,0,0-54.87-3.82c-1.12,0-1.35-.24-1.37-1.31-.11-6.15-.31-12.3-.44-18.44,0-1.12.11-2.23.18-3.43a55.36,55.36,0,0,0-2.83,5.8c-1.22,2.42-2.45,4.84-3.6,7.3a44.83,44.83,0,0,1-7.32,10.32,2.45,2.45,0,0,1-1.75.83c-7.66.88-15.34,1.52-22.95,2.78Z"/><path class="cls-2" d="M281.59,234.49c-.31-.81-.52-1.54-.84-2.22-3.81-7.77-10.35-11.85-18.56-13.64a5.29,5.29,0,0,1-2.24-.55c.59-.46,1.18-.93,1.78-1.37,11.77-8.53,21-19.43,29.43-31.15,4.35-6.07,8.84-12.08,11.78-19,2.79-6.57,5.41-13.22,8.75-19.55.11-.21.2-.43.31-.65s.14-.42.39-.33c.08,0,.11.28.1.42a5.75,5.75,0,0,1-.14.94c-2.6,10.25-5,20.54-7.89,30.72-1.61,5.73-4.12,11.21-5.88,16.91-4.11,13.28-10.41,25.6-16.22,38.13C282.16,233.58,281.89,234,281.59,234.49Z"/><path class="cls-2" d="M164.83,4.25A17.25,17.25,0,0,1,173.05,6a10,10,0,0,1,5.32,6,6.41,6.41,0,0,1-3.47,8.09,21.24,21.24,0,0,1-7,1.59,43.59,43.59,0,0,1-14.89-.62A10.13,10.13,0,0,1,147,16.72a3,3,0,0,1-.23-3.06c2-4.88,6.07-7.23,10.84-8.59A26.83,26.83,0,0,1,164.83,4.25Z"/><path class="cls-2" d="M168.25,30c.12.75-.25,1.36-1.39,1.48a6.76,6.76,0,0,0-1.48.44c-1.91.68-1.93.69-2.31-1.28-.33-1.72-.55-3.47-.92-5.18-.15-.69.11-.71.63-.71.92,0,1.84,0,2.75-.1,2.29-.26,2.28-.28,2.45,1.94C168.06,27.6,168.14,28.63,168.25,30Z"/><path class="cls-2" d="M5.39,233.46l-.31,0,.1-.26Z"/></g></g></svg>