<svg xmlns="http://www.w3.org/2000/svg" viewBox="0 0 322.86 236.4"><defs><style>.cls-1{fill:#cecccb;}.cls-2{fill:#0a0a0a;}.cls-3{fill:#fff9f1;}</style></defs><title>Asset 6</title><g id="Layer_2" data-name="Layer 2"><g id="Layer_3" data-name="Layer 3"><path class="cls-1" d="M322.46,45.35c.39,1,.09,2.13.21,3.18.05.47-.15,1,.19,1.39V61.44c-.34.42-.15.92-.19,1.39-.12,1.13.18,2.3-.21,3.42-.16-5.13.22-10.27,0-15.41C322.41,49,322.46,47.18,322.46,45.35Z"/><path class="cls-1" d="M292.63,236.21a1.21,1.21,0,0,1,0,.19H274.38a.66.66,0,0,1,0-.2Z"/><path class="cls-1" d="M322.41,69.84l.45.48V71c-.62.08-.38.58-.44.92s.11.87-.2,1.25A11.23,11.23,0,0,1,322.41,69.84Z"/><path class="cls-1" d="M161.34,0a1.48,1.48,0,0,1,0,.21h-4.58a1.41,1.41,0,0,1,0-.2Z"/><path class="cls-2" d="M156.77.2h4.58c1,.18,2,.37,3.06.54,4.34.75,6.62,3.13,7,7.53.1,1.22.43,1.44,1.62,1.35,25.78-1.8,51.59-2.31,77.43-2.23,2.87,0,5.74.2,8.62.07a5.19,5.19,0,0,1,5.25,2.84,11.87,11.87,0,0,0,2.27,2.44A103.48,103.48,0,0,0,278,22.41c-.38-2-.8-3.85-1.07-5.7s-1.08-3.83-1.44-5.79.18-2.69,2.2-2.49C283.44,9,289.2,9.62,295,10.2q9.3.95,18.56,2.24a1.7,1.7,0,0,0,.71,0c2.27-.67,3.3-.07,4,2.17A89.41,89.41,0,0,1,322,36.24a5.38,5.38,0,0,0,.19,2.15l.06,1.69a3.51,3.51,0,0,0,.11,1.76l0,.4a.39.39,0,0,0,0,.48l.06,2.63c0,1.83,0,3.66,0,5.49.2,5.14-.18,10.28,0,15.41,0,1.2,0,2.4,0,3.59a11.23,11.23,0,0,0-.19,3.37c0,.72,0,1.44-.05,2.15a9.64,9.64,0,0,0-.18,3.12l-.06,1.68a6.08,6.08,0,0,0-.18,2.4l-.07,1.92a5.57,5.57,0,0,0-.17,2.4l-.06,1.44a5,5,0,0,0-.19,2.16l-.06,1.44a4.66,4.66,0,0,0-.18,2.16L321,95.52a1.84,1.84,0,0,0-.14,1.2l0,.47v.26l-.06,1.19a2.38,2.38,0,0,0-.17,1.44l-.09,1.67a1.11,1.11,0,0,0-.13,1l-.09,1.68a2.38,2.38,0,0,0-.17,1.44c0,.56-.07,1.11-.1,1.66a1.21,1.21,0,0,0-.14,1l-.09,1.44a1.63,1.63,0,0,0-.16,1.2l-.05,1a2.55,2.55,0,0,0-.18,1.44c0,.4-.05.8-.07,1.2a1.85,1.85,0,0,0-.17,1.2c0,.4,0,.8-.07,1.2a2.57,2.57,0,0,0-.18,1.45l-.06,1a1.79,1.79,0,0,0-.18,1.2l-.05,1a2.08,2.08,0,0,0-.18,1.2c0,.4-.05.8-.07,1.2a2.4,2.4,0,0,0-.19,1.45l0,.71a2.07,2.07,0,0,0-.17,1.2c0,.4-.05.8-.08,1.2a1.35,1.35,0,0,0-.16,1l-.12,1.41a1.21,1.21,0,0,0-.15,1l-.07,1a1.17,1.17,0,0,0-.16,1l-.09,1.18a.74.74,0,0,0-.14.74l-.06,1a2.58,2.58,0,0,0-.2,1.45l-.08.94a1.15,1.15,0,0,0-.15,1l-.08,1a1.19,1.19,0,0,0-.16,1l-.08,1a.76.76,0,0,0-.14.71c-1.5,11.88-2.87,23.77-4.64,35.61-2.2,14.67-4.51,29.32-8.16,43.72-.53,2.08-1.2,4.13-1.78,6.2-.09.34-.59.81.26,1,.34.07.06.4,0,.57a22.11,22.11,0,0,0-2,4.46c-.2.63-.64.6-1.13.63l-5.86.29H274.37c-3.28-.13-6.55-.29-9.83-.38a1.24,1.24,0,0,1-1.28-1.64,7.34,7.34,0,0,0,0-3.2c-.41-2.43.19-4.87-.15-7.29a68.6,68.6,0,0,1-.69-8.5,16.83,16.83,0,0,0-1.65,4.45c-1.05,4.21-2.17,8.41-3.32,12.6a10.06,10.06,0,0,1-1.51,2.93c-.25.39-.55.27-.83.25q-10.35-.66-20.7-1.34-9.51-.62-19-1.26c-6.25-.43-12.51-.92-18.77-1.35q-8-.56-16-1c-8.22-.48-16.44-1-24.66-1.37-6.47-.32-12.94-.55-19.41-.78-12.35-.45-24.71-.71-37.07-.67-17.27.05-34.54.62-51.79,1.59-10,.56-20,1.14-30,2.18-4.17.44-8.32,1-12.48,1.58a16.44,16.44,0,0,1-3.71.05c-1.3-.14-1.62-.77-1.31-2,1.24-4.85,2.62-9.67,3.61-14.6.7-3.46,2-6.8,2.89-10.22,3.82-14,7.25-28.07,9.7-42.38.79-4.62,1.07-9.28,1.47-13.94q.95-11.3,1.84-22.58.79-10.11,1.52-20.21c.39-5.58.71-11.17,1.1-16.75.47-6.74-.44-13.42-.75-20.12-.17-3.72-.57-7.42-.72-11.13-.14-3.49-1.08-6.86-1.42-10.31-.81-8.27-2.11-16.5-1.83-24.85a11.48,11.48,0,0,1,.09-1.44c.52-3.54,1.5-4.51,5.27-5.2a76.06,76.06,0,0,1,11.57-1c9-.23,18.07,0,27.11.12,10.24.15,20.47-.14,30.69-.94q13.56-1.06,27.14-2.06c5-.37,10-.69,15-1a2.11,2.11,0,0,0,1.74-1c2.82-3.9,6.79-6.31,11-8.51A25,25,0,0,1,156.77.2ZM265.31,197.42a1.9,1.9,0,0,1,.06,1.49,7.6,7.6,0,0,0-.3,2.37c.6,5.52.38,11.09,1.16,16.61.54,3.83.64,7.72,1.75,11.47.19.64.39,1,1.18,1,8.72.19,17.43.39,26.15.09a1.33,1.33,0,0,0,1.46-1.15,178.76,178.76,0,0,0,4.71-18.8c3.53-17.6,6-35.37,8.1-53.19,1.88-15.8,3.71-31.6,5.14-47.45,1.19-13.06,2.16-26.14,2.74-39.24.58-13.34.94-26.7-.17-40a80.13,80.13,0,0,0-1.83-12.32A1.48,1.48,0,0,0,314,16.93c-3.84-.48-7.68-1.07-11.52-1.58-4.82-.64-9.65-1.25-14.48-1.86l-7.63-1a63.21,63.21,0,0,0,4.43,15,36.55,36.55,0,0,1,2.72,7.12,19.55,19.55,0,0,1,.66,5,26.92,26.92,0,0,1-1.79-3.23,29,29,0,0,0-7.09-9.28,34.27,34.27,0,0,0-9.59-5.77,7.31,7.31,0,0,1-3.07-1.79,64,64,0,0,1-5.31-6.33A2.33,2.33,0,0,0,259,12.13c-8.59.08-17.19.11-25.79.15-20.48.11-40.95.71-61.39,2.13a4.7,4.7,0,0,0-3.53,1.36A8,8,0,0,1,166.43,17a31.59,31.59,0,0,1-6.64,2.67c-.36.11-.94,0-.75.78a24.85,24.85,0,0,1,.43,6.67c-.06,1.83-.68,2.7-2.46,3.07-2.76.57-3.89,0-5-2.55a48.45,48.45,0,0,1-1.71-5.1c-.24-.84-.58-1-1.41-.94a29.77,29.77,0,0,1-8.84-.31c-2.28-.46-4.61-1-5.65-3.47a1.08,1.08,0,0,0-1.32-.77c-11.17.77-22.35,1.48-33.52,2.28q-18.39,1.3-36.81.81c-10.27-.3-20.55-.77-30.82-.31-3.12.15-6.41-.43-9.29,1.63-.56.4-.69.61-.68,1.19.26,11.37,1.87,22.63,2.63,34S26.17,79.54,25.78,91c-.47,13.7-1,27.4-2.17,41.07-.64,7.37-1.37,14.72-2.27,22.06q-1.71,14-4.47,27.9A310.44,310.44,0,0,1,6.35,222.43c-.79,2.31-1.65,4.6-2.52,7l1.42-.28c7.91-1.42,15.89-2.33,23.88-3.06q29.82-2.74,59.76-3.52c17.6-.45,35.19-.18,52.78.42q17.09.58,34.15,1.57c7,.4,14,.85,21,1.3,6.54.43,13.08.9,19.62,1.34,5.34.36,10.69.73,16,1.07,6.86.45,13.73.86,20.59,1.31.76,0,1.06-.15,1.28-1,1.4-5.15,1.9-10.58,4.32-15.41,1.85-3.69,3.23-7.54,4.78-11.35C264,200.48,264.61,199.06,265.31,197.42ZM159.2,3.07a18.35,18.35,0,0,0-5.54.69,24.43,24.43,0,0,0-13,7.45,8.15,8.15,0,0,0-2.49,4.67c-.07.47,0,.65.46.74,2.76.55,5.44,1.64,8.33,1.31a16.07,16.07,0,0,1,2.9-.32,21.42,21.42,0,0,0,7.41-.86,26.43,26.43,0,0,0,7.84-2.84,4.86,4.86,0,0,0,1.32-7.21C164.59,4.36,162.44,2.41,159.2,3.07Zm-3.86,25.19a4.05,4.05,0,0,0,1.92-.54,1.17,1.17,0,0,0,.66-1.28,25.79,25.79,0,0,0-1.19-4.23,2.64,2.64,0,0,0-.9-1.09c-.6-.47-1.19-.23-1.8-.07s-.25.72-.3,1.08a20.8,20.8,0,0,0,.35,5.1C154.2,28.08,154.59,28.31,155.34,28.26Z"/><path class="cls-1" d="M322.17,38.39a5.38,5.38,0,0,1-.19-2.15A4,4,0,0,1,322.17,38.39Z"/><path class="cls-1" d="M322.34,41.84a3.51,3.51,0,0,1-.11-1.76A2.66,2.66,0,0,1,322.34,41.84Z"/><path class="cls-1" d="M322.4,42.72a.39.39,0,0,1,0-.48C322.61,42.38,322.63,42.54,322.4,42.72Z"/><path class="cls-1" d="M322,78.48a9.64,9.64,0,0,1,.18-3.12C322.59,76.43,322.15,77.45,322,78.48Z"/><path class="cls-1" d="M321.75,82.56a6.08,6.08,0,0,1,.18-2.4C322.31,81,321.89,81.77,321.75,82.56Z"/><path class="cls-1" d="M321.51,86.88a5.57,5.57,0,0,1,.17-2.4C322.07,85.32,321.65,86.09,321.51,86.88Z"/><path class="cls-1" d="M321.26,90.48a5,5,0,0,1,.19-2.16A3.34,3.34,0,0,1,321.26,90.48Z"/><path class="cls-1" d="M321,94.08a4.66,4.66,0,0,1,.18-2.16A3.34,3.34,0,0,1,321,94.08Z"/><path class="cls-1" d="M320.07,105.84a2.38,2.38,0,0,1,.17-1.44A1.63,1.63,0,0,1,320.07,105.84Z"/><path class="cls-1" d="M319.35,113.52a2.55,2.55,0,0,1,.18-1.44A1.66,1.66,0,0,1,319.35,113.52Z"/><path class="cls-1" d="M320.55,100.08a2.38,2.38,0,0,1,.17-1.44A1.63,1.63,0,0,1,320.55,100.08Z"/><path class="cls-1" d="M318.86,118.57a2.57,2.57,0,0,1,.18-1.45A1.62,1.62,0,0,1,318.86,118.57Z"/><path class="cls-1" d="M318.13,125.53a2.4,2.4,0,0,1,.19-1.45A1.63,1.63,0,0,1,318.13,125.53Z"/><path class="cls-1" d="M316.69,138.25a2.58,2.58,0,0,1,.2-1.45A1.65,1.65,0,0,1,316.69,138.25Z"/><path class="cls-1" d="M320.82,96.72a1.84,1.84,0,0,1,.14-1.2C321.29,96,321,96.33,320.82,96.72Z"/><path class="cls-1" d="M317.92,127.44a2.07,2.07,0,0,1,.17-1.2C318.39,126.7,318.09,127.06,317.92,127.44Z"/><path class="cls-1" d="M319.11,115.92a1.85,1.85,0,0,1,.17-1.2C319.6,115.18,319.27,115.54,319.11,115.92Z"/><path class="cls-1" d="M318.62,120.72a1.79,1.79,0,0,1,.18-1.2C319.12,120,318.79,120.34,318.62,120.72Z"/><path class="cls-1" d="M318.39,122.88a2.08,2.08,0,0,1,.18-1.2C318.87,122.14,318.57,122.5,318.39,122.88Z"/><path class="cls-1" d="M317.68,129.6a1.35,1.35,0,0,1,.16-1C318.17,129,317.87,129.31,317.68,129.6Z"/><path class="cls-1" d="M319.58,111.12a1.63,1.63,0,0,1,.16-1.2A1.42,1.42,0,0,1,319.58,111.12Z"/><path class="cls-1" d="M320.33,102.72a1.11,1.11,0,0,1,.13-1A1,1,0,0,1,320.33,102.72Z"/><path class="cls-1" d="M317.41,132a1.21,1.21,0,0,1,.15-1A1,1,0,0,1,317.41,132Z"/><path class="cls-1" d="M317.18,133.92a1.17,1.17,0,0,1,.16-1A1,1,0,0,1,317.18,133.92Z"/><path class="cls-1" d="M319.83,108.48a1.21,1.21,0,0,1,.14-1A1,1,0,0,1,319.83,108.48Z"/><path class="cls-1" d="M316.22,142.09a1.19,1.19,0,0,1,.16-1A1,1,0,0,1,316.22,142.09Z"/><path class="cls-1" d="M316.46,140.16a1.15,1.15,0,0,1,.15-1A1,1,0,0,1,316.46,140.16Z"/><path class="cls-1" d="M317,135.84a.74.74,0,0,1,.14-.74A.66.66,0,0,1,317,135.84Z"/><path class="cls-1" d="M316,143.76a.76.76,0,0,1,.14-.71A.63.63,0,0,1,316,143.76Z"/><path class="cls-1" d="M320.78,97.45v-.26C321,97.29,320.94,97.37,320.78,97.45Z"/><path class="cls-3" d="M265.31,197.42c-.7,1.64-1.33,3.06-1.92,4.49-1.55,3.81-2.93,7.66-4.78,11.35-2.42,4.83-2.92,10.26-4.32,15.41-.22.8-.52,1-1.28,1-6.86-.45-13.73-.86-20.59-1.31-5.34-.34-10.69-.71-16-1.07-6.54-.44-13.08-.91-19.62-1.34-7-.45-14-.9-21-1.3q-17.07-1-34.15-1.57c-17.59-.6-35.18-.87-52.78-.42q-29.94.76-59.76,3.52c-8,.73-16,1.64-23.88,3.06l-1.42.28c.87-2.44,1.73-4.73,2.52-7a310.44,310.44,0,0,0,10.52-40.36q2.74-13.87,4.47-27.9c.9-7.34,1.63-14.69,2.27-22.06,1.19-13.67,1.7-27.37,2.17-41.07.39-11.5-.39-22.94-1.15-34.39s-2.37-22.59-2.63-34c0-.58.12-.79.68-1.19C25.56,19.44,28.85,20,32,19.87c10.27-.46,20.55,0,30.82.31q18.43.53,36.81-.81c11.17-.8,22.35-1.51,33.52-2.28a1.08,1.08,0,0,1,1.32.77c1,2.48,3.37,3,5.65,3.47a29.77,29.77,0,0,0,8.84.31c.83-.09,1.17.1,1.41.94a48.45,48.45,0,0,0,1.71,5.1c1.07,2.59,2.2,3.12,5,2.55,1.78-.37,2.4-1.24,2.46-3.07a24.85,24.85,0,0,0-.43-6.67c-.19-.74.39-.67.75-.78A31.59,31.59,0,0,0,166.43,17a8,8,0,0,0,1.88-1.27,4.7,4.7,0,0,1,3.53-1.36c20.44-1.42,40.91-2,61.39-2.13,8.6,0,17.2-.07,25.79-.15a2.33,2.33,0,0,1,2.28,1.14,64,64,0,0,0,5.31,6.33,7.31,7.31,0,0,0,3.07,1.79,34.27,34.27,0,0,1,9.59,5.77,29,29,0,0,1,7.09,9.28,26.92,26.92,0,0,0,1.79,3.23,19.55,19.55,0,0,0-.66-5,36.55,36.55,0,0,0-2.72-7.12,63.21,63.21,0,0,1-4.43-15l7.63,1c4.83.61,9.66,1.22,14.48,1.86,3.84.51,7.68,1.1,11.52,1.58a1.48,1.48,0,0,1,1.49,1.32,80.13,80.13,0,0,1,1.83,12.32c1.11,13.34.75,26.7.17,40-.58,13.1-1.55,26.18-2.74,39.24-1.43,15.85-3.26,31.65-5.14,47.45-2.11,17.82-4.57,35.59-8.1,53.19a178.76,178.76,0,0,1-4.71,18.8,1.33,1.33,0,0,1-1.46,1.15c-8.72.3-17.43.1-26.15-.09-.79,0-1-.35-1.18-1-1.11-3.75-1.21-7.64-1.75-11.47-.78-5.52-.56-11.09-1.16-16.61a7.6,7.6,0,0,1,.3-2.37A1.9,1.9,0,0,0,265.31,197.42Z"/><path class="cls-1" d="M159.2,3.07c3.24-.66,5.39,1.29,7.27,3.63a4.86,4.86,0,0,1-1.32,7.21,26.43,26.43,0,0,1-7.84,2.84,21.42,21.42,0,0,1-7.41.86,16.07,16.07,0,0,0-2.9.32c-2.89.33-5.57-.76-8.33-1.31-.45-.09-.53-.27-.46-.74a8.15,8.15,0,0,1,2.49-4.67,24.43,24.43,0,0,1,13-7.45A18.35,18.35,0,0,1,159.2,3.07Z"/><path class="cls-1" d="M155.34,28.26c-.75,0-1.14-.18-1.26-1a20.8,20.8,0,0,1-.35-5.1c.05-.36-.42-.89.3-1.08s1.2-.4,1.8.07a2.64,2.64,0,0,1,.9,1.09,25.79,25.79,0,0,1,1.19,4.23,1.17,1.17,0,0,1-.66,1.28A4.05,4.05,0,0,1,155.34,28.26Z"/></g></g></svg>