<svg xmlns="http://www.w3.org/2000/svg" viewBox="0 0 587.02 199.64"><defs><style>.cls-1{fill:#0a0807;}.cls-2{fill:#8d6952;}.cls-3{fill:#725442;}.cls-4{fill:#8a6650;}.cls-5{fill:#18100b;}.cls-6{fill:#1c140e;}.cls-7{fill:#221812;}.cls-8{fill:#19110c;}.cls-9{fill:#231913;}.cls-10{fill:#2b1f18;}.cls-11{fill:#2e221a;}.cls-12{fill:#433227;}.cls-13{fill:#30241b;}.cls-14{fill:#5e4536;}.cls-15{fill:#5b4335;}</style></defs><title>Asset 1</title><g id="Layer_2" data-name="Layer 2"><g id="Layer_1-2" data-name="Layer 1"><path class="cls-1" d="M432.64,2c27.29.07,52.5,1.35,77.73,1.85,14,.27,28.08,0,42.11.3,2.46,0,4.93-.48,7.4-.65a83,83,0,0,1,13.29.58,8.51,8.51,0,0,1,7.14,4.23c2.18,3.67,2.57,7.57,3.14,11.54.28,2,.35,4,.7,5.95.42,2.38-.81,4.21-1.78,6.14-.32.64-.37.83.43.87,1.88.1,2.05,1.31,2.18,2.94.85,10.68,1.42,21.38,1.78,32.09.48,14.36.23,28.71-.27,43.06-.29,8.4-.7,16.78-1.35,25.15-.54,7-.55,14.1-2.19,21a46.53,46.53,0,0,1-10.51,20.68,48.34,48.34,0,0,1-5.9,5.56c-1.23,1-3.38,1-4.8,1.1-31,1.37-61.4,2.46-92.39,3.17-29.4.67-58.8.5-88.2.24-17.17-.15-34.28,1.21-51.42,1.63q-20.46.49-40.92.53-36.36.1-72.7.89c-9,.21-18.08.34-27.1.91-7.69.48-15.36,1.35-23.07,1.7-8.47.38-16.94.63-25.42.7-20.49.16-40.91,1.75-61.37,2.67-13.94.63-25.62,2.14-39.58,2.15-5.33.3-8.5.23-15.08.66-1.37.1-6.75,0-8.92-1-1.11-.71-2.11-2.16-4.61-5.34a60.66,60.66,0,0,1-7.33-14.45,2.86,2.86,0,0,0-.4-1c-4-3.9-3.27-9-3-13.69.27-5.21.79-10.42.73-15.65a4.41,4.41,0,0,0,0-.72C.58,145.11.65,145,3.09,144a37.4,37.4,0,0,1,7.15-2.27c.3-.05.79,0,.78-.38s-.5-.23-.78-.26c-2.54-.32-5.08-.58-7.61-.94-1.33-.18-2-.84-1.43-2.32.37-.88,0-1.82.06-2.73Q2,117.37,2.77,99.69a6.13,6.13,0,0,0-.29-3c-.46-1,.59-1.73.65-2.71.42-7.54.81-15.09,1.41-22.62.89-11.07,1.63-22.16,4-33.06a26.66,26.66,0,0,1,3.85-9,8.54,8.54,0,0,1,3.88-2.93,96.74,96.74,0,0,1,26.9-7.8c14.3-2,28.67-3.22,43-4.68,11.65-1.19,23.34-2,35-2.71,15.4-1,30.81-1.86,46.21-2.84Q188,7,208.59,5.57c17.36-1.21,34.72-2.21,52.1-2.89q23.19-.9,46.38-1.87c23.18-.95,46.37-1,69.57-.43C396,.89,415.33,1.51,432.64,2ZM542.75,109.73l9,.5c4.86.26,9.73.8,14.59.68,4.43-.1,8.83-.43,13.23.32.65.11,1.05,0,1.06-.8,0-2.28.1-4.56.25-6.83.06-1-.26-1.29-1.26-1.26-4.64.12-9-1.32-13.37-2.63,4.57-.37,9.12-.67,13.69-.88.88,0,1.15-.28,1.16-1.17,0-3.92.16-7.83.2-11.75.08-8-.13-16-.35-24q-.36-12.33-1.24-24.65c-.06-.83-.37-1.08-1.14-1.16-4.55-.48-9-1.65-13.56-2.09-2.88-.27-5.7-1.43-8.62-1-4.39.59-8.77.3-13.15.18a19,19,0,0,1-2.24-.34c5.64-1.32,10.76-2.72,15.95-3.67,7.05-1.3,14-3.37,21.24-3.32.72,0,.75-.41.71-.93-.23-3.38-.39-6.78-.71-10.15-.47-5-2.25-6.47-5.54-6.88a91.87,91.87,0,0,0-10.88-.55c-4.88,0-9.69,1.15-14.58.95-2.91-.13-5.8.34-8.72.32-3.62,0-7.25.48-10.88.54-9,.13-18.07.16-27.11-.07-12.15-.3-24.28-.9-36.43-1.23-9.19-.25-18.38-.38-27.58-.51-7.23-.09-14.47-.18-21.7-.45-10.78-.39-21.57-.69-32.36-1-14-.46-28-.58-41.94-.52-13.8.06-27.58.5-41.36,1-7,.27-14.05.48-21.08.78q-17.3.75-34.59,1.6c-5.11.24-10.22.47-15.32.8-12,.75-24,1.58-36,2.35-10.17.65-20.33,1.3-30.5,1.88-7,.41-14,.64-21.06,1-12.56.72-25.13,1.29-37.67,2.33-8,.66-16,1.23-24,2-10.57,1-21.15,1.92-31.69,3.26a113.51,113.51,0,0,0-28.73,7.16,5.12,5.12,0,0,0-3.37,3.93c-.92,3.84-1.55,7.75-2.85,11.5-.87,2.5-.85,2.51,1.75,2.47,3.59-.07,7.22.28,10.77,0,7-.48,14-1.14,21-1.29,3.47-.07,6.94-.32,10.42-.37,4.33-.07,8.67,0,13,0A11.63,11.63,0,0,0,66,46c-10.21,1.59-20.48,2.83-30.78,3.43-8,.47-15.65,2.94-23.49,4.26a1,1,0,0,0-.91,1c-.11,2-.32,4.06-.47,6.09C9.91,66,9.5,71.18,9.16,76.37c-.36,5.54-.65,11.08-1,16.62,0,.47-.12,1.06.65,1,3.05-.27,6,.51,9.07.53,9.44.06,18.86-.42,28.29-.68s18.64-.19,28,.25a30.38,30.38,0,0,1,6.39.47c-5,.55-10.12.33-15.18.51-10.75.38-21.5.47-32.25.87-3.41.12-6.86-.2-10.25.67-4.75,1.23-9.39,2.9-14.32,3.33-.53,0-.63.34-.65.8Q7.05,118.39,6.19,136c0,.88.37,1.07,1.12,1.16,7.65,1,15.3,1.94,23,2.88,3.57.45,7.15.81,10.73,1.21A47.87,47.87,0,0,1,27.65,143a44.51,44.51,0,0,0-5.14-.28c-5.6.42-10.78,2.4-15.89,4.59-.45.19-.83.4-.87,1-.12,2-.41,4-.43,6-.07,5.32,0,10.64,0,16,0,2.35,0,2.37,2.41,2.44,5.11.15,10.22,0,15.33-.2q17-.78,34-1.44c8.07-.31,16.14-.47,24.21-.75,11.22-.37,22.44-.79,33.66-1.2,8.54-.31,17.08-.65,25.63-1,9.34-.33,18.68-.62,28-.95,9-.3,18-.65,26.95-.94,8.46-.27,16.93-.49,25.4-.73s17.17-.5,25.76-.71q12.22-.3,24.45-.51,13.5-.25,27-.44,14.1-.18,28.19-.25,8.88-.06,17.76,0c19.35,0,38.7,0,58.06.07,7.55,0,15.1.26,22.66.36s15,.1,22.55.25c9.15.18,18.3.48,27.45.7,10.94.26,21.89.52,32.83.72,12.68.22,25.35-.14,38-.2,3.44,0,6.91.27,10.29-.39,5.17-1,10.28-2.29,15.4-3.53,1.19-.29,2.7-.53,3.33-1.51,1.4-2.2,3.08-4.35,3.3-7.1.31-3.9.52-7.81.78-11.71q.76-11.53,1.56-23.07c.05-.63-.28-.69-.78-.76-2.48-.36-5-.75-7.45-1.14C562.16,114.74,552.54,111.94,542.75,109.73ZM15.84,177.93c-2.28,0-4.56,0-6.84,0-.61,0-.93.05-.59.78a74.23,74.23,0,0,0,7.1,12.9c.39.54.65,1.31,1.34,1.48,3.76.9,7.54,2,11.41,1.83,6.5-.33,13-1.12,19.46-1.5,10-.58,20-1,30-1.45,6.9-.3,13.81-.52,20.72-.72q14.09-.41,28.16-.74c7-.16,14-.27,21-.69,9.48-.58,19-1,28.46-1.46q11.61-.54,23.22-.95,12.1-.42,24.2-.72,12.53-.3,25.06-.47Q265.26,186,282,186c10.31,0,20.62.1,30.92-.1,7.5-.15,15-.82,22.49-1.07,8-.28,16.06-.42,24.09-.49q24.66-.19,49.31-.25c16,0,31.91-.11,47.86-.44q16.43-.33,32.84-.81c6.07-.18,12.14-.44,18.2-.67,10.26-.4,20.52-.83,30.77-1.21,7.51-.28,15-.47,22.52-.82,2.14-.1,4.52-.47,5.81-2.35,2.42-3.52,4.5-7.27,6.72-10.93a2.17,2.17,0,0,0,.14-.53,5.25,5.25,0,0,0-.57.05c-1.48.32-3,.69-4.44,1-5.79,1.14-11.5,2.67-17.44,3-2.84.18-5.69-.15-8.48.14-7.53.76-15.06,1.12-22.61,1.2-10.24.11-20.47,0-30.7-.39-8.55-.33-17.1-.53-25.65-.73s-17.27-.36-25.9-.48q-12.54-.18-25.07-.25c-11.63-.1-23.26-.24-34.89-.24-21.48,0-42.95-.2-64.43.12-12.83.18-25.66.19-38.49.49-7.27.17-14.54.32-21.82.5l-27.92.72q-12.52.33-25,.71-18.51.57-37,1.2-10.78.34-21.56.74l-27.07,1c-7.47.25-14.93.51-22.4.71-10.63.27-21.26.48-31.89.72-4.87.11-9.75.16-14.62.34C35.72,177.17,25.79,177.91,15.84,177.93ZM566.92,30.21l0,.2c2.6.55,5.17,1.17,7.78,1.61,2.8.48,2.79.41,3.74-2.28.24-.68.14-.85-.57-.77Z"/><path class="cls-2" d="M542.75,109.73c9.79,2.21,19.41,5,29.31,6.55,2.48.39,5,.78,7.45,1.14.5.07.83.13.78.76q-.79,11.53-1.56,23.07c-.26,3.9-.47,7.81-.78,11.71-.22,2.75-1.9,4.9-3.3,7.1-.63,1-2.14,1.22-3.33,1.51-5.12,1.24-10.23,2.51-15.4,3.53-3.38.66-6.85.38-10.29.39-12.68.06-25.35.42-38,.2-10.94-.2-21.89-.46-32.83-.72-9.15-.22-18.3-.52-27.45-.7-7.52-.15-15-.15-22.55-.25s-15.11-.33-22.66-.36c-19.36-.07-38.71-.06-58.06-.07q-8.88,0-17.76,0-14.1.09-28.19.25-13.49.17-27,.44-12.22.23-24.45.51c-8.59.21-17.18.47-25.76.71s-16.94.46-25.4.73c-9,.29-18,.64-26.95.94-9.35.33-18.69.62-28,.95-8.55.31-17.09.65-25.63,1-11.22.41-22.44.83-33.66,1.2-8.07.28-16.14.44-24.21.75q-17,.65-34,1.44c-5.11.24-10.22.35-15.33.2-2.42-.07-2.42-.09-2.41-2.44,0-5.32,0-10.64,0-16,0-2,.31-4,.43-6,0-.61.42-.82.87-1,5.11-2.19,10.29-4.17,15.89-4.59a44.51,44.51,0,0,1,5.14.28A47.87,47.87,0,0,0,41,141.29c-3.58-.4-7.16-.76-10.73-1.21-7.65-.94-15.3-1.93-23-2.88-.75-.09-1.16-.28-1.12-1.16q.87-17.65,1.7-35.31c0-.46.12-.75.65-.8,4.93-.43,9.57-2.1,14.32-3.33,3.39-.87,6.84-.55,10.25-.67,10.75-.4,21.5-.49,32.25-.87,5.06-.18,10.14,0,15.18-.51a30.38,30.38,0,0,0-6.39-.47c-9.31-.44-18.63-.5-27.95-.25s-18.85.74-28.29.68c-3,0-6-.8-9.07-.53-.77.07-.68-.52-.65-1,.32-5.54.61-11.08,1-16.62C9.5,71.18,9.91,66,10.3,60.83c.15-2,.36-4.06.47-6.09a1,1,0,0,1,.91-1c7.84-1.32,15.44-3.79,23.49-4.26C45.47,48.84,55.74,47.6,66,46a11.63,11.63,0,0,1,3.27-.18c-4.33,0-8.67,0-13,0-3.48,0-6.95.3-10.42.37-7,.15-14,.81-21,1.29-3.55.23-7.18-.12-10.77,0-2.6,0-2.62,0-1.75-2.47,1.3-3.75,1.93-7.66,2.85-11.5a5.12,5.12,0,0,1,3.37-3.93A113.51,113.51,0,0,1,47.19,22.4c10.54-1.34,21.12-2.23,31.69-3.26,8-.78,16-1.35,24-2,12.54-1,25.11-1.61,37.67-2.33,7-.4,14-.63,21.06-1,10.17-.58,20.33-1.23,30.5-1.88,12-.77,24-1.6,36-2.35,5.1-.33,10.21-.56,15.32-.8Q260.7,7.9,278,7.13c7-.3,14.06-.51,21.08-.78,13.78-.52,27.56-1,41.36-1,14-.06,28,.06,41.94.52,10.79.35,21.58.65,32.36,1,7.23.27,14.47.36,21.7.45,9.2.13,18.39.26,27.58.51,12.15.33,24.28.93,36.43,1.23,9,.23,18.07.2,27.11.07,3.63-.06,7.26-.57,10.88-.54,2.92,0,5.81-.45,8.72-.32,4.89.2,9.7-1,14.58-.95a91.87,91.87,0,0,1,10.88.55c3.29.41,5.07,1.89,5.54,6.88.32,3.37.48,6.77.71,10.15,0,.52,0,.94-.71.93-7.26-.05-14.19,2-21.24,3.32-5.19.95-10.31,2.35-15.95,3.67a19,19,0,0,0,2.24.34c4.38.12,8.76.41,13.15-.18,2.92-.4,5.74.76,8.62,1,4.56.44,9,1.61,13.56,2.09.77.08,1.08.33,1.14,1.16q.89,12.31,1.24,24.65c.22,8,.43,16,.35,24,0,3.92-.17,7.83-.2,11.75,0,.89-.28,1.13-1.16,1.17-4.57.21-9.12.51-13.69.88,4.37,1.31,8.73,2.75,13.37,2.63,1,0,1.32.24,1.26,1.26-.15,2.27-.22,4.55-.25,6.83,0,.84-.41.91-1.06.8-4.4-.75-8.8-.42-13.23-.32-4.86.12-9.73-.42-14.59-.68ZM181.41,133.89c-2.62.21-5.23.56-7.85.6-5.51.08-11,.46-16.5.74q-14.92.78-29.87,1.45c-5.86.25-11.74.26-17.59.6-2.41.14-4.87-.13-7.24.51,10,.31,20-.27,29.93-.49,2.1,0,4.22-.08,6.33-.2,9.4-.54,18.79-1,28.18-1.65,4.89-.31,9.77-.77,14.66-1.16a35.59,35.59,0,0,0,6.67-.6C185.87,133.41,183.65,133.83,181.41,133.89ZM162.32,47.5c-10.79-1.1-21.58-2.58-32.41-.48a11.56,11.56,0,0,0,4.27-.18,74.38,74.38,0,0,1,15.14-.09c4.32.31,8.62.75,12.93,1.14.73.16,1.45.35,2.18.47a146.58,146.58,0,0,0,16.35,1.13,85.45,85.45,0,0,0,31.35-4.7c4.34-1.46,8.67-3.09,13.3-3.12,12.08-.06,24.07-1.25,36.07-2.49,1.67-.18,3.33-.42,5-.64a42.51,42.51,0,0,0-5.17,0c-11.69.41-23.31,1.89-35,2.29a42.33,42.33,0,0,0-7.76,1c-2.76.61-5.44,1.6-8.16,2.4A98.54,98.54,0,0,1,193,48c-6.66.71-13.34.3-20,.12A75.65,75.65,0,0,1,162.32,47.5Zm365.47,63.6v-.24c-1.31-.1-2.61-.22-3.91-.29-11-.56-21.75,2.41-32.71,2.51-6.92.06-13.78,1.29-20.7,1.07-8.39-.25-16.68-1.65-25-2.88-12-1.77-24-2.15-36.07-2.46-5.8-.14-11.59-.28-17.38-.07-10.26.36-20.52,1-30.79.44-.28,0-.77-.21-.8.21s.48.32.79.36c6.57.83,13.17.56,19.76.42,5.27-.1,10.53-.55,15.8-.54,9.83,0,19.61,1,29.41,1.52,10.11.55,20.07,2.32,30.09,3.55,7.54.92,15,1.88,22.67,1.13,10.09-1,20.27-.83,30.33-2.42C515.44,112.45,521.63,111.86,527.79,111.1Zm-199.33-35a36.42,36.42,0,0,0-7.52-.23c-7.51,0-15,.25-22.54.37-11.39.19-22.78-.18-34.17-.4-9.88-.19-19.75.08-29.62.37-6.31.18-12.64,0-19,.13-2.93.07-5.9,0-8.78.88a173.92,173.92,0,0,0-21.51,8.4,11,11,0,0,1-2.75.77,12.85,12.85,0,0,0-4,.79,13.94,13.94,0,0,0,4.29-.12c4.47-1.35,8.8-3.08,13.13-4.81,5.64-2.24,11.31-4.4,17.52-4.37,11.72.06,23.43-.15,35.14-.43,8.75-.2,17.5.16,26.25.36,9.07.21,18.14.31,27.21-.11Q315.35,77.09,328.46,76.07Zm26.25-34c.46.15.63.24.8.27a71.53,71.53,0,0,0,10.74.73c8,.1,16-.19,24-.41,8.23-.23,16.47-.19,24.7-.25,7.8,0,15.58-.17,23.36-.72,8.64-.62,17.26-1.43,25.88-2.27,12-1.15,24-1.68,36-2,8.17-.25,16.35-.3,24.42-1.83a5.15,5.15,0,0,0-2-.29c-12.87-.2-25.69.73-38.52,1.57-9.4.62-18.8,1.3-28.16,2.29-12.4,1.32-24.82,2.13-37.29,2.29-11.51.15-23,0-34.53.48-8.06.31-16.14.43-24.22.27A27.2,27.2,0,0,0,354.71,42.05ZM269.17,91.39c-10.34.1-20.59-.76-30.86-1-6.26-.17-12.54-.45-18.78-1.06a53.63,53.63,0,0,0-25.41,3.33,23.73,23.73,0,0,1-10.5,1.88c-4.54-.3-9.08-.82-13.63-.7-6.91.2-13.81.15-20.71.62-7.06.48-14.14.77-20.88,1.13,3.62.14,7.55.71,11.51.51,3.47-.17,6.94-.34,10.41-.47,3-.12,6.07-.17,9.1-.31a142.2,142.2,0,0,1,18.92.25c6,.51,11.86.84,17.69-1.47a45.19,45.19,0,0,1,19.65-3c4,.25,8.06.28,12.09.21,12.51-.2,25,.23,37.53.46A33.79,33.79,0,0,0,269.17,91.39ZM207.51,37c-2.48-.31-5-.61-7.43-.94-6.77-.9-13.56-1.57-20.38-1.79A146.2,146.2,0,0,0,155,35.39c-8.26,1.14-16.55,2.14-24.7,3.89-7,1.5-14,2.52-21.14,3.37-2.3.27-4.6.51-6.89.78-.26,0-.71.23-.71.33,0,.4.42.27.66.28a56.11,56.11,0,0,0,8.5-.33c8-.89,15.9-2.53,23.83-4A232.4,232.4,0,0,1,163.93,36,167,167,0,0,1,182.24,36C190.64,36.43,199,37.7,207.51,37Zm21.57,101.62a163.86,163.86,0,0,0-18.54.48c-6.41.4-12.82.81-19.24,1.16-9.68.53-19.36,1-29.05,1.52-5.17.29-10.35.52-15.5,1.18-.21,0-.49-.1-.59.22a2.46,2.46,0,0,0,.63.17c1.43-.05,2.86-.16,4.3-.19,8.58-.17,17.16-.5,25.73-.93,8.17-.41,16.33-.84,24.49-1.47Zm150.83-4c-28.24-.48-56.47-.23-84.69-.67C323.44,136.07,351.68,135.38,379.91,134.64Zm65.68-33.93c2.45-.25,4.9-.65,7.36-.74,6.17-.23,12.35-.51,18.54-.34,6.75.18,13.49.31,20.24.48,9.23.23,18.45.47,27.68.3h1.05a41.36,41.36,0,0,0-7-.86c-9.3-.34-18.6-.76-27.9-.74-8.43,0-16.86-.17-25.29.21A80.2,80.2,0,0,0,445.59,100.71Zm-40-24.18c-22.82,0-45.64.6-68.46.5C359.92,78.1,382.73,77.48,405.55,76.53Zm98.95,29.79c-10.22-.38-20.29.18-30.37.67-3.62.18-7.24.46-10.86.72a11.25,11.25,0,0,0-1.78.43c.52.44,1.13.21,1.68.19,9.73-.39,19.46-.73,29.18-1.25C496.36,106.87,500.39,106.92,504.5,106.32ZM176.62,39.4a1.45,1.45,0,0,0-1.19-.33,145.84,145.84,0,0,0-20.69.71,37.51,37.51,0,0,0-7.51,1.39c-.29.1-.74.19-.69.56s.48.3.8.26C157,40.89,166.78,40.23,176.62,39.4Zm-102,61.22a17.15,17.15,0,0,0-5-.35c-6.23.13-12.45.2-18.67.51a81.67,81.67,0,0,0-10.25.66c-.21,0-.41.14-.62.2.13.32.41.2.61.2,1.8,0,3.6-.14,5.38-.14C55.57,101.67,65,101.07,74.66,100.62Z"/><path class="cls-3" d="M15.84,177.93c10,0,19.88-.76,29.82-1.12,4.87-.18,9.75-.23,14.62-.34,10.63-.24,21.26-.45,31.89-.72,7.47-.2,14.93-.46,22.4-.71l27.07-1q10.79-.39,21.56-.74,18.51-.61,37-1.2,12.53-.39,25-.71l27.92-.72c7.28-.18,14.55-.33,21.82-.5,12.83-.3,25.66-.31,38.49-.49,21.48-.32,42.95-.11,64.43-.12,11.63,0,23.26.14,34.89.24q12.54.09,25.07.25,12.94.18,25.9.48c8.55.2,17.1.4,25.65.73,10.23.39,20.46.5,30.7.39,7.55-.08,15.08-.44,22.61-1.2,2.79-.29,5.64,0,8.48-.14,5.94-.37,11.65-1.9,17.44-3,1.49-.29,3-.66,4.44-1a5.25,5.25,0,0,1,.57-.05,2.17,2.17,0,0,1-.14.53c-2.22,3.66-4.3,7.41-6.72,10.93-1.29,1.88-3.67,2.25-5.81,2.35-7.5.35-15,.54-22.52.82-10.25.38-20.51.81-30.77,1.21-6.06.23-12.13.49-18.2.67q-16.41.48-32.84.81c-15.95.33-31.9.39-47.86.44q-24.66.09-49.31.25c-8,.07-16.06.21-24.09.49-7.5.25-15,.92-22.49,1.07-10.3.2-20.61.05-30.92.1q-16.74.08-33.47.26-12.54.15-25.06.47-12.09.3-24.2.72-11.61.4-23.22.95c-9.49.45-19,.88-28.46,1.46-7,.42-14,.53-21,.69q-14.09.33-28.16.74c-6.91.2-13.82.42-20.72.72-10,.43-20,.87-30,1.45-6.49.38-13,1.17-19.46,1.5-3.87.19-7.65-.93-11.41-1.83-.69-.17-1-.94-1.34-1.48a74.23,74.23,0,0,1-7.1-12.9c-.34-.73,0-.78.59-.78C11.28,177.94,13.56,177.93,15.84,177.93Z"/><path class="cls-4" d="M566.92,30.21,577.82,29c.71-.08.81.09.57.77-.95,2.69-.94,2.76-3.74,2.28-2.61-.44-5.18-1.06-7.78-1.61Z"/><path class="cls-5" d="M527.79,111.1c-6.16.76-12.35,1.35-18.48,2.31-10.06,1.59-20.24,1.43-30.33,2.42-7.65.75-15.13-.21-22.67-1.13-10-1.23-20-3-30.09-3.55-9.8-.54-19.58-1.5-29.41-1.52-5.27,0-10.53.44-15.8.54-6.59.14-13.19.41-19.76-.42-.31,0-.81-.06-.79-.36s.52-.22.8-.21c10.27.6,20.53-.08,30.79-.44,5.79-.21,11.58-.07,17.38.07,12.06.31,24.11.69,36.07,2.46,8.29,1.23,16.58,2.63,25,2.88,6.92.22,13.78-1,20.7-1.07,11-.1,21.7-3.07,32.71-2.51,1.3.07,2.6.19,3.91.29Z"/><path class="cls-6" d="M328.46,76.07q-13.11,1-26.28,1.6c-9.07.42-18.14.32-27.21.11-8.75-.2-17.5-.56-26.25-.36-11.71.28-23.42.49-35.14.43-6.21,0-11.88,2.13-17.52,4.37C191.73,84,187.4,85.68,182.93,87a13.94,13.94,0,0,1-4.29.12,12.85,12.85,0,0,1,4-.79,11,11,0,0,0,2.75-.77,173.92,173.92,0,0,1,21.51-8.4c2.88-.87,5.85-.81,8.78-.88,6.32-.15,12.65,0,19-.13,9.87-.29,19.74-.56,29.62-.37,11.39.22,22.78.59,34.17.4,7.52-.12,15-.33,22.54-.37A36.42,36.42,0,0,1,328.46,76.07Z"/><path class="cls-7" d="M354.71,42.05a27.2,27.2,0,0,1,5.15.08c8.08.16,16.16,0,24.22-.27,11.51-.44,23-.33,34.53-.48,12.47-.16,24.89-1,37.29-2.29,9.36-1,18.76-1.67,28.16-2.29,12.83-.84,25.65-1.77,38.52-1.57a5.15,5.15,0,0,1,2,.29c-8.07,1.53-16.25,1.58-24.42,1.83-12,.37-24,.9-36,2-8.62.84-17.24,1.65-25.88,2.27-7.78.55-15.56.67-23.36.72-8.23.06-16.47,0-24.7.25-8,.22-16,.51-24,.41a71.53,71.53,0,0,1-10.74-.73C355.34,42.29,355.17,42.2,354.71,42.05Z"/><path class="cls-8" d="M269.17,91.39a33.79,33.79,0,0,1-3.87.38c-12.51-.23-25-.66-37.53-.46-4,.07-8.05,0-12.09-.21a45.19,45.19,0,0,0-19.65,3c-5.83,2.31-11.69,2-17.69,1.47a142.2,142.2,0,0,0-18.92-.25c-3,.14-6.07.19-9.1.31-3.47.13-6.94.3-10.41.47-4,.2-7.89-.37-11.51-.51,6.74-.36,13.82-.65,20.88-1.13,6.9-.47,13.8-.42,20.71-.62,4.55-.12,9.09.4,13.63.7a23.73,23.73,0,0,0,10.5-1.88,53.63,53.63,0,0,1,25.41-3.33c6.24.61,12.52.89,18.78,1.06C248.58,90.63,258.83,91.49,269.17,91.39Z"/><path class="cls-6" d="M207.51,37c-8.5.69-16.87-.58-25.27-1.06a167,167,0,0,0-18.31.08,232.4,232.4,0,0,0-29.42,3.73c-7.93,1.42-15.82,3.06-23.83,4a56.11,56.11,0,0,1-8.5.33c-.24,0-.64.12-.66-.28,0-.1.45-.29.71-.33,2.29-.27,4.59-.51,6.89-.78,7.09-.85,14.15-1.87,21.14-3.37,8.15-1.75,16.44-2.75,24.7-3.89a146.2,146.2,0,0,1,24.74-1.11c6.82.22,13.61.89,20.38,1.79C202.55,36.4,205,36.7,207.51,37Z"/><path class="cls-7" d="M162.32,47.5a75.65,75.65,0,0,0,10.64.57c6.66.18,13.34.59,20-.12a98.54,98.54,0,0,0,17.43-3.73c2.72-.8,5.4-1.79,8.16-2.4a42.33,42.33,0,0,1,7.76-1c11.7-.4,23.32-1.88,35-2.29a42.51,42.51,0,0,1,5.17,0c-1.66.22-3.32.46-5,.64-12,1.24-24,2.43-36.07,2.49-4.63,0-9,1.66-13.3,3.12a85.45,85.45,0,0,1-31.35,4.7,146.58,146.58,0,0,1-16.35-1.13c-.73-.12-1.45-.31-2.18-.47Z"/><path class="cls-9" d="M229.08,138.63l-27.77,2.14c-8.16.63-16.32,1.06-24.49,1.47-8.57.43-17.15.76-25.73.93-1.44,0-2.87.14-4.3.19a2.46,2.46,0,0,1-.63-.17c.1-.32.38-.19.59-.22,5.15-.66,10.33-.89,15.5-1.18,9.69-.54,19.37-1,29.05-1.52,6.42-.35,12.83-.76,19.24-1.16A163.86,163.86,0,0,1,229.08,138.63Z"/><path class="cls-9" d="M379.91,134.64c-28.23.74-56.47,1.43-84.69-.67C323.44,134.41,351.67,134.16,379.91,134.64Z"/><path class="cls-10" d="M445.59,100.71A80.2,80.2,0,0,1,460.3,99c8.43-.38,16.86-.2,25.29-.21,9.3,0,18.6.4,27.9.74a41.36,41.36,0,0,1,7,.86h-1.05c-9.23.17-18.45-.07-27.68-.3-6.75-.17-13.49-.3-20.24-.48-6.19-.17-12.37.11-18.54.34C450.49,100.06,448,100.46,445.59,100.71Z"/><path class="cls-11" d="M181.46,134.29c-4.89.39-9.77.85-14.66,1.16-9.39.6-18.78,1.11-28.18,1.65-2.11.12-4.23.16-6.33.2-10,.22-19.95.8-29.93.49,2.37-.64,4.83-.37,7.24-.51,5.85-.34,11.73-.35,17.59-.6q14.94-.66,29.87-1.45c5.5-.28,11-.66,16.5-.74,2.62,0,5.23-.39,7.85-.61C181.43,134,181.44,134.16,181.46,134.29Z"/><path class="cls-12" d="M405.55,76.53c-22.82,1-45.63,1.57-68.46.5C359.91,77.13,382.73,76.54,405.55,76.53Z"/><path class="cls-13" d="M504.5,106.32c-4.11.6-8.14.55-12.15.76-9.72.52-19.45.86-29.18,1.25-.55,0-1.16.25-1.68-.19a11.25,11.25,0,0,1,1.78-.43c3.62-.26,7.24-.54,10.86-.72C484.21,106.5,494.28,105.94,504.5,106.32Z"/><path class="cls-7" d="M176.62,39.4c-9.84.83-19.58,1.49-29.28,2.59-.32,0-.74.14-.8-.26s.4-.46.69-.56a37.51,37.51,0,0,1,7.51-1.39,145.84,145.84,0,0,1,20.69-.71A1.45,1.45,0,0,1,176.62,39.4Z"/><path class="cls-13" d="M74.66,100.62c-9.62.45-19.09,1-28.59,1.08-1.78,0-3.58.12-5.38.14-.2,0-.48.12-.61-.2.21-.06.41-.16.62-.2A81.67,81.67,0,0,1,51,100.78c6.22-.31,12.44-.38,18.67-.51A17.15,17.15,0,0,1,74.66,100.62Z"/><path class="cls-14" d="M162.32,47.5l-.07.39c-4.31-.39-8.61-.83-12.93-1.14a74.38,74.38,0,0,0-15.14.09,11.56,11.56,0,0,1-4.27.18C140.74,44.92,151.53,46.4,162.32,47.5Z"/><path class="cls-15" d="M181.46,134.29c0-.13,0-.27-.05-.41,2.24,0,4.46-.47,6.72-.19A35.59,35.59,0,0,1,181.46,134.29Z"/></g></g></svg>