<?xml version="1.0" standalone="no"?>
<!DOCTYPE svg PUBLIC "-//W3C//DTD SVG 20010904//EN"
 "http://www.w3.org/TR/2001/REC-SVG-20010904/DTD/svg10.dtd">
<svg version="1.0" xmlns="http://www.w3.org/2000/svg"
 width="596.000000pt" height="596.000000pt" viewBox="0 0 596.000000 596.000000"
 preserveAspectRatio="xMidYMid meet">
<metadata>
Created by potrace 1.14, written by Peter Selinger 2001-2017
</metadata>
<g transform="translate(0.000000,596.000000) scale(0.100000,-0.100000)"
fill="#000000" stroke="none">
<path d="M4572 5948 c-12 -16 -40 -97 -47 -140 -3 -18 -12 -61 -20 -96 -8 -34
-17 -74 -20 -90 -2 -15 -25 -117 -50 -226 -25 -109 -45 -202 -45 -206 0 -4
-25 -7 -56 -6 -50 1 -58 -2 -78 -27 -19 -23 -52 -107 -62 -152 -4 -21 -147
-510 -149 -513 -2 -2 -17 4 -34 12 -42 22 -87 20 -111 -4 -12 -12 -37 -46 -57
-78 -20 -31 -37 -59 -39 -61 -3 -3 -82 57 -99 75 -28 33 -160 104 -248 134
-53 19 -261 54 -432 74 -28 3 -75 10 -105 15 -30 6 -76 12 -102 16 -26 3 -69
10 -95 15 -50 9 -333 6 -393 -4 -81 -15 -202 -50 -300 -88 -253 -96 -430 -170
-500 -207 -192 -102 -176 -93 -250 -143 -110 -73 -170 -149 -215 -268 -46
-122 -68 -141 -160 -136 -99 6 -168 -56 -239 -215 -40 -88 -57 -127 -61 -139
-1 -3 -7 -18 -14 -35 -23 -53 -120 -350 -126 -385 -3 -18 -8 -36 -10 -40 -2
-3 -6 -17 -9 -31 -3 -13 -8 -35 -12 -49 -13 -50 -13 -197 1 -242 36 -122 167
-301 356 -488 158 -156 216 -196 299 -207 22 -3 40 -9 40 -14 0 -11 -78 -278
-84 -287 -2 -4 -7 -36 -11 -72 -8 -90 8 -108 140 -150 55 -18 104 -39 108 -47
5 -8 10 -40 11 -70 1 -53 3 -58 48 -97 26 -22 55 -59 65 -81 30 -68 57 -94
118 -115 31 -11 65 -30 75 -42 10 -13 31 -70 46 -127 32 -122 66 -173 138
-210 35 -18 63 -25 105 -24 80 1 214 39 301 86 41 22 91 49 110 59 37 21 119
20 171 0 66 -26 140 -129 156 -219 4 -21 7 -162 7 -314 l1 -276 24 51 c69 150
178 457 195 551 3 14 7 28 9 33 3 4 8 27 12 52 4 25 9 48 11 52 10 15 15 88 7
88 -5 0 -15 -17 -22 -38 -45 -124 -114 -292 -119 -287 -3 3 -7 11 -8 18 -12
56 -41 159 -63 222 -26 72 -62 120 -125 161 l-47 32 126 123 c227 222 350 339
358 339 7 0 4 -38 -9 -130 -1 -14 -6 -47 -9 -75 -3 -27 -8 -61 -10 -74 -8 -47
14 -6 40 74 25 77 99 353 109 405 2 14 10 48 16 75 6 28 14 65 16 84 3 19 9
52 14 75 12 55 24 193 16 185 -4 -4 -23 -62 -42 -130 -53 -183 -123 -319 -233
-451 -56 -67 -245 -255 -290 -288 -18 -14 -47 -37 -65 -51 -17 -14 -47 -36
-66 -49 -19 -14 -41 -30 -48 -37 -7 -7 -17 -13 -22 -13 -5 0 -15 -6 -22 -13
-51 -49 -346 -212 -410 -226 -113 -26 -164 -20 -200 21 -17 20 -25 42 -68 196
-26 91 -64 137 -120 146 -31 5 -45 14 -59 37 -31 50 -10 74 71 85 46 6 75 23
42 25 -10 1 -30 2 -44 4 -14 1 -56 5 -95 9 -102 8 -120 25 -121 110 -1 59 -4
70 -29 96 -16 16 -30 28 -32 26 -2 -2 -43 9 -91 23 -128 40 -127 37 -74 253
24 95 48 183 54 195 12 25 64 44 238 88 142 36 444 131 860 268 190 63 360
118 378 122 32 7 32 6 22 -22 -6 -15 -15 -37 -20 -48 -22 -49 -131 -356 -145
-410 -38 -148 8 -292 114 -358 34 -21 35 -21 27 -2 -5 11 -10 40 -13 65 -6 64
21 108 148 237 149 153 207 235 238 338 7 22 14 45 16 51 4 14 159 -37 186
-62 11 -10 28 -46 39 -81 58 -190 165 -315 347 -408 103 -53 191 -142 238
-240 59 -125 79 -141 278 -224 59 -24 99 -36 103 -30 7 13 14 7 -76 59 -174
100 -255 189 -285 312 -6 23 -3 28 17 33 12 3 84 20 158 38 l135 33 -45 28
c-25 16 -58 36 -73 46 l-29 17 49 12 c87 22 156 63 228 136 31 30 85 104 85
116 0 3 -25 11 -56 18 -49 9 -164 57 -164 67 0 2 51 28 113 57 61 30 152 73
200 97 154 75 209 175 132 241 l-23 21 106 88 c111 91 215 194 248 245 10 17
21 32 25 35 18 15 91 167 117 245 47 141 46 189 -4 245 -20 22 -32 40 -28 40
30 0 178 153 241 248 139 209 228 528 194 694 -16 74 -48 108 -104 108 -37 0
-131 -29 -187 -57 -32 -16 -34 -12 -16 30 15 36 31 108 42 187 10 70 12 366 3
418 -37 219 -99 300 -206 270 -38 -10 -117 -82 -173 -156 l-25 -34 0 174 c-1
148 -4 185 -23 257 -29 107 -59 165 -118 230 -67 74 -126 100 -152 69z m97
-117 c55 -80 78 -143 94 -253 13 -89 14 -232 2 -306 -3 -19 -23 -107 -46 -196
-22 -88 -42 -172 -45 -185 -3 -14 -7 -28 -10 -33 -3 -5 -8 -21 -10 -36 -7 -38
-55 -156 -66 -160 -4 -2 -8 -8 -8 -14 0 -14 -53 -86 -101 -138 l-41 -45 7 60
c4 33 9 170 10 305 3 278 5 297 51 510 30 140 55 258 59 285 2 11 11 65 21
120 16 97 29 145 38 145 3 0 23 -27 45 -59z m485 -540 c41 -45 64 -279 42
-431 -29 -206 -58 -308 -128 -445 -19 -38 -86 -144 -98 -155 -3 -3 -23 -27
-44 -55 -80 -101 -212 -222 -300 -275 l-39 -24 7 30 c5 16 10 36 12 44 2 8 11
42 20 75 9 33 18 68 20 78 2 9 6 27 9 40 10 44 19 174 19 282 0 85 -4 118 -18
143 l-17 32 42 78 c57 104 93 162 249 400 52 79 109 156 127 171 39 32 75 37
97 12z m-799 -214 c44 -58 52 -109 50 -288 -2 -164 -7 -220 -26 -315 -5 -28
-12 -62 -14 -76 -3 -14 -17 -66 -31 -114 -15 -49 -29 -98 -31 -109 l-6 -20 21
20 c22 21 104 139 204 293 34 50 65 92 69 92 5 0 14 -10 20 -22 19 -36 14
-315 -6 -348 -2 -4 -6 -19 -9 -34 -11 -61 -88 -298 -145 -446 -29 -76 -26 -87
12 -43 65 75 183 196 210 215 35 25 57 11 57 -36 0 -48 -47 -201 -90 -293 -35
-74 -104 -188 -144 -238 -81 -100 -195 -250 -192 -252 2 -2 44 22 92 54 49 32
101 63 117 70 26 12 56 9 58 -6 0 -3 2 -14 4 -24 8 -42 -61 -204 -112 -264
-13 -14 -23 -29 -23 -32 0 -8 -104 -116 -146 -151 -43 -37 -97 -69 -171 -100
l-66 -28 34 -7 c89 -17 108 -41 68 -83 -47 -52 -157 -98 -309 -131 -64 -14
-203 -24 -198 -14 39 73 51 124 37 161 -6 15 -5 22 4 23 157 10 238 60 334
204 82 122 98 234 36 250 l-26 6 25 27 c77 85 173 281 192 395 7 42 -12 84
-43 95 -21 7 -41 5 -79 -8 -49 -18 -63 -16 -43 5 25 26 116 234 122 277 0 4 6
27 13 50 17 55 11 116 -12 148 -22 28 -72 38 -93 18 -32 -30 -140 -110 -144
-106 -2 2 2 16 10 31 8 15 12 27 9 27 -3 0 -2 6 3 13 4 6 8 17 9 22 1 6 10 32
19 59 9 26 18 56 20 65 2 9 10 36 18 61 18 56 55 198 151 585 78 315 89 355
105 355 6 0 21 -15 36 -33z m-1735 -472 c30 -4 70 -8 89 -10 19 -3 48 -6 65
-9 17 -2 54 -8 81 -12 28 -3 58 -8 68 -10 10 -2 68 -10 130 -19 62 -8 121 -17
132 -19 11 -2 43 -7 70 -10 81 -11 125 -26 125 -41 0 -8 -4 -15 -9 -15 -7 0
-30 -17 -101 -73 -9 -7 -41 -32 -73 -56 -31 -24 -57 -45 -57 -46 0 -2 17 1 38
7 63 17 144 59 203 105 30 23 66 44 80 45 17 1 69 -28 167 -96 78 -54 142
-100 142 -102 0 -9 -136 -203 -177 -254 -65 -79 -470 -473 -498 -484 -17 -7
-50 -4 -107 8 -99 22 -105 23 -153 30 -20 4 -41 8 -45 11 -4 2 -22 6 -41 9
-19 2 -77 13 -129 25 -130 27 -479 93 -560 105 -19 3 -44 7 -55 10 -19 3 -97
15 -140 21 -101 15 -123 18 -140 21 -40 8 -71 13 -130 19 -33 3 -82 10 -110
15 -27 5 -72 12 -100 15 -27 3 -94 13 -147 20 -54 8 -100 15 -103 15 -12 0 -1
28 55 143 71 148 81 155 210 151 108 -4 698 -7 810 -4 67 1 79 4 55 11 -16 4
-61 11 -100 14 -38 3 -90 7 -115 10 -84 7 -224 15 -400 21 -193 7 -282 11
-290 13 -19 6 255 149 365 190 33 13 69 27 80 31 60 25 439 158 481 169 73 19
241 41 269 35 6 -2 35 -6 65 -9z m2814 -177 c39 -55 -9 -273 -96 -441 -80
-154 -242 -343 -386 -451 -58 -44 -272 -175 -353 -217 l-37 -18 46 67 c52 78
92 164 129 277 15 44 28 85 29 90 1 6 8 35 16 65 9 36 12 68 6 92 -10 48 -1
69 62 148 139 174 351 338 520 403 30 11 49 7 64 -15z m-1444 -29 c22 -52 16
-183 -16 -319 -27 -119 -72 -217 -165 -357 -70 -106 -66 -114 16 -37 17 16 66
61 109 99 43 39 97 87 120 107 87 79 131 73 122 -16 -7 -77 -15 -103 -59 -180
-61 -108 -117 -182 -211 -280 -111 -115 -114 -118 -90 -110 10 4 42 17 69 29
176 79 178 79 225 97 76 30 89 12 65 -86 -23 -90 -80 -189 -150 -259 -67 -67
-182 -151 -264 -192 -28 -15 -51 -28 -51 -29 0 -2 15 0 33 4 17 4 64 16 102
25 74 18 150 26 172 18 21 -8 15 -50 -16 -111 -54 -107 -133 -168 -241 -188
-25 -4 -47 -8 -50 -9 -3 -1 -31 -5 -63 -9 -60 -9 -77 -19 -54 -33 28 -17 45
-55 41 -90 -11 -84 -85 -123 -234 -123 -117 0 -192 21 -277 77 -133 88 -176
197 -178 443 0 149 13 220 65 334 52 116 106 180 311 366 359 325 496 502 588
764 17 48 34 92 36 97 10 15 33 -2 45 -32z m-2925 -665 c17 -2 53 -6 80 -9 28
-2 61 -7 75 -9 14 -3 48 -7 75 -11 51 -6 85 -11 140 -20 17 -3 48 -7 70 -10
22 -3 51 -7 65 -10 14 -3 39 -7 55 -9 46 -7 118 -18 140 -21 85 -13 235 -37
260 -41 39 -7 60 -11 115 -18 25 -3 56 -8 70 -11 28 -5 93 -16 130 -21 26 -3
145 -21 190 -29 14 -2 45 -7 70 -10 25 -3 52 -8 60 -10 8 -2 35 -6 60 -9 25
-3 54 -8 66 -10 12 -2 45 -7 75 -11 30 -3 61 -8 69 -10 8 -3 33 -7 54 -10 49
-6 61 -17 47 -43 -18 -34 -48 -37 -159 -18 -45 8 -89 17 -112 21 -43 9 -194
35 -230 41 -19 2 -44 6 -55 9 -11 2 -45 7 -75 10 -30 3 -66 8 -80 10 -33 5
-80 11 -225 30 -115 15 -138 18 -250 31 -27 3 -68 8 -90 11 -22 2 -58 6 -80 8
-22 2 -71 6 -110 10 -38 3 -90 7 -115 10 -25 2 -83 7 -130 10 -187 15 -293 26
-302 31 -18 11 -119 5 -135 -7 -56 -46 -285 -669 -253 -689 17 -11 110 -13
500 -14 383 -1 455 2 865 40 28 3 70 6 95 8 25 2 68 7 95 10 28 3 77 8 110 11
33 3 78 8 100 10 22 2 78 7 125 10 47 3 96 8 110 10 14 2 67 7 118 10 l92 6 0
-24 c0 -32 -14 -38 -125 -52 -27 -3 -59 -8 -70 -10 -11 -3 -42 -7 -70 -10 -58
-6 -112 -14 -215 -30 -19 -3 -53 -7 -75 -10 -22 -2 -94 -11 -160 -20 -189 -24
-198 -26 -235 -30 -19 -2 -59 -7 -89 -11 -29 -3 -68 -8 -86 -9 -18 -2 -66 -8
-106 -14 -83 -11 -153 -20 -219 -27 -25 -3 -58 -7 -75 -10 -16 -3 -52 -7 -80
-9 -27 -3 -72 -7 -100 -11 -27 -3 -70 -7 -95 -9 -25 -3 -63 -7 -85 -9 -22 -3
-67 -8 -100 -11 -126 -13 -140 -16 -162 -30 -13 -9 -23 -20 -23 -26 0 -10 36
-66 50 -79 3 -3 17 -21 31 -40 15 -19 37 -47 50 -61 13 -14 44 -50 69 -80 42
-50 100 -115 161 -180 31 -33 70 -33 199 1 47 12 92 23 100 25 80 16 543 135
680 175 96 28 180 52 185 54 6 1 64 20 130 41 66 21 125 40 130 41 6 1 80 26
165 54 85 28 162 53 170 55 8 2 27 8 41 13 23 9 28 8 37 -13 10 -22 7 -24 -46
-43 -127 -45 -633 -213 -712 -236 -47 -14 -148 -44 -225 -66 -77 -23 -147 -43
-155 -45 -8 -2 -69 -20 -135 -40 -66 -19 -127 -37 -135 -39 -8 -2 -78 -23
-155 -46 -153 -47 -204 -51 -268 -21 -87 40 -242 214 -421 473 -86 125 -104
167 -101 226 10 143 267 841 332 900 24 22 31 23 107 17 45 -4 95 -8 111 -11z
m-10 -160 c22 -4 54 -8 70 -10 68 -6 114 -12 131 -17 11 -3 44 -9 74 -12 30
-3 66 -8 80 -10 43 -8 83 -13 140 -20 30 -3 63 -9 74 -12 10 -3 35 -7 55 -8
20 -2 50 -6 66 -8 17 -3 55 -9 85 -12 30 -4 63 -9 72 -10 9 -2 43 -6 75 -10
32 -3 72 -8 88 -10 46 -7 184 -23 245 -30 30 -3 100 -13 155 -21 55 -8 114
-17 131 -18 17 -2 51 -7 75 -11 24 -4 55 -9 69 -10 14 -1 34 -5 45 -8 11 -3
47 -9 80 -12 33 -4 61 -8 63 -10 9 -8 -68 -211 -85 -222 -17 -11 -50 -16 -203
-28 -36 -3 -85 -7 -110 -10 -25 -3 -74 -7 -110 -10 -36 -3 -92 -7 -125 -10
-172 -15 -169 -14 -385 -30 -36 -2 -99 -7 -140 -9 -41 -3 -112 -8 -158 -11
-405 -29 -883 -38 -903 -18 -9 9 -3 36 24 110 19 54 52 145 72 203 85 245 98
276 116 291 19 17 48 18 134 3z m3976 -166 c1 -7 3 -24 4 -38 8 -78 -71 -276
-156 -387 -102 -136 -314 -302 -404 -317 -71 -12 -125 -17 -125 -12 0 3 18 23
41 43 105 95 188 240 243 423 22 77 42 124 59 141 27 28 191 124 247 145 45
16 90 17 91 2z m-2194 -548 c2 -14 5 -43 6 -64 l2 -39 -70 -29 c-38 -16 -104
-40 -145 -53 -75 -25 -512 -154 -540 -160 -8 -2 -55 -16 -105 -30 -449 -133
-866 -238 -908 -228 -22 6 -97 79 -165 163 -21 24 -50 58 -66 75 -40 42 -115
140 -118 155 -2 9 21 13 82 16 141 5 302 13 360 18 30 3 91 8 135 11 44 3 91
8 105 10 14 3 54 7 90 10 62 6 190 20 273 30 20 3 54 7 75 10 20 2 75 9 122
16 47 6 96 13 110 14 105 12 137 16 150 20 8 2 39 7 69 10 30 4 63 8 74 11 10
2 42 6 71 10 28 3 119 16 201 29 182 27 187 27 192 -5z m138 -422 c33 -70 27
-119 -25 -216 -46 -85 -119 -184 -210 -282 -59 -64 -125 -174 -114 -191 3 -5
1 -9 -4 -9 -14 0 -34 80 -33 135 1 57 7 80 49 186 30 74 62 172 116 350 14 48
32 92 40 98 8 7 36 21 63 31 l48 18 23 -35 c13 -18 34 -57 47 -85z m1583 108
c27 -9 28 -26 2 -58 -46 -60 -201 -134 -342 -164 -75 -16 -236 -26 -243 -15
-2 4 27 22 63 41 146 74 232 141 232 181 0 10 6 19 13 22 19 7 249 1 275 -7z
m-898 -290 c41 -4 86 -9 100 -11 14 -2 45 -7 70 -10 91 -13 169 -35 261 -75
107 -47 205 -80 214 -72 3 3 5 -1 5 -9 0 -8 -17 -26 -38 -40 -151 -107 -287
-126 -457 -64 -16 5 -17 5 -5 -4 8 -6 12 -11 8 -11 -22 0 97 -94 171 -136 82
-46 85 -49 56 -54 -40 -8 -125 6 -205 32 -242 78 -462 270 -487 424 -5 32 -4
33 33 36 57 5 189 2 274 -6z"/>
<path d="M3470 4362 c0 -5 11 -15 25 -22 14 -7 25 -17 25 -22 0 -4 6 -8 13 -8
7 0 28 -11 47 -25 50 -37 71 -32 32 8 -49 51 -142 96 -142 69z"/>
<path d="M1288 4062 c-9 -9 -19 -28 -23 -42 -4 -14 -11 -29 -15 -35 -4 -5 -10
-27 -13 -47 -6 -50 16 -57 34 -10 8 20 22 52 32 71 28 57 17 101 -15 63z"/>
<path d="M949 3418 c-28 -9 -38 -29 -84 -158 -15 -41 -31 -87 -37 -102 -8 -22
-7 -33 6 -54 37 -55 71 -14 126 149 35 104 38 121 27 146 -11 25 -15 27 -38
19z"/>
<path d="M1190 3402 c-23 -18 -67 -154 -77 -233 -6 -55 10 -75 51 -59 14 5 26
11 26 13 0 1 10 30 21 62 60 168 63 202 20 225 -14 7 -25 5 -41 -8z"/>
<path d="M1452 3360 c-28 -30 -86 -204 -78 -235 15 -59 59 -15 111 113 34 83
37 95 25 117 -16 30 -33 32 -58 5z"/>
<path d="M1668 3330 c-9 -6 -24 -34 -34 -63 -9 -28 -21 -58 -27 -64 -5 -7 -6
-13 -3 -13 4 0 2 -10 -5 -21 -14 -27 6 -69 32 -69 29 0 46 25 74 111 22 65 25
86 16 105 -11 26 -26 29 -53 14z"/>
<path d="M1877 3302 c-16 -18 -64 -138 -63 -157 4 -39 46 -47 68 -12 24 38 68
147 59 147 -5 0 -11 9 -14 20 -6 25 -29 26 -50 2z"/>
<path d="M2062 3302 c-19 -12 -54 -122 -47 -149 4 -16 13 -23 29 -23 18 0 29
13 55 67 29 58 31 69 20 90 -13 23 -34 29 -57 15z"/>
<path d="M2243 3275 c-27 -19 -66 -128 -50 -144 19 -19 31 -12 61 39 29 48 38
82 29 108 -7 16 -14 15 -40 -3z"/>
<path d="M2370 3248 c-11 -13 -27 -43 -34 -68 -12 -40 -12 -46 3 -51 22 -9 26
-6 55 47 43 77 27 126 -24 72z"/>
<path d="M2126 2724 c-9 -8 -16 -21 -16 -28 0 -17 38 -66 51 -66 19 0 27 44
13 72 -19 36 -29 41 -48 22z"/>
<path d="M1947 2703 c-24 -23 19 -113 53 -113 32 0 30 62 -3 98 -21 22 -38 28
-50 15z"/>
<path d="M1765 2666 c-19 -13 -18 -15 9 -55 40 -58 51 -65 70 -46 18 19 8 56
-26 93 -25 26 -28 26 -53 8z"/>
<path d="M1566 2649 c-14 -21 -14 -26 6 -60 28 -51 73 -99 92 -99 8 0 20 8 25
18 10 18 -5 57 -43 117 -11 17 -20 31 -20 31 -1 1 -11 5 -23 8 -15 5 -25 1
-37 -15z"/>
<path d="M1376 2624 c-24 -23 -21 -34 35 -115 67 -97 87 -110 109 -68 15 26
-22 106 -75 162 -39 41 -47 44 -69 21z"/>
<path d="M1127 2612 c-18 -22 -14 -34 41 -107 68 -90 114 -135 138 -135 25 0
44 19 41 41 -3 16 -74 118 -125 178 -32 38 -73 48 -95 23z"/>
<path d="M930 2575 c-19 -23 1 -54 121 -188 37 -41 63 -45 75 -12 12 30 -134
215 -169 215 -8 0 -20 -7 -27 -15z"/>
</g>
</svg>
